<?xml version="1.0" standalone="no"?>
<!DOCTYPE svg PUBLIC "-//W3C//DTD SVG 1.1//EN" "http://www.w3.org/Graphics/SVG/1.1/DTD/svg11.dtd" >
<svg>
<metadata>
Created by FontForge 20120731 at Tue Nov  1 13:31:18 2016
 By ,,,
Copyright (c) 2001-2009 Typotheque.com All rights reserved. Cyrillic designed by Alexei Kassian and Gayaneh Bagdasaryan.
</metadata>
<defs>
<font id="FedraSansAltStd-Medium" horiz-adv-x="600" >
  <font-face 
    font-family="Fedra Sans Alt Std Medium"
    font-weight="500"
    font-stretch="normal"
    units-per-em="1000"
    panose-1="2 0 6 3 0 0 0 2 0 4"
    ascent="780"
    descent="-220"
    x-height="546"
    cap-height="707"
    bbox="-206 -284 1453 969"
    underline-thickness="50"
    underline-position="-50"
    unicode-range="U+0020-FB04"
  />
<missing-glyph horiz-adv-x="712" 
d="M305 375v27h27v-27h-27zM380 525v27h27v-27h-27zM305 525v27h27v-27h-27zM230 525v27h27v-27h-27zM80 0v27h27v-27h-27zM155 0v27h27v-27h-27zM230 0v27h27v-27h-27zM305 0v27h27v-27h-27zM380 0v27h27v-27h-27zM80 75v27h27v-27h-27zM80 150v27h27v-27h-27zM80 225v27
h27v-27h-27zM80 300v27h27v-27h-27zM80 375v27h27v-27h-27zM80 450v27h27v-27h-27zM80 525v27h27v-27h-27zM80 600v27h27v-27h-27zM80 675v27h27v-27h-27zM155 675v27h27v-27h-27zM230 675v27h27v-27h-27zM305 675v27h27v-27h-27zM380 675v27h27v-27h-27zM455 675v27h27v-27
h-27zM530 675v27h27v-27h-27zM530 0v27h27v-27h-27zM455 0v27h27v-27h-27zM605 0v27h27v-27h-27zM605 675v27h27v-27h-27zM305 300v27h27v-27h-27zM305 150v27h27v-27h-27zM380 375v27h27v-27h-27zM455 375v27h27v-27h-27zM455 450v27h27v-27h-27zM455 525v27h27v-27h-27z
M605 600v27h27v-27h-27zM605 525v27h27v-27h-27zM605 375v27h27v-27h-27zM605 300v27h27v-27h-27zM605 150v27h27v-27h-27zM605 75v27h27v-27h-27zM605 225v27h27v-27h-27zM605 450v27h27v-27h-27z" />
    <glyph glyph-name="f_f" unicode="ff" horiz-adv-x="721" 
d="M107 0v451h-80v95h80v36q0 198 221 198q103 0 195 -33q46 33 143 33q68 0 128 -20l-26 -104q-51 10 -97 10q-83 0 -83 -84v-36h118v-95h-118v-451h-133v451h-215v-451h-133zM240 546h215v43q0 36 8 60q-63 17 -138 17q-85 0 -85 -84v-36z" />
    <glyph glyph-name="fi" unicode="fi" horiz-adv-x="662" 
d="M107 0v450h-80v96h80v30q0 204 211 204q22 0 66 -3t65 -3q69 0 120 6l20 -101q-63 -21 -147 -21q-20 0 -60 2.5t-65 2.5q-42 0 -59.5 -19.5t-17.5 -68.5v-29h348v-546h-134v450h-215v-450h-132z" />
    <glyph glyph-name="fl" unicode="fl" horiz-adv-x="662" 
d="M107 0v450h-80v96h80v29q0 108 58.5 156t152.5 48q20 0 64 -3t67 -3q52 -1 139 9v-782h-134v658q-23 -1 -66.5 2t-70.5 3q-42 0 -59.5 -20.5t-17.5 -65.5v-31h117v-96h-118v-450h-132z" />
    <glyph glyph-name="f_f_i" unicode="ffi" horiz-adv-x="1010" 
d="M107 0v450h-80v96h80v36q0 198 216 198q115 0 205 -35q54 37 138 37q22 0 66 -3t65 -3q69 0 119 6l21 -101q-64 -21 -146 -21q-21 0 -61.5 3t-65.5 3q-41 0 -58 -21.5t-17 -70.5v-28h348v-546h-134v450h-214v-450h-134v450h-214v-450h-134zM241 546h215v29q0 47 9 74
q-72 17 -140 17q-84 0 -84 -84v-36z" />
    <glyph glyph-name="f_f_l" unicode="ffl" horiz-adv-x="1006" 
d="M107 0v451h-80v95h80v36q0 198 221 198q107 0 200 -35q53 37 137 37q22 0 66 -3.5t66 -3.5q50 -1 135 9v-784h-133v660q-21 0 -63.5 3t-71.5 3q-41 0 -58.5 -21.5t-17.5 -69.5v-29h116v-95h-116v-451h-133v451h-214v-451h-134zM241 546h214v29q0 43 9 73q-64 18 -139 18
q-84 0 -84 -84v-36z" />
    <glyph glyph-name="f_h" unicode="fh" horiz-adv-x="1018" 
d="M107 0v452h-80v94h80v29q0 110 58.5 158.5t152.5 48.5q22 0 65.5 -3.5t65.5 -3.5q52 -1 139 9v-294q102 71 183 71q60 0 98 -16.5t54.5 -50t21.5 -65.5t5 -82v-347h-133v332q0 62 -18 87.5t-70 25.5q-56 0 -141 -46v-399h-134v660q-23 -1 -66.5 2.5t-71.5 3.5
q-41 0 -58.5 -21.5t-17.5 -70.5v-28h116v-94h-117v-452h-132z" />
    <glyph glyph-name="f_b" unicode="fb" horiz-adv-x="1003" 
d="M672 -10q-117 0 -217 32v636q-23 -1 -67 2t-71 3q-42 0 -59.5 -20.5t-17.5 -65.5v-31h117v-96h-118v-450h-132v450h-80v96h80v29q0 108 58.5 156t152.5 48q20 0 64 -3t67 -3q52 -1 139 9v-252q43 28 126 28q247 0 247 -258q0 -84 -23.5 -146t-65 -97t-91.5 -51t-109 -16z
M690 457q-47 0 -102 -22v-328q50 -12 87 -12q71 0 110.5 56t39.5 142q0 84 -29.5 124t-105.5 40z" />
    <glyph glyph-name="f_j" unicode="fj" horiz-adv-x="662" 
d="M376 -227q-39 0 -93 18l25 107q24 -8 71 -8q42 0 58.5 22.5t16.5 77.5v462h-215v-452h-132v452h-80v94h80v27q0 111 58 159.5t153 48.5q20 0 63.5 -3t67.5 -3q69 0 119 6l21 -101q-61 -21 -147 -21q-21 0 -61 2.5t-65 2.5q-41 0 -58.5 -21.5t-17.5 -69.5v-27h348v-555
q0 -124 -56.5 -171t-155.5 -47z" />
    <glyph glyph-name="f_k" unicode="fk" horiz-adv-x="956" 
d="M948 0h-164l-196 257v-257h-134v660q-23 -1 -66.5 2.5t-71.5 3.5q-41 0 -58.5 -21.5t-17.5 -70.5v-28h116v-94h-117v-452h-132v452h-80v94h80v29q0 110 58.5 158.5t152.5 48.5q22 0 65.5 -3.5t65.5 -3.5q53 -1 139 9v-475l190 237h146l-212 -253z" />
    <glyph glyph-name="f_f_j" unicode="ffj" horiz-adv-x="1010" 
d="M729 -220q-51 0 -93 16l25 104q21 -7 65 -7q42 0 59 23.5t18 77.5v456h-214v-450h-134v450h-214v-450h-134v450h-80v96h80v36q0 198 216 198q115 0 205 -35q54 37 138 37q22 0 66 -3t65 -3q69 0 119 6l21 -101q-64 -21 -146 -21q-21 0 -61.5 3t-65.5 3q-41 0 -58 -21.5
t-17 -70.5v-28h348l-1 -552q0 -64 -16.5 -108t-47 -66t-64.5 -31t-79 -9zM241 546h215v29q0 47 9 74q-72 17 -140 17q-84 0 -84 -84v-36z" />
    <glyph glyph-name="f_idieresis" unicode="f&#xef;" horiz-adv-x="669" 
d="M107 0v450h-80v96h80v41q0 181 179 181q44 0 84 -14l-21 -100q-22 9 -53 9q-56 0 -56 -70v-47h113v-96h-113v-450h-133zM462 0v546h134v-546h-134zM398 648v108h110v-108h-110zM589 648v108h110v-108h-110z" />
    <glyph glyph-name="f_igrave" unicode="f&#xec;" horiz-adv-x="669" 
d="M107 0v450h-80v96h80v41q0 181 175 181q57 0 97 -13l-21 -104q-29 12 -65 12q-53 0 -53 -70v-47h113v-96h-113v-450h-133zM555 597l-151 164l80 69l141 -175zM462 0v546h134v-546h-134z" />
    <glyph glyph-name="aogonek_j" unicode="&#x105;j" horiz-adv-x="885" 
d="M497 -252q-79 0 -121 33.5t-42 86.5q0 78 87 134q-14 8 -27 24t-16 31q-87 -65 -170 -65q-84 0 -129.5 40t-45.5 119q0 48 20 82.5t55 52t71.5 25t78.5 7.5l108 1v48q0 45 -26.5 61.5t-88.5 16.5q-56 0 -152 -24l-27 99q106 39 203 39q38 0 67 -3t59.5 -13.5t50 -27.5
t32 -47t12.5 -71v-266q0 -31 50 -34l-7 -101q-42 -27 -63.5 -49t-21.5 -49q0 -21 18 -32t44 -11q70 0 116 42t46 112v537h133v-537q0 -121 -87 -191t-227 -70zM232 96q16 0 37.5 4.5t35.5 9t35.5 12t25.5 8.5v108l-101 -4q-102 -3 -102 -75q0 -63 69 -63zM677 653v128h133
v-128h-133z" />
    <glyph glyph-name=".notdef" horiz-adv-x="712" 
d="M305 375v27h27v-27h-27zM380 525v27h27v-27h-27zM305 525v27h27v-27h-27zM230 525v27h27v-27h-27zM80 0v27h27v-27h-27zM155 0v27h27v-27h-27zM230 0v27h27v-27h-27zM305 0v27h27v-27h-27zM380 0v27h27v-27h-27zM80 75v27h27v-27h-27zM80 150v27h27v-27h-27zM80 225v27
h27v-27h-27zM80 300v27h27v-27h-27zM80 375v27h27v-27h-27zM80 450v27h27v-27h-27zM80 525v27h27v-27h-27zM80 600v27h27v-27h-27zM80 675v27h27v-27h-27zM155 675v27h27v-27h-27zM230 675v27h27v-27h-27zM305 675v27h27v-27h-27zM380 675v27h27v-27h-27zM455 675v27h27v-27
h-27zM530 675v27h27v-27h-27zM530 0v27h27v-27h-27zM455 0v27h27v-27h-27zM605 0v27h27v-27h-27zM605 675v27h27v-27h-27zM305 300v27h27v-27h-27zM305 150v27h27v-27h-27zM380 375v27h27v-27h-27zM455 375v27h27v-27h-27zM455 450v27h27v-27h-27zM455 525v27h27v-27h-27z
M605 600v27h27v-27h-27zM605 525v27h27v-27h-27zM605 375v27h27v-27h-27zM605 300v27h27v-27h-27zM605 150v27h27v-27h-27zM605 75v27h27v-27h-27zM605 225v27h27v-27h-27zM605 450v27h27v-27h-27z" />
    <glyph glyph-name=".null" horiz-adv-x="0" 
 />
    <glyph glyph-name="nonmarkingreturn" horiz-adv-x="333" 
 />
    <glyph glyph-name="space" unicode=" " horiz-adv-x="236" 
 />
    <glyph glyph-name="exclam" unicode="!" horiz-adv-x="317" 
d="M100 202l-8 173v332h133v-332l-7 -173h-118zM89 0v124h138v-124h-138z" />
    <glyph glyph-name="quotedbl" unicode="&#x22;" horiz-adv-x="396" 
d="M56 515l-8 239h113l-9 -239h-96zM244 515l-8 239h113l-9 -239h-96z" />
    <glyph glyph-name="numbersign" unicode="#" horiz-adv-x="664" 
d="M125 0l6 121h-86v105h93l6 104h-99v105h108l6 127h125l-7 -127h135l7 127h124l-7 -127h83v-105h-91l-6 -104h97v-105h-103l-7 -121h-125l7 121h-135l-7 -121h-124zM262 226h136l6 104h-135z" />
    <glyph glyph-name="dollar" unicode="$" horiz-adv-x="531" 
d="M215 -99v92q-106 3 -178 36l36 97q80 -25 143 -29v138q-34 12 -58 24.5t-49.5 32t-39 48t-13.5 64.5q0 60 44 95.5t115 46.5v108h95v-104q73 -2 152 -31l-30 -93q-75 19 -123 21v-122q33 -13 51.5 -20.5t48 -23.5t45 -31.5t28 -39.5t12.5 -52q0 -71 -51 -110.5
t-133 -50.5v-96h-95zM353 153q0 28 -44 48v-97q44 14 44 49zM193 404q0 -21 23 -37v71q-23 -11 -23 -34z" />
    <glyph glyph-name="percent" unicode="%" horiz-adv-x="837" 
d="M211 365q-75 0 -124 41.5t-49 127.5q0 83 51.5 131.5t124.5 48.5q78 0 127.5 -41t49.5 -131q0 -82 -52 -129.5t-128 -47.5zM211 458q31 0 49.5 21.5t18.5 62.5q0 80 -65 80q-27 0 -45 -20.5t-18 -67.5q0 -76 60 -76zM617 -10q-76 0 -124.5 41t-48.5 127q0 83 51.5 131.5
t124.5 48.5q78 0 127.5 -41t49.5 -131q0 -82 -52 -129t-128 -47zM617 83q31 0 49.5 21t18.5 62q0 80 -65 80q-27 0 -45.5 -21t-18.5 -67q0 -40 15 -57.5t46 -17.5zM164 45l-70 73l564 532l70 -73z" />
    <glyph glyph-name="ampersand" unicode="&#x26;" horiz-adv-x="706" 
d="M248 -11q-91 0 -151 44t-60 137q0 115 141 201q-48 87 -48 161q0 67 52 124.5t148 57.5q89 0 133 -46.5t44 -112.5q0 -68 -50.5 -115.5t-142.5 -90.5q59 -99 166 -166t223 -84l-15 -105q-130 8 -248 72q-86 -77 -192 -77zM260 89q56 0 101 34q-86 65 -139 159
q-60 -43 -60 -105q0 -43 28 -65.5t70 -22.5zM273 425q51 25 85.5 56.5t34.5 63.5t-19.5 51.5t-51.5 19.5q-33 0 -55 -21t-22 -57q0 -55 28 -113z" />
    <glyph glyph-name="quotesingle" unicode="'" horiz-adv-x="215" 
d="M56 515l-8 239h120l-9 -239h-103z" />
    <glyph glyph-name="parenleft" unicode="(" horiz-adv-x="363" 
d="M337 -150l-64 -70q-108 80 -173 206t-65 291q0 160 65.5 285.5t171.5 196.5l68 -67q-183 -158 -183 -414q0 -126 47.5 -237.5t132.5 -190.5z" />
    <glyph glyph-name="parenright" unicode=")" horiz-adv-x="363" 
d="M90 -220l-64 70q85 79 132.5 190.5t47.5 237.5q0 256 -183 414l68 67q106 -71 171.5 -196.5t65.5 -285.5q0 -165 -65 -291t-173 -206z" />
    <glyph glyph-name="asterisk" unicode="*" horiz-adv-x="428" 
d="M81 453l-47 84l122 37l20 -36zM157 591l-123 41l48 84l95 -88zM164 405l30 123h40l27 -123h-97zM193 638l-26 123h96l-27 -123h-43zM348 450l-96 87l21 37l122 -40zM272 592l-20 36l95 86l47 -84z" />
    <glyph glyph-name="plus" unicode="+" horiz-adv-x="576" 
d="M233 48l1 206l-205 -1v103l205 -3l-1 209h104l-4 -211l214 5v-103l-212 1l2 -206h-104z" />
    <glyph glyph-name="comma" unicode="," horiz-adv-x="259" 
d="M33 -130q28 60 28 163v100h139v-63q0 -119 -52 -200h-115z" />
    <glyph glyph-name="hyphen" unicode="-" horiz-adv-x="454" 
d="M78 232v109h298v-109h-298z" />
    <glyph glyph-name="period" unicode="." horiz-adv-x="272" 
d="M61 0v136h151v-136h-151z" />
    <glyph glyph-name="slash" unicode="/" horiz-adv-x="444" 
d="M46 -62l233 830h118l-232 -830h-119z" />
    <glyph glyph-name="zero" unicode="0" horiz-adv-x="677" 
d="M334 -12q-142 0 -216 70t-74 210q0 139 78.5 215.5t223.5 76.5q142 0 214.5 -74.5t72.5 -203.5q0 -146 -80 -220t-219 -74zM338 99q71 0 115 46.5t44 133.5q0 80 -41 125t-114 45q-76 0 -119 -46t-43 -133q0 -84 44 -127.5t114 -43.5z" />
    <glyph glyph-name="one" unicode="1" horiz-adv-x="370" 
d="M157 0v446h-142v105l276 8v-559h-134z" />
    <glyph glyph-name="two" unicode="2" horiz-adv-x="518" 
d="M35 0v110q13 10 73 51.5t100 72t77 70.5t37 67q0 79 -105 79q-63 0 -134 -30l-34 97q26 15 76 29t98 14q127 0 179 -52.5t52 -132.5q0 -130 -250 -267h277v-108h-446z" />
    <glyph glyph-name="three" unicode="3" horiz-adv-x="495" 
d="M197 -169q-103 0 -187 28l26 108q82 -23 151 -23q66 0 100 20.5t34 74.5q0 55 -34.5 83t-108.5 36q-12 2 -41 2v93l35 3q118 17 118 108q0 44 -33 64t-82 20q-63 0 -106 -20l-32 94q73 36 164 36q95 0 157 -45.5t62 -131.5q0 -117 -107 -161q60 -22 101 -67t41 -113
q0 -108 -73 -158.5t-185 -50.5z" />
    <glyph glyph-name="four" unicode="4" 
d="M336 -162v192h-314v92l244 424h204v-408h104v-108h-104v-192h-134zM147 138h189v335z" />
    <glyph glyph-name="five" unicode="5" horiz-adv-x="540" 
d="M241 -171q-118 0 -192 24l33 110q80 -20 158 -20q60 0 95 29t35 78q0 117 -130 117q-72 0 -166 -9v388h397v-108h-268v-168q35 3 63 3q110 0 174 -56t64 -156q0 -109 -73.5 -170.5t-189.5 -61.5z" />
    <glyph glyph-name="six" unicode="6" horiz-adv-x="608" 
d="M325 -12q-131 0 -197.5 75t-66.5 243q0 200 88 304t241 104q81 0 134 -20l-29 -104q-50 12 -106 12q-143 0 -182 -167q65 19 128 19q116 0 178 -55t62 -165q0 -115 -71 -180.5t-179 -65.5zM322 350q-72 0 -128 -19v-31q0 -111 30 -157t108 -46q50 0 79.5 35.5t29.5 91.5
q0 126 -119 126z" />
    <glyph glyph-name="seven" unicode="7" horiz-adv-x="509" 
d="M177 -183l-117 40l295 570h-324v119h459v-93z" />
    <glyph glyph-name="eight" unicode="8" horiz-adv-x="594" 
d="M294 -12q-113 0 -182 47t-69 139q0 69 39.5 114t107.5 82q-57 37 -89 75t-32 91q0 88 65 135t170 47q101 0 163 -51t62 -122q0 -57 -36 -95.5t-102 -77.5q76 -41 118 -82t42 -104q0 -97 -70 -147.5t-187 -50.5zM300 89q54 0 85.5 25.5t31.5 75.5q0 62 -130 133
q-114 -64 -114 -137q0 -46 34.5 -71.5t92.5 -25.5zM294 415q102 52 102 115q0 40 -23.5 64t-69.5 24q-53 0 -78.5 -24.5t-25.5 -64.5q0 -61 95 -114z" />
    <glyph glyph-name="nine" unicode="9" horiz-adv-x="607" 
d="M213 -166q-76 0 -131 20l29 105q54 -13 104 -13q153 0 187 170q-74 -18 -131 -18q-238 0 -238 221q0 114 71.5 177.5t179.5 63.5q126 0 194.5 -79t68.5 -239q0 -208 -86.5 -308t-247.5 -100zM286 201q50 0 126 19v13q2 117 -29 167t-106 50q-51 0 -80.5 -33t-29.5 -89
q0 -70 31 -98.5t88 -28.5z" />
    <glyph glyph-name="colon" unicode=":" horiz-adv-x="309" 
d="M79 0v136h151v-136h-151zM79 410v136h151v-136h-151z" />
    <glyph glyph-name="semicolon" unicode=";" horiz-adv-x="308" 
d="M50 -130q31 60 31 141v122h147v-84q0 -101 -59 -179h-119zM78 410v136h151v-136h-151z" />
    <glyph glyph-name="less" unicode="&#x3c;" horiz-adv-x="500" 
d="M448 54l-416 190v119l416 197v-114l-310 -143l310 -135v-114z" />
    <glyph glyph-name="equal" unicode="=" horiz-adv-x="636" 
d="M84 133l-1 103h469l1 -103h-469zM84 369l-1 103h469l1 -103h-469z" />
    <glyph glyph-name="greater" unicode="&#x3e;" horiz-adv-x="500" 
d="M52 54v114l310 135l-310 143v114l416 -197v-119z" />
    <glyph glyph-name="question" unicode="?" horiz-adv-x="407" 
d="M91 177q-22 47 -22 90q0 36 17 68t41 54.5t48 42.5t41 38.5t17 34.5q0 82 -188 97l24 111q303 -21 303 -202q0 -35 -19 -67t-46.5 -56t-55 -45.5t-46.5 -43t-19 -40.5q0 -32 14 -64zM85 0v124h137v-124h-137z" />
    <glyph glyph-name="at" unicode="@" horiz-adv-x="808" 
d="M382 -73q-158 0 -247.5 84t-89.5 256q0 113 35 201t96 141.5t138.5 80.5t168.5 27q135 0 210.5 -73t75.5 -222q0 -133 -68.5 -209t-171.5 -76q-41 0 -66 19t-27 45q-15 -21 -44 -38t-51 -17q-55 0 -84 30t-29 106q0 93 56 153.5t149 60.5q68 0 131 -25l-24 -201
q-4 -40 20 -40q35 0 71 51.5t36 141.5q0 104 -51 155t-139 51q-144 0 -236 -88t-92 -268q0 -128 65 -190t177 -62q75 0 165 18l13 -85q-88 -27 -187 -27zM371 242q8 0 15 1.5t11.5 3t11 5t8.5 5t9 6.5l6 5l19 146q-2 0 -7.5 0.5t-8.5 0.5q-42 0 -67 -33.5t-25 -88.5
q0 -51 28 -51z" />
    <glyph glyph-name="A" unicode="A" horiz-adv-x="700" 
d="M-9 0l279 707h177l245 -707h-143l-77 229h-255l-87 -229h-139zM255 330h183l-85 290z" />
    <glyph glyph-name="B" unicode="B" horiz-adv-x="664" 
d="M92 0v707h227q250 0 250 -188q0 -47 -24 -84t-60 -53v-2q51 -13 93 -56.5t42 -111.5q0 -212 -271 -212h-257zM229 108h107q74 0 110.5 22.5t36.5 77.5q0 56 -39 80t-121 24h-94v-204zM229 409h84q61 0 90.5 23t29.5 73q0 53 -34 75t-104 22h-66v-193z" />
    <glyph glyph-name="C" unicode="C" horiz-adv-x="678" 
d="M430 -12q-185 0 -284 95.5t-99 265.5t101 269.5t278 99.5q120 0 214 -43l-38 -101q-38 11 -56.5 16t-49 9t-68.5 4q-108 1 -174.5 -60.5t-66.5 -183.5q0 -125 71 -189.5t189 -64.5q87 0 165 23l30 -105q-95 -35 -212 -35z" />
    <glyph glyph-name="D" unicode="D" horiz-adv-x="774" 
d="M92 0v707h229q188 0 297 -87t109 -264q0 -180 -104.5 -268t-295.5 -88h-235zM228 108h110q252 0 252 238q0 253 -272 253h-90v-491z" />
    <glyph glyph-name="E" unicode="E" 
d="M92 0v707h438v-108h-302v-193h280v-102h-280v-196h325v-108h-461z" />
    <glyph glyph-name="F" unicode="F" horiz-adv-x="595" 
d="M92 0v707h464v-108h-328v-211h306v-102h-306v-286h-136z" />
    <glyph glyph-name="G" unicode="G" horiz-adv-x="710" 
d="M429 -11q-179 0 -280.5 93t-101.5 267q0 181 98.5 274.5t284.5 93.5q114 0 209 -41l-37 -102q-39 11 -56 15.5t-49 9t-68 4.5q-108 0 -175 -60t-67 -184q0 -126 72 -190t185 -64q34 0 72 6v238h136v-321q-104 -39 -223 -39z" />
    <glyph glyph-name="H" unicode="H" horiz-adv-x="790" 
d="M92 0v707h136v-299h334v299h136v-707h-136v302h-334v-302h-136z" />
    <glyph glyph-name="I" unicode="I" horiz-adv-x="320" 
d="M92 0v707h136v-707h-136z" />
    <glyph glyph-name="J" unicode="J" horiz-adv-x="322" 
d="M1 -194l-52 99q87 48 116 99.5t29 146.5v556h138v-554q0 -50 -4 -86t-17.5 -77t-38 -72t-67.5 -60.5t-104 -51.5z" />
    <glyph glyph-name="K" unicode="K" horiz-adv-x="687" 
d="M92 0v707h136v-323l267 323h174l-289 -329l306 -378h-175l-283 374v-374h-136z" />
    <glyph glyph-name="L" unicode="L" horiz-adv-x="544" 
d="M92 0v707h136v-597h307v-110h-443z" />
    <glyph glyph-name="M" unicode="M" horiz-adv-x="974" 
d="M92 0v707h170l215 -594l243 594h162v-707h-137v343l6 145h-4l-193 -488h-163l-167 489h-4l8 -140v-349h-136z" />
    <glyph glyph-name="N" unicode="N" horiz-adv-x="792" 
d="M92 0v707h162l312 -534h2l-4 83v451h137v-707h-168l-305 523h-4l4 -86v-437h-136z" />
    <glyph glyph-name="O" unicode="O" horiz-adv-x="831" 
d="M407 -12q-175 0 -268 98t-93 269q0 167 102 265t276 98q178 0 269.5 -100.5t91.5 -264.5q0 -169 -99 -267t-279 -98zM410 97q120 0 178 70.5t58 186.5q0 115 -58.5 185t-170.5 70q-116 0 -174.5 -69.5t-58.5 -183.5q0 -113 57 -186t169 -73z" />
    <glyph glyph-name="P" unicode="P" horiz-adv-x="632" 
d="M92 0v707h258q116 0 186 -63.5t70 -176.5q0 -106 -80.5 -176t-227.5 -70h-69v-221h-137zM229 599v-271h75q79 0 119.5 35.5t40.5 99.5q0 136 -136 136h-99z" />
    <glyph glyph-name="Q" unicode="Q" horiz-adv-x="846" 
d="M407 -12q-175 0 -268 98t-93 269q0 167 102 265t276 98q178 0 269.5 -100.5t91.5 -264.5q0 -148 -77 -242l95 -95l-68 -59l-94 93q-93 -62 -234 -62zM410 97q86 0 144 40l-110 111l70 59l100 -101q32 60 32 148q0 115 -58.5 185t-170.5 70q-116 0 -174.5 -69.5
t-58.5 -183.5q0 -113 57 -186t169 -73z" />
    <glyph glyph-name="R" unicode="R" horiz-adv-x="727" 
d="M92 0v707h258q117 0 186.5 -56t69.5 -166q0 -62 -30.5 -112.5t-90.5 -79.5l223 -293h-173l-186 261q-21 -3 -51 -3h-69v-258h-137zM229 358h75q161 0 161 122q0 64 -32 91.5t-105 27.5h-99v-241z" />
    <glyph glyph-name="S" unicode="S" horiz-adv-x="569" 
d="M256 -12q-125 0 -221 54l40 104q102 -44 181 -44q63 0 101.5 24t38.5 69q0 38 -35 64t-85.5 45t-100.5 42t-85 68t-35 111q0 90 70.5 141.5t167.5 51.5q119 0 203 -49l-40 -101q-80 36 -159 36q-48 0 -78 -21.5t-30 -58.5q0 -27 25.5 -50t64 -38t83 -36t83 -44t64 -63
t25.5 -92q0 -104 -80.5 -158.5t-197.5 -54.5z" />
    <glyph glyph-name="T" unicode="T" horiz-adv-x="615" 
d="M239 0v598h-229v109h595v-109h-229v-598h-137z" />
    <glyph glyph-name="U" unicode="U" horiz-adv-x="780" 
d="M392 -13q-61 0 -113.5 14t-98.5 45.5t-72.5 89t-26.5 136.5v435h138v-429q0 -177 173 -177q174 0 174 199v407h135v-410q0 -69 -18.5 -123.5t-48 -89t-70.5 -57t-83.5 -31.5t-88.5 -9z" />
    <glyph glyph-name="V" unicode="V" horiz-adv-x="700" 
d="M253 0l-246 707h145l194 -604l224 604h139l-277 -707h-179z" />
    <glyph glyph-name="W" unicode="W" horiz-adv-x="1056" 
d="M1046 707l-208 -707h-184l-126 520l-143 -520h-186l-169 707h141l129 -622l173 622h127l150 -618l159 617z" />
    <glyph glyph-name="X" unicode="X" horiz-adv-x="658" 
d="M2 0l252 367l-218 340h156l141 -236l151 236h152l-231 -338l237 -369h-158l-159 265l-169 -265h-154z" />
    <glyph glyph-name="Y" unicode="Y" horiz-adv-x="662" 
d="M261 0v243l-250 464h157l166 -348l177 348h152l-266 -461v-246h-136z" />
    <glyph glyph-name="Z" unicode="Z" horiz-adv-x="604" 
d="M36 0v98l344 495h-318v114h483v-91l-348 -502h369v-114h-530z" />
    <glyph glyph-name="bracketleft" unicode="[" horiz-adv-x="336" 
d="M73 -220v974h234v-104h-107v-766h107v-104h-234z" />
    <glyph glyph-name="backslash" unicode="\" horiz-adv-x="444" 
d="M279 -62l-233 830h119l233 -830h-119z" />
    <glyph glyph-name="bracketright" unicode="]" horiz-adv-x="336" 
d="M29 -220v104h107v766h-107v104h234v-974h-234z" />
    <glyph glyph-name="asciicircum" unicode="^" horiz-adv-x="544" 
d="M34 294l168 413h153l157 -413h-130l-105 313l-116 -313h-127z" />
    <glyph glyph-name="underscore" unicode="_" horiz-adv-x="596" 
d="M43 -186v109h511v-109h-511z" />
    <glyph glyph-name="grave" unicode="`" horiz-adv-x="578" 
d="M385 607l-224 111l46 95l220 -125z" />
    <glyph glyph-name="a" unicode="a" horiz-adv-x="578" 
d="M205 -9q-78 0 -125 41.5t-47 117.5q0 166 225 168l108 1v47q0 46 -25.5 63t-83.5 17q-76 0 -158 -25l-27 98q100 40 209 40q110 0 162.5 -38.5t52.5 -124.5v-265q0 -32 53 -34l-5 -101q-10 -1 -26 -1q-124 0 -140 62q-85 -66 -173 -66zM243 95q55 0 123 35v108l-101 -4
q-48 -1 -75 -20t-27 -54q0 -32 22 -48.5t58 -16.5z" />
    <glyph glyph-name="b" unicode="b" horiz-adv-x="617" 
d="M269 -11q-101 0 -200 33v732h133v-227q60 31 132 31q241 0 241 -263q0 -83 -23.5 -144t-66 -95.5t-96 -50.5t-120.5 -16zM307 457q-51 0 -105 -22v-327q52 -13 85 -13q74 0 113 56.5t39 150.5q0 76 -30 115.5t-102 39.5z" />
    <glyph glyph-name="c" unicode="c" horiz-adv-x="518" 
d="M335 -12q-156 0 -225 67t-69 205q0 147 75 223.5t211 76.5q94 0 160 -36l-35 -99q-65 25 -118 25q-77 0 -117 -43t-40 -143q0 -86 37.5 -126.5t136.5 -40.5q36 0 113 15l19 -103q-88 -21 -148 -21z" />
    <glyph glyph-name="d" unicode="d" horiz-adv-x="617" 
d="M276 -9q-32 0 -63 7.5t-63 26.5t-55.5 49t-38.5 79t-15 112q0 149 78.5 222t207.5 73q35 0 83 -9v203h133v-754h-133v44q-22 -17 -34 -25.5t-40 -18t-60 -9.5zM301 102q48 0 109 35v306q-60 11 -81 11q-154 0 -154 -181q0 -89 35 -130t91 -41z" />
    <glyph glyph-name="e" unicode="e" horiz-adv-x="571" 
d="M321 -12q-136 0 -207.5 62t-71.5 215q0 154 70.5 224t187.5 70q122 0 177 -70t55 -205v-48h-356q-1 -80 43 -110t120 -30q67 0 157 23l21 -101q-87 -30 -196 -30zM179 325h216q1 64 -24.5 101t-75.5 37q-49 0 -80.5 -36t-35.5 -102z" />
    <glyph glyph-name="f" unicode="f" horiz-adv-x="373" 
d="M107 0v450h-80v96h80v27q0 195 201 195q53 0 93 -13l-21 -101q-36 8 -67 8q-73 0 -73 -90v-26h117v-96h-117v-450h-133z" />
    <glyph glyph-name="g" unicode="g" horiz-adv-x="598" 
d="M263 193q-47 0 -86 11q-16 -23 -16 -42q0 -15 11 -25t30 -10h112q219 0 219 -152q0 -88 -72 -146.5t-207 -58.5q-106 0 -164 37.5t-58 103.5q0 81 69 128q-40 28 -40 77q0 64 59 112q-72 45 -72 135q0 85 59.5 140.5t162.5 55.5q81 0 134 -32l168 9v-97h-89
q11 -48 11 -72q0 -80 -65.5 -127t-165.5 -47zM321 18h-137q-18 0 -26 1q-28 -31 -28 -68q0 -80 134 -80q71 0 114.5 25t43.5 63q0 28 -26 43.5t-75 15.5zM268 275q49 0 77 27t28 70t-27 71t-75 28q-47 0 -75 -27.5t-28 -73.5q0 -44 27 -69.5t73 -25.5z" />
    <glyph glyph-name="h" unicode="h" horiz-adv-x="636" 
d="M74 0v754h133v-268q92 73 184 73q48 0 82 -12.5t52 -30t28 -49t12 -57t2 -65.5v-345h-131v330q0 63 -18 88t-68 25q-64 0 -143 -45v-398h-133z" />
    <glyph glyph-name="i" unicode="i" horiz-adv-x="281" 
d="M74 0v546h134v-546h-134zM74 653v128h133v-128h-133z" />
    <glyph glyph-name="j" unicode="j" horiz-adv-x="281" 
d="M0 -225q-56 0 -106 22l24 105q37 -13 78 -13q43 0 60.5 25t17.5 81v551h133v-552q0 -65 -16 -109.5t-46.5 -67.5t-65 -32.5t-79.5 -9.5zM73 653v128h133v-128h-133z" />
    <glyph glyph-name="k" unicode="k" horiz-adv-x="575" 
d="M75 0v754h133v-444l189 236h146l-211 -253l232 -293h-165l-191 263v-263h-133z" />
    <glyph glyph-name="l" unicode="l" horiz-adv-x="281" 
d="M74 0v754h133v-754h-133z" />
    <glyph glyph-name="m" unicode="m" horiz-adv-x="969" 
d="M74 0v546h133v-59q94 73 179 73q56 0 95 -22t55 -60q95 82 192 82q49 0 83 -14.5t51 -33t26 -52.5t10.5 -55.5t1.5 -58.5v-346h-133v331q0 59 -18 86t-67 27q-63 0 -132 -45q3 -26 3 -52v-347h-132v331q0 61 -17.5 86.5t-64.5 25.5q-67 0 -132 -44v-399h-133z" />
    <glyph glyph-name="n" unicode="n" horiz-adv-x="636" 
d="M74 0v546h133v-58q51 36 93 54t100 18q55 0 90.5 -17t51.5 -50.5t21 -66t5 -80.5v-346h-132v331q0 64 -17.5 88.5t-67.5 24.5q-68 0 -144 -43v-401h-133z" />
    <glyph glyph-name="o" unicode="o" horiz-adv-x="619" 
d="M304 -12q-126 0 -195 74.5t-69 205.5q0 137 74.5 214.5t199.5 77.5q132 0 198.5 -74.5t66.5 -211.5q0 -138 -75.5 -212t-199.5 -74zM311 95q74 0 103 47t29 130q0 182 -133 182q-135 0 -135 -182q0 -177 136 -177z" />
    <glyph glyph-name="p" unicode="p" horiz-adv-x="621" 
d="M74 -220v766h132v-41q76 54 154 54q100 0 160 -66t60 -200q0 -82 -23.5 -142.5t-65 -94.5t-92 -50t-109.5 -16q-29 0 -84 5v-215h-132zM288 93q78 0 117.5 53t39.5 142q0 159 -129 159q-42 0 -110 -29v-317q80 -8 82 -8z" />
    <glyph glyph-name="q" unicode="q" horiz-adv-x="614" 
d="M410 -220v241q-52 -30 -119 -30q-45 0 -84.5 11.5t-79 39.5t-63 85.5t-23.5 138.5q0 294 306 294q99 0 196 -30v-750h-133zM305 103q54 0 105 20v319q-37 11 -81 11q-155 0 -155 -181q0 -169 131 -169z" />
    <glyph glyph-name="r" unicode="r" horiz-adv-x="427" 
d="M74 0v546h133v-73q23 33 62 58.5t85 25.5q44 0 71 -9l-19 -110q-31 6 -70 6t-74 -18.5t-55 -43.5v-382h-133z" />
    <glyph glyph-name="s" unicode="s" horiz-adv-x="482" 
d="M209 -12q-97 0 -171 23l16 104q103 -18 158 -18q108 0 108 53q0 20 -20.5 35.5t-51 24.5t-66 23.5t-66 32t-51 50.5t-20.5 77q0 81 61.5 124t154.5 43q87 0 163 -29l-24 -99q-70 21 -135 21q-88 0 -88 -49q0 -21 20 -36.5t50.5 -25.5t66 -25t66 -32.5t50.5 -51t20 -77.5
q0 -47 -22 -81.5t-59 -52.5t-77 -26t-83 -8z" />
    <glyph glyph-name="t" unicode="t" horiz-adv-x="452" 
d="M285 -13q-90 0 -137.5 40.5t-47.5 135.5v281h-80v102h80v112h133v-112h169v-102h-169v-274q0 -39 17 -54t58 -15q49 0 108 16l15 -106q-67 -24 -146 -24z" />
    <glyph glyph-name="u" unicode="u" horiz-adv-x="635" 
d="M235 -12q-44 0 -75.5 12.5t-48.5 31.5t-27 49.5t-12.5 57t-2.5 64.5v343h133v-328q0 -63 16.5 -88t67.5 -25q72 0 143 43v398h133v-546h-133v59q-31 -22 -51.5 -34.5t-60 -24.5t-82.5 -12z" />
    <glyph glyph-name="v" unicode="v" horiz-adv-x="567" 
d="M197 0l-190 546h143l101 -326l31 -112l34 113l112 325h139l-206 -546h-164z" />
    <glyph glyph-name="w" unicode="w" horiz-adv-x="899" 
d="M170 0l-151 546h140l97 -440l118 440h161l102 -440l117 440h136l-172 -546h-168l-81 336l-18 85l-20 -84l-92 -337h-169z" />
    <glyph glyph-name="x" unicode="x" horiz-adv-x="568" 
d="M11 0l197 279l-184 267h154l106 -183l107 183h151l-183 -266l199 -280h-160l-114 195l-116 -195h-157z" />
    <glyph glyph-name="y" unicode="y" horiz-adv-x="564" 
d="M166 -220l75 220h-52l-183 546h144l103 -349l26 -92l29 91l118 350h135l-267 -766h-128z" />
    <glyph glyph-name="z" unicode="z" horiz-adv-x="518" 
d="M35 0v93l281 344h-261v109h418v-90l-279 -348h283v-108h-442z" />
    <glyph glyph-name="braceleft" unicode="{" horiz-adv-x="347" 
d="M291 -222q-99 0 -152 34.5t-53 118.5q0 9 2 29l21 192q3 25 -17.5 46.5t-61.5 21.5v106q41 0 61.5 21t17.5 46l-21 196q-2 22 -2 31q1 81 54 115.5t151 34.5h44v-112h-40q-43 0 -63 -21.5t-16 -58.5l21 -176q12 -96 -68 -127v-2q80 -36 68 -128l-21 -176
q-4 -36 15.5 -57.5t63.5 -21.5h40v-112h-44z" />
    <glyph glyph-name="bar" unicode="|" horiz-adv-x="266" 
d="M73 -220v974h120v-974h-120z" />
    <glyph glyph-name="braceright" unicode="}" horiz-adv-x="347" 
d="M56 -222h-45v112h41q44 0 63.5 21.5t15.5 57.5l-21 176q-12 92 68 128v2q-80 31 -68 127l21 176q4 37 -16 58.5t-63 21.5h-41v112h45q97 0 150 -34.5t55 -115.5q0 -9 -2 -31l-21 -196q-3 -25 17.5 -46t61.5 -21v-106q-42 0 -62 -21.5t-17 -46.5l21 -192q2 -20 2 -29
q0 -84 -53 -118.5t-152 -34.5z" />
    <glyph glyph-name="asciitilde" unicode="~" horiz-adv-x="564" 
d="M376 257q-50 0 -109.5 30t-86.5 30q-42 0 -80 -32l-62 84q72 81 148 81q50 0 105 -30.5t86 -30.5q17 0 25 0.5t26 8.5t37 24l62 -78q-24 -35 -67.5 -61t-83.5 -26z" />
    <glyph glyph-name="uni00A0" unicode="&#xa0;" horiz-adv-x="236" 
 />
    <glyph glyph-name="exclamdown" unicode="&#xa1;" horiz-adv-x="288" 
d="M78 -161v332l7 173h118l8 -173v-332h-133zM75 422v124h139v-124h-139z" />
    <glyph glyph-name="cent" unicode="&#xa2;" horiz-adv-x="500" 
d="M235 -56v86q-114 16 -160 72t-46 175q0 203 206 240v83h119v-79q56 -5 104 -30l-36 -95q-46 13 -68 16v-281q20 1 86 11l20 -101q-63 -15 -106 -17v-80h-119zM166 275q0 -56 15 -87t54 -45v258q-69 -30 -69 -126z" />
    <glyph glyph-name="sterling" unicode="&#xa3;" horiz-adv-x="506" 
d="M55 0v97q33 17 52 49t19 65h-84v102h87q0 21 -1.5 37t-1.5 30q0 53 16.5 90t41.5 57.5t66.5 32t78 15t90.5 3.5l6 -109q-103 -10 -129 -22q-36 -18 -35 -72q1 -16 1 -27v-7.5v-12.5v-15h159v-102h-171q-5 -66 -50 -104h266v-107h-411z" />
    <glyph glyph-name="currency" unicode="&#xa4;" horiz-adv-x="542" 
d="M100 129l-52 51l62 62q-41 46 -41 110q0 65 40 110l-61 62l52 51l68 -68q51 24 103 24q57 0 104 -24l67 69l53 -53l-61 -61q39 -46 39 -110q0 -66 -41 -110l63 -62l-52 -52l-69 69q-46 -23 -103 -23q-56 0 -102 23zM271 271q42 0 61.5 22.5t19.5 58.5q0 35 -20 58.5
t-61 23.5t-61.5 -23.5t-20.5 -58.5q0 -34 21 -57.5t61 -23.5z" />
    <glyph glyph-name="yen" unicode="&#xa5;" horiz-adv-x="659" 
d="M607 546l-121 -206h122v-108h-187l-28 -48l-7 -46h222v-108h-222v-30h-126l-1 30h-208v109h209l-6 42l-28 51h-175v108h114l-113 206h144l131 -266l139 266h141z" />
    <glyph glyph-name="brokenbar" unicode="&#xa6;" horiz-adv-x="306" 
d="M93 -220v361h120v-361h-120zM93 392v362h120v-362h-120z" />
    <glyph glyph-name="section" unicode="&#xa7;" horiz-adv-x="701" 
d="M177 -88q-73 0 -121 40l36 98q47 -34 84 -34q40 0 40 77q0 33 -13 113l-11 56q-10 53 -10 98q0 121 92.5 196.5t224.5 75.5q100 0 162 -55q-48 -78 -56 -86q-45 39 -104 39q-46 0 -46 -58q0 -41 10 -78l12 -47q20 -89 20 -168q0 -113 -94 -190t-226 -77zM314 26
q69 62 69 143q0 39 -11 99l-17 80q-7 47 -7 88q0 43 9 78q-59 -41 -59 -139q-2 -45 8 -89l16 -82q9 -36 9 -84q0 -29 -17 -94z" />
    <glyph glyph-name="dieresis" unicode="&#xa8;" horiz-adv-x="423" 
d="M149 653h-127v128h127v-128zM398 653h-126v128h126v-128z" />
    <glyph glyph-name="copyright" unicode="&#xa9;" horiz-adv-x="795" 
d="M417 74q-95 0 -149.5 56.5t-54.5 143.5q0 93 53 148t149 55q80 0 125 -28l-25 -68q-44 17 -99 17q-52 0 -84.5 -29.5t-32.5 -90.5q0 -60 35.5 -91t91.5 -31q50 0 93 14l23 -72q-58 -24 -125 -24zM389 -86q-162 0 -253.5 98.5t-91.5 262.5q0 166 100 261.5t264 95.5
q165 0 254 -99t89 -260q0 -165 -97 -262t-265 -97zM393 -22q136 0 208.5 82t72.5 214q0 130 -73.5 212t-201.5 82q-132 0 -205 -81t-73 -211q0 -128 71.5 -213t200.5 -85z" />
    <glyph glyph-name="ordfeminine" unicode="&#xaa;" horiz-adv-x="420" 
d="M163 388q-105 0 -105 94t133 94l57 1v27q0 22 -12.5 29t-47.5 7q-33 0 -91 -15l-18 65q66 24 123 24q29 0 48.5 -3t40.5 -11.5t31.5 -28.5t10.5 -50v-149q0 -6 4 -9.5t9 -4t16 -1.5l-4 -66q-87 -5 -101 31q-49 -34 -94 -34zM175 457q9 0 23 3.5t30 8.5t20 6v46l-53 -2
q-52 -2 -52 -31q0 -31 32 -31zM59 289v68h306v-68h-306z" />
    <glyph glyph-name="guillemotleft" unicode="&#xab;" horiz-adv-x="488" 
d="M155 46l-120 226l119 224l86 -34l-89 -190l88 -185zM359 46l-120 226l119 224l86 -34l-89 -190l88 -185z" />
    <glyph glyph-name="logicalnot" unicode="&#xac;" horiz-adv-x="616" 
d="M436 96v157h-381v104h493v-261h-112z" />
    <glyph glyph-name="registered" unicode="&#xae;" horiz-adv-x="552" 
d="M517 531q0 -105 -67.5 -165t-171.5 -60q-43 0 -83.5 12t-77.5 36.5t-59.5 70.5t-22.5 106q0 107 68.5 168.5t173.5 61.5q45 0 86 -13t76.5 -39t56.5 -72t21 -106zM465 531q0 90 -55 137t-132 47q-83 0 -137 -44.5t-54 -135.5q0 -55 21 -94t54 -57t62.5 -25t58.5 -7
q79 0 130.5 47.5t51.5 131.5zM404 449l-7 -40q-50 2 -77 26q-19 17 -46 71h-31v-91h-62v252l99 1q44 0 70 -21t26 -61q0 -47 -43 -69q29 -41 33 -45q8 -8 38 -23zM317 586q0 21 -8.5 31t-31.5 10h-35v-85h31q44 0 44 44z" />
    <glyph glyph-name="macron" unicode="&#xaf;" horiz-adv-x="550" 
d="M119 654v105h305v-105h-305z" />
    <glyph glyph-name="degree" unicode="&#xb0;" horiz-adv-x="393" 
d="M195 403q-76 0 -117 41t-41 117q0 70 46 113t115 43q71 0 115.5 -42t44.5 -114t-46 -115t-117 -43zM197 487q60 0 60 74q0 72 -60 72q-61 0 -61 -72q0 -74 61 -74z" />
    <glyph glyph-name="plusminus" unicode="&#xb1;" horiz-adv-x="537" 
d="M216 123l1 169l-170 -1v104l170 -3l-1 170h105l-4 -172l173 5v-104l-171 1l2 -169h-105zM47 0v104h443v-104h-443z" />
    <glyph glyph-name="twosuperior" unicode="&#xb2;" horiz-adv-x="305" 
d="M12 415v66q80 57 125.5 100.5t45.5 77.5q0 20 -14 31.5t-36 11.5q-44 0 -78 -27q-5 9 -17.5 33t-16.5 33q53 45 130 45q60 0 96 -32.5t36 -83.5q0 -91 -151 -175h155v-80h-275z" />
    <glyph glyph-name="threesuperior" unicode="&#xb3;" horiz-adv-x="304" 
d="M133 410q-56 0 -115 16l17 74q49 -11 89 -11q63 0 63 44q0 27 -21.5 37.5t-71.5 12.5v47q43 4 59.5 16t16.5 35q-1 15 -13 23.5t-29 8.5q-40 0 -75 -16q-3 11 -11.5 35.5t-10.5 30.5q48 25 108 25t95 -24.5t35 -72.5q0 -24 -13.5 -45.5t-36.5 -31.5q68 -21 68 -89
q0 -60 -42.5 -87.5t-111.5 -27.5z" />
    <glyph glyph-name="acute" unicode="&#xb4;" horiz-adv-x="578" 
d="M205 608l-40 80l219 124l47 -94z" />
    <glyph glyph-name="mu" unicode="&#xb5;" horiz-adv-x="656" 
d="M70 -220v766h132v-340q0 -55 18 -78.5t68 -23.5q55 0 137 44v398h134v-414q0 -21 14 -28.5t44 -6.5l-4 -102q-30 -2 -48 -2q-116 0 -133 72q-97 -79 -187 -79q-31 0 -43 10v-216h-132z" />
    <glyph glyph-name="paragraph" unicode="&#xb6;" horiz-adv-x="610" 
d="M329 -224q-55 0 -103 17l24 112q48 -12 81 -12q42 0 59 23t17 78v713h133v-714q0 -217 -211 -217zM229 243q-100 0 -151.5 60.5t-51.5 174.5q0 69 19.5 115.5t57 70.5t80 33.5t101.5 9.5h59v-464h-114z" />
    <glyph glyph-name="periodcentered" unicode="&#xb7;" horiz-adv-x="251" 
d="M54 300v136h151v-136h-151z" />
    <glyph glyph-name="cedilla" unicode="&#xb8;" horiz-adv-x="463" 
d="M192 -267l-46 79q50 31 62 48q8 12 8 25q0 20 -16 64h109q21 -44 21 -76q0 -81 -138 -140z" />
    <glyph glyph-name="onesuperior" unicode="&#xb9;" horiz-adv-x="245" 
d="M95 415v287h-79v77q50 2 180 5v-369h-101z" />
    <glyph glyph-name="ordmasculine" unicode="&#xba;" horiz-adv-x="430" 
d="M212 383q-76 0 -117 43.5t-41 119.5q0 79 44.5 124.5t118.5 45.5q160 0 160 -167q0 -79 -45.5 -122.5t-119.5 -43.5zM216 455q39 0 54.5 24.5t15.5 69.5q0 95 -71 95t-71 -96q0 -93 72 -93zM62 289v68h305v-68h-305z" />
    <glyph glyph-name="guillemotright" unicode="&#xbb;" horiz-adv-x="487" 
d="M129 46l-84 41l88 185l-90 190l86 34l120 -224zM333 46l-84 41l88 185l-90 190l86 34l119 -224z" />
    <glyph glyph-name="onequarter" unicode="&#xbc;" horiz-adv-x="798" 
d="M613 0v83h-161v75l112 210h140v-213h55v-72h-55v-83h-91zM520 155h93v160zM117 415v287h-79v77q50 2 180 5v-369h-101zM113 67l-50 54l537 540l50 -52z" />
    <glyph glyph-name="onehalf" unicode="&#xbd;" horiz-adv-x="797" 
d="M465 0v66q80 57 125.5 100.5t45.5 77.5q0 20 -14 31.5t-36 11.5q-44 0 -78 -27q-5 9 -17 33t-17 33q53 45 130 45q60 0 96 -32.5t36 -83.5q0 -91 -151 -175h155v-80h-275zM116 415v287h-79v77q50 2 180 5v-369h-101zM108 67l-50 54l537 540l50 -52z" />
    <glyph glyph-name="threequarters" unicode="&#xbe;" horiz-adv-x="804" 
d="M618 0v83h-161v75l112 210h140v-213h55v-72h-55v-83h-91zM154 410q-56 0 -115 16l17 74q49 -11 89 -11q63 0 63 44q0 27 -21.5 37.5t-71.5 12.5v47q43 4 59.5 16t16.5 35q-1 15 -13 23.5t-29 8.5q-40 0 -75 -16q-3 11 -11.5 35.5t-10.5 30.5q48 25 108 25t95 -24.5
t35 -72.5q0 -24 -13.5 -45.5t-36.5 -31.5q68 -21 68 -89q0 -60 -42.5 -87.5t-111.5 -27.5zM132 67l-50 54l537 540l50 -52zM525 155h93v160z" />
    <glyph glyph-name="questiondown" unicode="&#xbf;" horiz-adv-x="391" 
d="M336 -164q-302 21 -302 203q0 42 29 81t63.5 63.5t63.5 52.5t29 51q0 33 -14 64l109 18q23 -47 23 -89q0 -44 -26 -83t-56.5 -61.5t-56.5 -48t-26 -44.5q0 -81 189 -96zM184 422v124h138v-124h-138z" />
    <glyph glyph-name="Agrave" unicode="&#xc0;" horiz-adv-x="700" 
d="M444 745l-256 55l25 107l252 -72zM-9 0l279 707h177l245 -707h-143l-77 229h-255l-87 -229h-139zM255 330h183l-85 290z" />
    <glyph glyph-name="Aacute" unicode="&#xc1;" horiz-adv-x="700" 
d="M-9 0l279 707h177l245 -707h-143l-77 229h-255l-87 -229h-139zM255 330h183l-85 290zM264 745l-21 90l251 73l25 -106z" />
    <glyph glyph-name="Acircumflex" unicode="&#xc2;" horiz-adv-x="700" 
d="M-9 0l279 707h177l245 -707h-143l-77 229h-255l-87 -229h-139zM255 330h183l-85 290zM222 745l-47 86l179 89l176 -88l-47 -87l-130 59z" />
    <glyph glyph-name="Atilde" unicode="&#xc3;" horiz-adv-x="700" 
d="M-9 0l279 707h177l245 -707h-143l-77 229h-255l-87 -229h-139zM255 330h183l-85 290zM418 755q-25 0 -66 18.5t-59 18.5q-38 0 -70 -26l-51 63q62 68 127 68q33 0 70.5 -19t51.5 -19q35 0 78 26l46 -62q-59 -68 -127 -68z" />
    <glyph glyph-name="Adieresis" unicode="&#xc4;" horiz-adv-x="700" 
d="M-9 0l279 707h177l245 -707h-143l-77 229h-255l-87 -229h-139zM255 330h183l-85 290zM295 764h-127v127h127v-127zM537 764h-126v127h126v-127z" />
    <glyph glyph-name="Aring" unicode="&#xc5;" horiz-adv-x="700" 
d="M-9 0l279 707h177l245 -707h-143l-77 229h-255l-87 -229h-139zM255 330h183l-85 290zM360 744q-50 0 -85.5 25t-35.5 79q0 53 35 81t83 28q46 0 83.5 -25.5t37.5 -81.5q0 -51 -34 -78.5t-84 -27.5zM358 798q52 0 55 51q0 23 -16 37t-39 14q-55 0 -55 -49q0 -24 15 -38.5
t40 -14.5z" />
    <glyph glyph-name="AE" unicode="&#xc6;" horiz-adv-x="953" 
d="M-20 0l348 707h555v-108h-302v-193h280v-102h-280v-196h325v-108h-461v270h-186l-125 -270h-154zM303 372h142v227h-37z" />
    <glyph glyph-name="Ccedilla" unicode="&#xc7;" horiz-adv-x="678" 
d="M430 -12q-185 0 -284 95.5t-99 265.5t101 269.5t278 99.5q120 0 214 -43l-38 -101q-38 11 -56.5 16t-49 9t-68.5 4q-108 1 -174.5 -60.5t-66.5 -183.5q0 -125 71 -189.5t189 -64.5q87 0 165 23l30 -105q-95 -35 -212 -35zM347 -267l-46 79q50 31 62 48q8 12 8 25
q0 20 -16 64h109q21 -44 21 -76q0 -81 -138 -140z" />
    <glyph glyph-name="Egrave" unicode="&#xc8;" 
d="M412 745l-256 55l25 107l252 -72zM92 0v707h438v-108h-302v-193h280v-102h-280v-196h325v-108h-461z" />
    <glyph glyph-name="Eacute" unicode="&#xc9;" 
d="M234 745l-21 90l251 73l25 -106zM92 0v707h438v-108h-302v-193h280v-102h-280v-196h325v-108h-461z" />
    <glyph glyph-name="Ecircumflex" unicode="&#xca;" 
d="M92 0v707h438v-108h-302v-193h280v-102h-280v-196h325v-108h-461zM186 745l-47 86l179 89l176 -88l-47 -87l-130 59z" />
    <glyph glyph-name="Edieresis" unicode="&#xcb;" 
d="M257 764h-127v127h127v-127zM499 764h-126v127h126v-127zM92 0v707h438v-108h-302v-193h280v-102h-280v-196h325v-108h-461z" />
    <glyph glyph-name="Igrave" unicode="&#xcc;" horiz-adv-x="320" 
d="M233 745l-256 55l25 107l252 -72zM92 0v707h136v-707h-136z" />
    <glyph glyph-name="Iacute" unicode="&#xcd;" horiz-adv-x="320" 
d="M92 0v707h136v-707h-136zM91 745l-21 90l251 73l25 -106z" />
    <glyph glyph-name="Icircumflex" unicode="&#xce;" horiz-adv-x="320" 
d="M92 0v707h136v-707h-136zM29 745l-47 86l179 89l176 -88l-47 -87l-130 59z" />
    <glyph glyph-name="Idieresis" unicode="&#xcf;" horiz-adv-x="320" 
d="M92 0v707h136v-707h-136zM101 764h-127v127h127v-127zM343 764h-126v127h126v-127z" />
    <glyph glyph-name="Eth" unicode="&#xd0;" horiz-adv-x="803" 
d="M44 307v86h76v314h229q188 0 297 -87t109 -264q0 -180 -104.5 -268t-295.5 -88h-235v307h-76zM256 108h110q252 0 252 238q0 253 -272 253h-90v-206h145v-86h-145v-199z" />
    <glyph glyph-name="Ntilde" unicode="&#xd1;" horiz-adv-x="792" 
d="M463 755q-25 0 -66 18.5t-59 18.5q-38 0 -70 -26l-51 63q62 68 127 68q33 0 70.5 -19t51.5 -19q35 0 78 26l46 -62q-59 -68 -127 -68zM92 0v707h162l312 -534h2l-4 83v451h137v-707h-168l-305 523h-4l4 -86v-437h-136z" />
    <glyph glyph-name="Ograve" unicode="&#xd2;" horiz-adv-x="831" 
d="M510 745l-256 55l25 107l252 -72zM407 -12q-175 0 -268 98t-93 269q0 167 102 265t276 98q178 0 269.5 -100.5t91.5 -264.5q0 -169 -99 -267t-279 -98zM410 97q120 0 178 70.5t58 186.5q0 115 -58.5 185t-170.5 70q-116 0 -174.5 -69.5t-58.5 -183.5q0 -113 57 -186
t169 -73z" />
    <glyph glyph-name="Oacute" unicode="&#xd3;" horiz-adv-x="831" 
d="M324 745l-21 90l251 73l25 -106zM407 -12q-175 0 -268 98t-93 269q0 167 102 265t276 98q178 0 269.5 -100.5t91.5 -264.5q0 -169 -99 -267t-279 -98zM410 97q120 0 178 70.5t58 186.5q0 115 -58.5 185t-170.5 70q-116 0 -174.5 -69.5t-58.5 -183.5q0 -113 57 -186
t169 -73z" />
    <glyph glyph-name="Ocircumflex" unicode="&#xd4;" horiz-adv-x="831" 
d="M286 745l-47 86l179 89l176 -88l-47 -87l-130 59zM407 -12q-175 0 -268 98t-93 269q0 167 102 265t276 98q178 0 269.5 -100.5t91.5 -264.5q0 -169 -99 -267t-279 -98zM410 97q120 0 178 70.5t58 186.5q0 115 -58.5 185t-170.5 70q-116 0 -174.5 -69.5t-58.5 -183.5
q0 -113 57 -186t169 -73z" />
    <glyph glyph-name="Otilde" unicode="&#xd5;" horiz-adv-x="831" 
d="M481 755q-25 0 -66 18.5t-59 18.5q-38 0 -70 -26l-51 63q62 68 127 68q33 0 70.5 -19t51.5 -19q35 0 78 26l46 -62q-59 -68 -127 -68zM407 -12q-175 0 -268 98t-93 269q0 167 102 265t276 98q178 0 269.5 -100.5t91.5 -264.5q0 -169 -99 -267t-279 -98zM410 97
q120 0 178 70.5t58 186.5q0 115 -58.5 185t-170.5 70q-116 0 -174.5 -69.5t-58.5 -183.5q0 -113 57 -186t169 -73z" />
    <glyph glyph-name="Odieresis" unicode="&#xd6;" horiz-adv-x="831" 
d="M352 764h-127v127h127v-127zM594 764h-126v127h126v-127zM407 -12q-175 0 -268 98t-93 269q0 167 102 265t276 98q178 0 269.5 -100.5t91.5 -264.5q0 -169 -99 -267t-279 -98zM410 97q120 0 178 70.5t58 186.5q0 115 -58.5 185t-170.5 70q-116 0 -174.5 -69.5
t-58.5 -183.5q0 -113 57 -186t169 -73z" />
    <glyph glyph-name="multiply" unicode="&#xd7;" horiz-adv-x="556" 
d="M442 68l-166 167l-160 -163l-74 74l163 161l-162 160l71 74l161 -164l163 165l74 -74l-169 -163l170 -163z" />
    <glyph glyph-name="Oslash" unicode="&#xd8;" horiz-adv-x="860" 
d="M99 -39l-58 58l89 92q-71 94 -71 244q0 167 102 265t276 98q134 0 222 -60l87 90l61 -56l-87 -90q78 -96 78 -249q0 -169 -99 -267t-279 -98q-142 0 -231 66zM423 97q120 0 178 70.5t58 186.5q0 88 -34 150l-347 -359q56 -48 145 -48zM197 356q0 -82 30 -145l344 355
q-57 43 -141 43q-116 0 -174.5 -69.5t-58.5 -183.5z" />
    <glyph glyph-name="Ugrave" unicode="&#xd9;" horiz-adv-x="780" 
d="M482 745l-256 55l25 107l252 -72zM392 -13q-61 0 -113.5 14t-98.5 45.5t-72.5 89t-26.5 136.5v435h138v-429q0 -177 173 -177q174 0 174 199v407h135v-410q0 -69 -18.5 -123.5t-48 -89t-70.5 -57t-83.5 -31.5t-88.5 -9z" />
    <glyph glyph-name="Uacute" unicode="&#xda;" horiz-adv-x="780" 
d="M315 745l-21 90l251 73l25 -106zM392 -13q-61 0 -113.5 14t-98.5 45.5t-72.5 89t-26.5 136.5v435h138v-429q0 -177 173 -177q174 0 174 199v407h135v-410q0 -69 -18.5 -123.5t-48 -89t-70.5 -57t-83.5 -31.5t-88.5 -9z" />
    <glyph glyph-name="Ucircumflex" unicode="&#xdb;" horiz-adv-x="780" 
d="M392 -13q-61 0 -113.5 14t-98.5 45.5t-72.5 89t-26.5 136.5v435h138v-429q0 -177 173 -177q174 0 174 199v407h135v-410q0 -69 -18.5 -123.5t-48 -89t-70.5 -57t-83.5 -31.5t-88.5 -9zM264 745l-47 86l179 89l176 -88l-47 -87l-130 59z" />
    <glyph glyph-name="Udieresis" unicode="&#xdc;" horiz-adv-x="780" 
d="M334 764h-127v127h127v-127zM576 764h-126v127h126v-127zM392 -13q-61 0 -113.5 14t-98.5 45.5t-72.5 89t-26.5 136.5v435h138v-429q0 -177 173 -177q174 0 174 199v407h135v-410q0 -69 -18.5 -123.5t-48 -89t-70.5 -57t-83.5 -31.5t-88.5 -9z" />
    <glyph glyph-name="Yacute" unicode="&#xdd;" horiz-adv-x="662" 
d="M261 0v243l-250 464h157l166 -348l177 348h152l-266 -461v-246h-136zM261 745l-21 90l251 73l25 -106z" />
    <glyph glyph-name="Thorn" unicode="&#xde;" horiz-adv-x="634" 
d="M92 0v707h137v-110h121q117 0 186.5 -62t69.5 -176q0 -106 -80 -174.5t-228 -68.5h-69v-116h-137zM229 489v-266h75q79 0 120 34.5t41 97.5q0 66 -32.5 100t-104.5 34h-99z" />
    <glyph glyph-name="germandbls" unicode="&#xdf;" horiz-adv-x="638" 
d="M74 0v546q0 222 237 222q31 0 63 -7t68 -24t59 -53t23 -87q0 -34 -17 -67t-38 -53.5t-38 -44.5t-17 -43q0 -24 21 -44t50.5 -35.5t59 -34t50.5 -49.5t21 -72q0 -45 -19 -79t-49.5 -52t-63.5 -26.5t-67 -8.5q-102 0 -159 21l17 104q71 -17 116 -17q95 0 95 49q0 22 -21 39
t-51 32t-59.5 33.5t-50.5 53t-21 80.5q0 37 25 74t50 70.5t25 62.5q0 31 -24.5 50t-57.5 19q-53 0 -74 -29t-21 -85v-545h-132z" />
    <glyph glyph-name="agrave" unicode="&#xe0;" horiz-adv-x="578" 
d="M205 -9q-78 0 -125 41.5t-47 117.5q0 166 225 168l108 1v47q0 46 -25.5 63t-83.5 17q-76 0 -158 -25l-27 98q100 40 209 40q110 0 162.5 -38.5t52.5 -124.5v-265q0 -32 53 -34l-5 -101q-10 -1 -26 -1q-124 0 -140 62q-85 -66 -173 -66zM243 95q55 0 123 35v108l-101 -4
q-48 -1 -75 -20t-27 -54q0 -32 22 -48.5t58 -16.5zM351 608l-224 111l46 95l220 -125z" />
    <glyph glyph-name="aacute" unicode="&#xe1;" horiz-adv-x="578" 
d="M205 -9q-78 0 -125 41.5t-47 117.5q0 166 225 168l108 1v47q0 46 -25.5 63t-83.5 17q-76 0 -158 -25l-27 98q100 40 209 40q110 0 162.5 -38.5t52.5 -124.5v-265q0 -32 53 -34l-5 -101q-10 -1 -26 -1q-124 0 -140 62q-85 -66 -173 -66zM243 95q55 0 123 35v108l-101 -4
q-48 -1 -75 -20t-27 -54q0 -32 22 -48.5t58 -16.5zM213 608l-40 80l219 124l47 -94z" />
    <glyph glyph-name="acircumflex" unicode="&#xe2;" horiz-adv-x="578" 
d="M403 614l-125 88l-129 -88l-58 75l188 123l180 -123zM205 -9q-78 0 -125 41.5t-47 117.5q0 166 225 168l108 1v47q0 46 -25.5 63t-83.5 17q-76 0 -158 -25l-27 98q100 40 209 40q110 0 162.5 -38.5t52.5 -124.5v-265q0 -32 53 -34l-5 -101q-10 -1 -26 -1q-124 0 -140 62
q-85 -66 -173 -66zM243 95q55 0 123 35v108l-101 -4q-48 -1 -75 -20t-27 -54q0 -32 22 -48.5t58 -16.5z" />
    <glyph glyph-name="atilde" unicode="&#xe3;" horiz-adv-x="578" 
d="M205 -9q-78 0 -125 41.5t-47 117.5q0 166 225 168l108 1v47q0 46 -25.5 63t-83.5 17q-76 0 -158 -25l-27 98q100 40 209 40q110 0 162.5 -38.5t52.5 -124.5v-265q0 -32 53 -34l-5 -101q-10 -1 -26 -1q-124 0 -140 62q-85 -66 -173 -66zM243 95q55 0 123 35v108l-101 -4
q-48 -1 -75 -20t-27 -54q0 -32 22 -48.5t58 -16.5zM335 638q-26 0 -66.5 18.5t-59.5 18.5q-37 0 -70 -27l-51 64q62 68 130 68q32 0 69.5 -19t53.5 -19q34 0 80 27l46 -63q-64 -68 -132 -68z" />
    <glyph glyph-name="adieresis" unicode="&#xe4;" horiz-adv-x="578" 
d="M217 653h-127v128h127v-128zM466 653h-126v128h126v-128zM205 -9q-78 0 -125 41.5t-47 117.5q0 166 225 168l108 1v47q0 46 -25.5 63t-83.5 17q-76 0 -158 -25l-27 98q100 40 209 40q110 0 162.5 -38.5t52.5 -124.5v-265q0 -32 53 -34l-5 -101q-10 -1 -26 -1
q-124 0 -140 62q-85 -66 -173 -66zM243 95q55 0 123 35v108l-101 -4q-48 -1 -75 -20t-27 -54q0 -32 22 -48.5t58 -16.5z" />
    <glyph glyph-name="aring" unicode="&#xe5;" horiz-adv-x="578" 
d="M205 -9q-78 0 -125 41.5t-47 117.5q0 166 225 168l108 1v47q0 46 -25.5 63t-83.5 17q-76 0 -158 -25l-27 98q100 40 209 40q110 0 162.5 -38.5t52.5 -124.5v-265q0 -32 53 -34l-5 -101q-10 -1 -26 -1q-124 0 -140 62q-85 -66 -173 -66zM243 95q55 0 123 35v108l-101 -4
q-48 -1 -75 -20t-27 -54q0 -32 22 -48.5t58 -16.5zM290 597q-57 0 -96 27t-39 88q0 58 39.5 90t92.5 32q22 0 44 -6t43.5 -19t34.5 -37.5t13 -57.5q0 -57 -38 -87t-94 -30zM288 656q28 0 43.5 15t17.5 42q0 26 -17.5 41.5t-43.5 15.5q-61 0 -61 -55q0 -27 16.5 -43t44.5 -16
z" />
    <glyph glyph-name="ae" unicode="&#xe6;" horiz-adv-x="893" 
d="M646 -9q-169 0 -235 88q-99 -87 -203 -87q-84 0 -129.5 40t-45.5 119q0 49 20 83t56 49.5t70 22t79 7.5q87 3 108 3v56q0 45 -25.5 59.5t-89.5 14.5q-45 0 -152 -24l-27 98q106 39 203 39q137 0 184 -54q62 54 173 54q222 0 222 -271v-44l-357 -10q1 -82 45 -109.5
t128 -27.5q50 0 148 20l19 -99q-83 -27 -191 -27zM232 95q58 0 150 43q-11 34 -16 92l-100 -2q-103 -3 -103 -69q0 -64 69 -64zM502 324l214 9q1 59 -25.5 94t-70.5 35q-49 0 -83 -34.5t-35 -103.5z" />
    <glyph glyph-name="ccedilla" unicode="&#xe7;" horiz-adv-x="518" 
d="M335 -12q-156 0 -225 67t-69 205q0 147 75 223.5t211 76.5q94 0 160 -36l-35 -99q-65 25 -118 25q-77 0 -117 -43t-40 -143q0 -86 37.5 -126.5t136.5 -40.5q36 0 113 15l19 -103q-88 -21 -148 -21zM246 -267l-46 79q50 31 62 48q8 12 8 25q0 20 -16 64h109q21 -44 21 -76
q0 -81 -138 -140z" />
    <glyph glyph-name="egrave" unicode="&#xe8;" horiz-adv-x="571" 
d="M321 -12q-136 0 -207.5 62t-71.5 215q0 154 70.5 224t187.5 70q122 0 177 -70t55 -205v-48h-356q-1 -80 43 -110t120 -30q67 0 157 23l21 -101q-87 -30 -196 -30zM179 325h216q1 64 -24.5 101t-75.5 37q-49 0 -80.5 -36t-35.5 -102zM362 608l-224 111l46 95l220 -125z
" />
    <glyph glyph-name="eacute" unicode="&#xe9;" horiz-adv-x="571" 
d="M225 608l-40 80l219 124l47 -94zM321 -12q-136 0 -207.5 62t-71.5 215q0 154 70.5 224t187.5 70q122 0 177 -70t55 -205v-48h-356q-1 -80 43 -110t120 -30q67 0 157 23l21 -101q-87 -30 -196 -30zM179 325h216q1 64 -24.5 101t-75.5 37q-49 0 -80.5 -36t-35.5 -102z" />
    <glyph glyph-name="ecircumflex" unicode="&#xea;" horiz-adv-x="571" 
d="M414 614l-125 88l-129 -88l-58 75l188 123l180 -123zM321 -12q-136 0 -207.5 62t-71.5 215q0 154 70.5 224t187.5 70q122 0 177 -70t55 -205v-48h-356q-1 -80 43 -110t120 -30q67 0 157 23l21 -101q-87 -30 -196 -30zM179 325h216q1 64 -24.5 101t-75.5 37
q-49 0 -80.5 -36t-35.5 -102z" />
    <glyph glyph-name="edieresis" unicode="&#xeb;" horiz-adv-x="571" 
d="M226 653h-127v128h127v-128zM475 653h-126v128h126v-128zM321 -12q-136 0 -207.5 62t-71.5 215q0 154 70.5 224t187.5 70q122 0 177 -70t55 -205v-48h-356q-1 -80 43 -110t120 -30q67 0 157 23l21 -101q-87 -30 -196 -30zM179 325h216q1 64 -24.5 101t-75.5 37
q-49 0 -80.5 -36t-35.5 -102z" />
    <glyph glyph-name="igrave" unicode="&#xec;" horiz-adv-x="281" 
d="M74 0v546h134v-546h-134zM197 608l-224 111l46 95l220 -125z" />
    <glyph glyph-name="iacute" unicode="&#xed;" horiz-adv-x="281" 
d="M74 608l-40 80l219 124l47 -94zM74 0v546h134v-546h-134z" />
    <glyph glyph-name="icircumflex" unicode="&#xee;" horiz-adv-x="281" 
d="M267 614l-125 88l-129 -88l-58 75l188 123l180 -123zM74 0v546h134v-546h-134z" />
    <glyph glyph-name="idieresis" unicode="&#xef;" horiz-adv-x="281" 
d="M78 653h-127v128h127v-128zM327 653h-126v128h126v-128zM74 0v546h134v-546h-134z" />
    <glyph glyph-name="eth" unicode="&#xf0;" horiz-adv-x="632" 
d="M305 -11q-127 0 -195.5 70.5t-68.5 201.5q0 125 76 202.5t189 77.5q52 0 95 -22q-30 50 -86 97l-74 -59l-44 48l63 49q-29 18 -72 38l69 85q49 -18 94 -46l73 58l43 -48l-61 -48q81 -68 127 -165.5t46 -251.5q0 -134 -73.5 -210.5t-200.5 -76.5zM312 96q74 0 103 43.5
t29 125.5q0 170 -141 170q-127 0 -127 -170q0 -81 31 -125t105 -44z" />
    <glyph glyph-name="ntilde" unicode="&#xf1;" horiz-adv-x="636" 
d="M378 638q-26 0 -66.5 18.5t-59.5 18.5q-37 0 -70 -27l-51 64q62 68 130 68q32 0 69.5 -19t53.5 -19q34 0 80 27l46 -63q-64 -68 -132 -68zM74 0v546h133v-58q51 36 93 54t100 18q55 0 90.5 -17t51.5 -50.5t21 -66t5 -80.5v-346h-132v331q0 64 -17.5 88.5t-67.5 24.5
q-68 0 -144 -43v-401h-133z" />
    <glyph glyph-name="ograve" unicode="&#xf2;" horiz-adv-x="619" 
d="M385 608l-224 111l46 95l220 -125zM304 -12q-126 0 -195 74.5t-69 205.5q0 137 74.5 214.5t199.5 77.5q132 0 198.5 -74.5t66.5 -211.5q0 -138 -75.5 -212t-199.5 -74zM311 95q74 0 103 47t29 130q0 182 -133 182q-135 0 -135 -182q0 -177 136 -177z" />
    <glyph glyph-name="oacute" unicode="&#xf3;" horiz-adv-x="619" 
d="M228 608l-40 80l219 124l47 -94zM304 -12q-126 0 -195 74.5t-69 205.5q0 137 74.5 214.5t199.5 77.5q132 0 198.5 -74.5t66.5 -211.5q0 -138 -75.5 -212t-199.5 -74zM311 95q74 0 103 47t29 130q0 182 -133 182q-135 0 -135 -182q0 -177 136 -177z" />
    <glyph glyph-name="ocircumflex" unicode="&#xf4;" horiz-adv-x="619" 
d="M434 614l-125 88l-129 -88l-58 75l188 123l180 -123zM304 -12q-126 0 -195 74.5t-69 205.5q0 137 74.5 214.5t199.5 77.5q132 0 198.5 -74.5t66.5 -211.5q0 -138 -75.5 -212t-199.5 -74zM311 95q74 0 103 47t29 130q0 182 -133 182q-135 0 -135 -182q0 -177 136 -177z
" />
    <glyph glyph-name="otilde" unicode="&#xf5;" horiz-adv-x="619" 
d="M304 -12q-126 0 -195 74.5t-69 205.5q0 137 74.5 214.5t199.5 77.5q132 0 198.5 -74.5t66.5 -211.5q0 -138 -75.5 -212t-199.5 -74zM311 95q74 0 103 47t29 130q0 182 -133 182q-135 0 -135 -182q0 -177 136 -177zM364 638q-26 0 -66.5 18.5t-59.5 18.5q-37 0 -70 -27
l-51 64q62 68 130 68q32 0 69.5 -19t53.5 -19q34 0 80 27l46 -63q-64 -68 -132 -68z" />
    <glyph glyph-name="odieresis" unicode="&#xf6;" horiz-adv-x="619" 
d="M246 653h-127v128h127v-128zM495 653h-126v128h126v-128zM304 -12q-126 0 -195 74.5t-69 205.5q0 137 74.5 214.5t199.5 77.5q132 0 198.5 -74.5t66.5 -211.5q0 -138 -75.5 -212t-199.5 -74zM311 95q74 0 103 47t29 130q0 182 -133 182q-135 0 -135 -182q0 -177 136 -177
z" />
    <glyph glyph-name="divide" unicode="&#xf7;" horiz-adv-x="622" 
d="M250 54v110h115v-110h-115zM52 253v103h518v-103h-518zM250 444v109h115v-109h-115z" />
    <glyph glyph-name="oslash" unicode="&#xf8;" horiz-adv-x="640" 
d="M313 -12q-107 0 -172 53l-62 -66l-45 43l64 68q-49 72 -49 182q0 137 74.5 214.5t199.5 77.5q108 0 174 -52l59 63l44 -43l-61 -65q49 -70 49 -189q0 -138 -75.5 -212t-199.5 -74zM320 95q74 0 103 47t29 130q0 51 -11 88l-216 -230q32 -35 95 -35zM184 272q0 -49 10 -85
l217 231q-33 36 -92 36q-135 0 -135 -182z" />
    <glyph glyph-name="ugrave" unicode="&#xf9;" horiz-adv-x="635" 
d="M235 -12q-44 0 -75.5 12.5t-48.5 31.5t-27 49.5t-12.5 57t-2.5 64.5v343h133v-328q0 -63 16.5 -88t67.5 -25q72 0 143 43v398h133v-546h-133v59q-31 -22 -51.5 -34.5t-60 -24.5t-82.5 -12zM373 608l-224 111l46 95l220 -125z" />
    <glyph glyph-name="uacute" unicode="&#xfa;" horiz-adv-x="635" 
d="M262 612l-40 80l219 124l47 -94zM235 -12q-44 0 -75.5 12.5t-48.5 31.5t-27 49.5t-12.5 57t-2.5 64.5v343h133v-328q0 -63 16.5 -88t67.5 -25q72 0 143 43v398h133v-546h-133v59q-31 -22 -51.5 -34.5t-60 -24.5t-82.5 -12z" />
    <glyph glyph-name="ucircumflex" unicode="&#xfb;" horiz-adv-x="635" 
d="M442 614l-125 88l-129 -88l-58 75l188 123l180 -123zM235 -12q-44 0 -75.5 12.5t-48.5 31.5t-27 49.5t-12.5 57t-2.5 64.5v343h133v-328q0 -63 16.5 -88t67.5 -25q72 0 143 43v398h133v-546h-133v59q-31 -22 -51.5 -34.5t-60 -24.5t-82.5 -12z" />
    <glyph glyph-name="udieresis" unicode="&#xfc;" horiz-adv-x="635" 
d="M253 653h-127v128h127v-128zM502 653h-126v128h126v-128zM235 -12q-44 0 -75.5 12.5t-48.5 31.5t-27 49.5t-12.5 57t-2.5 64.5v343h133v-328q0 -63 16.5 -88t67.5 -25q72 0 143 43v398h133v-546h-133v59q-31 -22 -51.5 -34.5t-60 -24.5t-82.5 -12z" />
    <glyph glyph-name="yacute" unicode="&#xfd;" horiz-adv-x="564" 
d="M166 -220l75 220h-52l-183 546h144l103 -349l26 -92l29 91l118 350h135l-267 -766h-128zM229 608l-40 80l219 124l47 -94z" />
    <glyph glyph-name="thorn" unicode="&#xfe;" horiz-adv-x="621" 
d="M74 -220v974h132v-249q25 19 64.5 36t75.5 17q234 0 234 -263q0 -159 -82 -232t-208 -73q-29 0 -84 5v-215h-132zM294 94q71 0 110.5 52.5t39.5 137.5q0 82 -31 122t-105 40q-36 0 -102 -28v-317q66 -7 88 -7z" />
    <glyph glyph-name="ydieresis" unicode="&#xff;" horiz-adv-x="564" 
d="M219 653h-127v128h127v-128zM468 653h-126v128h126v-128zM166 -220l75 220h-52l-183 546h144l103 -349l26 -92l29 91l118 350h135l-267 -766h-128z" />
    <glyph glyph-name="Amacron" unicode="&#x100;" horiz-adv-x="700" 
d="M-9 0l279 707h177l245 -707h-143l-77 229h-255l-87 -229h-139zM255 330h183l-85 290zM204 772v105h305v-105h-305z" />
    <glyph glyph-name="amacron" unicode="&#x101;" horiz-adv-x="578" 
d="M205 -9q-78 0 -125 41.5t-47 117.5q0 166 225 168l108 1v47q0 46 -25.5 63t-83.5 17q-76 0 -158 -25l-27 98q100 40 209 40q110 0 162.5 -38.5t52.5 -124.5v-265q0 -32 53 -34l-5 -101q-10 -1 -26 -1q-124 0 -140 62q-85 -66 -173 -66zM243 95q55 0 123 35v108l-101 -4
q-48 -1 -75 -20t-27 -54q0 -32 22 -48.5t58 -16.5zM140 655v105h305v-105h-305z" />
    <glyph glyph-name="Abreve" unicode="&#x102;" horiz-adv-x="700" 
d="M-9 0l279 707h177l245 -707h-143l-77 229h-255l-87 -229h-139zM255 330h183l-85 290zM356 753q-120 0 -181 101l70 61q58 -62 115 -62q60 0 112 61l66 -59q-68 -102 -182 -102z" />
    <glyph glyph-name="abreve" unicode="&#x103;" horiz-adv-x="578" 
d="M205 -9q-78 0 -125 41.5t-47 117.5q0 166 225 168l108 1v47q0 46 -25.5 63t-83.5 17q-76 0 -158 -25l-27 98q100 40 209 40q110 0 162.5 -38.5t52.5 -124.5v-265q0 -32 53 -34l-5 -101q-10 -1 -26 -1q-124 0 -140 62q-85 -66 -173 -66zM243 95q55 0 123 35v108l-101 -4
q-48 -1 -75 -20t-27 -54q0 -32 22 -48.5t58 -16.5zM295 626q-120 0 -181 101l70 60q59 -61 115 -61q60 0 112 61l66 -59q-66 -102 -182 -102z" />
    <glyph glyph-name="Aogonek" unicode="&#x104;" horiz-adv-x="699" 
d="M716 -225q-50 -22 -108 -22q-79 0 -114 27t-35 81q0 57 89 141l-76 227h-255l-87 -229h-139l279 707h177l244 -707q-105 -66 -105 -114q0 -32 44 -32q31 0 62 9zM438 331l-47 154l-38 135l-44 -136l-54 -153h183z" />
    <glyph glyph-name="aogonek" unicode="&#x105;" horiz-adv-x="576" 
d="M558 -225q-52 -23 -108 -23q-139 0 -139 109q0 67 110 141q-14 8 -27 24t-16 31q-89 -66 -169 -66q-84 0 -130 41t-46 119q0 39 14 69.5t36 48.5t52.5 29.5t60 16t62.5 4.5h108v49q0 45 -26.5 61.5t-88.5 16.5q-52 0 -152 -25l-27 99q106 39 203 39q38 0 67 -3
t59.5 -13.5t50 -27.5t32 -47t12.5 -71v-266q0 -31 50 -34l-7 -101q-78 -52 -98 -79q-13 -18 -13 -33q0 -31 42 -31q35 0 64 10zM366 130v108l-101 -4q-102 -3 -102 -73q0 -65 76 -65q53 0 127 34z" />
    <glyph glyph-name="Cacute" unicode="&#x106;" horiz-adv-x="678" 
d="M430 -12q-185 0 -284 95.5t-99 265.5t101 269.5t278 99.5q120 0 214 -43l-38 -101q-38 11 -56.5 16t-49 9t-68.5 4q-108 1 -174.5 -60.5t-66.5 -183.5q0 -125 71 -189.5t189 -64.5q87 0 165 23l30 -105q-95 -35 -212 -35zM306 745l-21 90l251 73l25 -106z" />
    <glyph glyph-name="cacute" unicode="&#x107;" horiz-adv-x="518" 
d="M217 608l-40 80l219 124l47 -94zM335 -12q-156 0 -225 67t-69 205q0 147 75 223.5t211 76.5q94 0 160 -36l-35 -99q-65 25 -118 25q-77 0 -117 -43t-40 -143q0 -86 37.5 -126.5t136.5 -40.5q36 0 113 15l19 -103q-88 -21 -148 -21z" />
    <glyph glyph-name="Ccircumflex" unicode="&#x108;" horiz-adv-x="678" 
d="M430 -12q-185 0 -284 95.5t-99 265.5t101 269.5t278 99.5q120 0 214 -43l-38 -101q-38 11 -56.5 16t-49 9t-68.5 4q-108 1 -174.5 -60.5t-66.5 -183.5q0 -125 71 -189.5t189 -64.5q87 0 165 23l30 -105q-95 -35 -212 -35zM297 745l-47 86l179 89l176 -88l-47 -87l-130 59
z" />
    <glyph glyph-name="ccircumflex" unicode="&#x109;" horiz-adv-x="518" 
d="M437 614l-125 88l-129 -88l-58 75l188 123l180 -123zM335 -12q-156 0 -225 67t-69 205q0 147 75 223.5t211 76.5q94 0 160 -36l-35 -99q-65 25 -118 25q-77 0 -117 -43t-40 -143q0 -86 37.5 -126.5t136.5 -40.5q36 0 113 15l19 -103q-88 -21 -148 -21z" />
    <glyph glyph-name="Cdotaccent" unicode="&#x10a;" horiz-adv-x="678" 
d="M352 775v128h134v-128h-134zM430 -12q-185 0 -284 95.5t-99 265.5t101 269.5t278 99.5q120 0 214 -43l-38 -101q-38 11 -56.5 16t-49 9t-68.5 4q-108 1 -174.5 -60.5t-66.5 -183.5q0 -125 71 -189.5t189 -64.5q87 0 165 23l30 -105q-95 -35 -212 -35z" />
    <glyph glyph-name="cdotaccent" unicode="&#x10b;" horiz-adv-x="518" 
d="M335 -12q-156 0 -225 67t-69 205q0 147 75 223.5t211 76.5q94 0 160 -36l-35 -99q-65 25 -118 25q-77 0 -117 -43t-40 -143q0 -86 37.5 -126.5t136.5 -40.5q36 0 113 15l19 -103q-88 -21 -148 -21zM252 653v128h133v-128h-133z" />
    <glyph glyph-name="Ccaron" unicode="&#x10c;" horiz-adv-x="678" 
d="M596 830l-180 -88l-177 89l46 87l131 -60l132 59zM430 -12q-185 0 -284 95.5t-99 265.5t101 269.5t278 99.5q120 0 214 -43l-38 -101q-38 11 -56.5 16t-49 9t-68.5 4q-108 1 -174.5 -60.5t-66.5 -183.5q0 -125 71 -189.5t189 -64.5q87 0 165 23l30 -105q-95 -35 -212 -35
z" />
    <glyph glyph-name="ccaron" unicode="&#x10d;" horiz-adv-x="518" 
d="M295 609l-183 124l54 74l130 -88l129 88l58 -75zM335 -12q-156 0 -225 67t-69 205q0 147 75 223.5t211 76.5q94 0 160 -36l-35 -99q-65 25 -118 25q-77 0 -117 -43t-40 -143q0 -86 37.5 -126.5t136.5 -40.5q36 0 113 15l19 -103q-88 -21 -148 -21z" />
    <glyph glyph-name="Dcaron" unicode="&#x10e;" horiz-adv-x="774" 
d="M524 830l-180 -88l-177 89l46 87l131 -60l132 59zM92 0v707h229q188 0 297 -87t109 -264q0 -180 -104.5 -268t-295.5 -88h-235zM228 108h110q252 0 252 238q0 253 -272 253h-90v-491z" />
    <glyph glyph-name="dcaron" unicode="&#x10f;" horiz-adv-x="689" 
d="M723 754l-43 -213h-94l21 213h116zM276 -9q-32 0 -63 7.5t-63 26.5t-55.5 49t-38.5 79t-15 112q0 149 78.5 222t207.5 73q35 0 83 -9v203h133v-754h-133v44q-22 -17 -34 -25.5t-40 -18t-60 -9.5zM301 102q48 0 109 35v306q-60 11 -81 11q-154 0 -154 -181q0 -89 35 -130
t91 -41z" />
    <glyph glyph-name="Dcroat" unicode="&#x110;" horiz-adv-x="803" 
d="M44 307v86h76v314h229q188 0 297 -87t109 -264q0 -180 -104.5 -268t-295.5 -88h-235v307h-76zM256 108h110q252 0 252 238q0 253 -272 253h-90v-206h145v-86h-145v-199z" />
    <glyph glyph-name="dcroat" unicode="&#x111;" horiz-adv-x="617" 
d="M291 615v68h119v71h133v-71h65v-68h-65v-615h-133v44q-61 -52 -130 -52q-35 0 -66 6.5t-63.5 25.5t-56 49.5t-38.5 83t-15 121.5q0 136 79.5 209t203.5 73q41 0 86 -9v64h-119zM303 103q44 0 107 34v306q-46 11 -84 11q-78 0 -114.5 -48.5t-36.5 -130.5q0 -172 128 -172z
" />
    <glyph glyph-name="Emacron" unicode="&#x112;" 
d="M160 772v105h305v-105h-305zM92 0v707h438v-108h-302v-193h280v-102h-280v-196h325v-108h-461z" />
    <glyph glyph-name="emacron" unicode="&#x113;" horiz-adv-x="571" 
d="M146 655v105h305v-105h-305zM321 -12q-136 0 -207.5 62t-71.5 215q0 154 70.5 224t187.5 70q122 0 177 -70t55 -205v-48h-356q-1 -80 43 -110t120 -30q67 0 157 23l21 -101q-87 -30 -196 -30zM179 325h216q1 64 -24.5 101t-75.5 37q-49 0 -80.5 -36t-35.5 -102z" />
    <glyph glyph-name="Ebreve" unicode="&#x114;" 
d="M311 753q-120 0 -181 101l70 61q58 -62 115 -62q60 0 112 61l66 -59q-68 -102 -182 -102zM92 0v707h438v-108h-302v-193h280v-102h-280v-196h325v-108h-461z" />
    <glyph glyph-name="ebreve" unicode="&#x115;" horiz-adv-x="571" 
d="M321 -12q-136 0 -207.5 62t-71.5 215q0 154 70.5 224t187.5 70q122 0 177 -70t55 -205v-48h-356q-1 -80 43 -110t120 -30q67 0 157 23l21 -101q-87 -30 -196 -30zM179 325h216q1 64 -24.5 101t-75.5 37q-49 0 -80.5 -36t-35.5 -102zM302 626q-120 0 -181 101l70 60
q59 -61 115 -61q60 0 112 61l66 -59q-66 -102 -182 -102z" />
    <glyph glyph-name="Edotaccent" unicode="&#x116;" 
d="M254 775v128h134v-128h-134zM92 0v707h438v-108h-302v-193h280v-102h-280v-196h325v-108h-461z" />
    <glyph glyph-name="edotaccent" unicode="&#x117;" horiz-adv-x="571" 
d="M321 -12q-136 0 -207.5 62t-71.5 215q0 154 70.5 224t187.5 70q122 0 177 -70t55 -205v-48h-356q-1 -80 43 -110t120 -30q67 0 157 23l21 -101q-87 -30 -196 -30zM179 325h216q1 64 -24.5 101t-75.5 37q-49 0 -80.5 -36t-35.5 -102zM235 653v128h133v-128h-133z" />
    <glyph glyph-name="Eogonek" unicode="&#x118;" 
d="M564 -225q-50 -24 -102 -24q-67 0 -99.5 29.5t-32.5 75.5t29.5 84.5t69.5 59.5h-337v707h438v-108h-302v-193h280v-102h-280v-196h325v-108q-113 -59 -113 -110q0 -36 44 -36q28 0 56 9z" />
    <glyph glyph-name="eogonek" unicode="&#x119;" horiz-adv-x="572" 
d="M412 -247q-139 0 -139 111q0 63 77 128q-30 -2 -45 -2q-263 0 -263 274q0 295 267 295q223 0 223 -275v-48h-357q1 -83 44.5 -111t127.5 -28q50 0 148 20l20 -104q-119 -68 -119 -124q0 -38 46 -38q32 0 60 12l24 -88q-48 -22 -114 -22zM179 325h215q2 64 -23.5 101.5
t-73.5 37.5q-50 0 -82 -36.5t-36 -102.5z" />
    <glyph glyph-name="Ecaron" unicode="&#x11a;" 
d="M488 830l-180 -88l-177 89l46 87l131 -60l132 59zM92 0v707h438v-108h-302v-193h280v-102h-280v-196h325v-108h-461z" />
    <glyph glyph-name="ecaron" unicode="&#x11b;" horiz-adv-x="571" 
d="M296 609l-183 124l54 74l130 -88l129 88l58 -75zM321 -12q-136 0 -207.5 62t-71.5 215q0 154 70.5 224t187.5 70q122 0 177 -70t55 -205v-48h-356q-1 -80 43 -110t120 -30q67 0 157 23l21 -101q-87 -30 -196 -30zM179 325h216q1 64 -24.5 101t-75.5 37q-49 0 -80.5 -36
t-35.5 -102z" />
    <glyph glyph-name="Gcircumflex" unicode="&#x11c;" horiz-adv-x="710" 
d="M293 745l-47 86l179 89l176 -88l-47 -87l-130 59zM429 -11q-179 0 -280.5 93t-101.5 267q0 181 98.5 274.5t284.5 93.5q114 0 209 -41l-37 -102q-39 11 -56 15.5t-49 9t-68 4.5q-108 0 -175 -60t-67 -184q0 -126 72 -190t185 -64q34 0 72 6v238h136v-321
q-104 -39 -223 -39z" />
    <glyph glyph-name="gcircumflex" unicode="&#x11d;" horiz-adv-x="598" 
d="M263 193q-47 0 -86 11q-16 -23 -16 -42q0 -15 11 -25t30 -10h112q219 0 219 -152q0 -88 -72 -146.5t-207 -58.5q-106 0 -164 37.5t-58 103.5q0 81 69 128q-40 28 -40 77q0 64 59 112q-72 45 -72 135q0 85 59.5 140.5t162.5 55.5q81 0 134 -32l168 9v-97h-89
q11 -48 11 -72q0 -80 -65.5 -127t-165.5 -47zM321 18h-137q-18 0 -26 1q-28 -31 -28 -68q0 -80 134 -80q71 0 114.5 25t43.5 63q0 28 -26 43.5t-75 15.5zM395 614l-125 88l-129 -88l-58 75l188 123l180 -123zM268 275q49 0 77 27t28 70t-27 71t-75 28q-47 0 -75 -27.5
t-28 -73.5q0 -44 27 -69.5t73 -25.5z" />
    <glyph glyph-name="Gbreve" unicode="&#x11e;" horiz-adv-x="710" 
d="M413 753q-120 0 -181 101l70 61q58 -62 115 -62q60 0 112 61l66 -59q-68 -102 -182 -102zM429 -11q-179 0 -280.5 93t-101.5 267q0 181 98.5 274.5t284.5 93.5q114 0 209 -41l-37 -102q-39 11 -56 15.5t-49 9t-68 4.5q-108 0 -175 -60t-67 -184q0 -126 72 -190t185 -64
q34 0 72 6v238h136v-321q-104 -39 -223 -39z" />
    <glyph glyph-name="gbreve" unicode="&#x11f;" horiz-adv-x="598" 
d="M263 193q-47 0 -86 11q-16 -23 -16 -42q0 -15 11 -25t30 -10h112q219 0 219 -152q0 -88 -72 -146.5t-207 -58.5q-106 0 -164 37.5t-58 103.5q0 81 69 128q-40 28 -40 77q0 64 59 112q-72 45 -72 135q0 85 59.5 140.5t162.5 55.5q81 0 134 -32l168 9v-97h-89
q11 -48 11 -72q0 -80 -65.5 -127t-165.5 -47zM321 18h-137q-18 0 -26 1q-28 -31 -28 -68q0 -80 134 -80q71 0 114.5 25t43.5 63q0 28 -26 43.5t-75 15.5zM277 626q-120 0 -181 101l70 60q59 -61 115 -61q60 0 112 61l66 -59q-66 -102 -182 -102zM268 275q49 0 77 27t28 70
t-27 71t-75 28q-47 0 -75 -27.5t-28 -73.5q0 -44 27 -69.5t73 -25.5z" />
    <glyph glyph-name="Gdotaccent" unicode="&#x120;" horiz-adv-x="710" 
d="M366 775v128h134v-128h-134zM429 -11q-179 0 -280.5 93t-101.5 267q0 181 98.5 274.5t284.5 93.5q114 0 209 -41l-37 -102q-39 11 -56 15.5t-49 9t-68 4.5q-108 0 -175 -60t-67 -184q0 -126 72 -190t185 -64q34 0 72 6v238h136v-321q-104 -39 -223 -39z" />
    <glyph glyph-name="gdotaccent" unicode="&#x121;" horiz-adv-x="598" 
d="M263 193q-47 0 -86 11q-16 -23 -16 -42q0 -15 11 -25t30 -10h112q219 0 219 -152q0 -88 -72 -146.5t-207 -58.5q-106 0 -164 37.5t-58 103.5q0 81 69 128q-40 28 -40 77q0 64 59 112q-72 45 -72 135q0 85 59.5 140.5t162.5 55.5q81 0 134 -32l168 9v-97h-89
q11 -48 11 -72q0 -80 -65.5 -127t-165.5 -47zM321 18h-137q-18 0 -26 1q-28 -31 -28 -68q0 -80 134 -80q71 0 114.5 25t43.5 63q0 28 -26 43.5t-75 15.5zM268 275q49 0 77 27t28 70t-27 71t-75 28q-47 0 -75 -27.5t-28 -73.5q0 -44 27 -69.5t73 -25.5zM205 653v128h133v-128
h-133z" />
    <glyph glyph-name="Gcommaaccent" unicode="&#x122;" horiz-adv-x="710" 
d="M493 -59l-43 -213h-94l21 213h116zM429 -11q-179 0 -280.5 93t-101.5 267q0 181 98.5 274.5t284.5 93.5q114 0 209 -41l-37 -102q-39 11 -56 15.5t-49 9t-68 4.5q-108 0 -175 -60t-67 -184q0 -126 72 -190t185 -64q34 0 72 6v238h136v-321q-104 -39 -223 -39z" />
    <glyph glyph-name="gcommaaccent" unicode="&#x123;" horiz-adv-x="598" 
d="M263 193q-47 0 -86 11q-16 -23 -16 -42q0 -15 11 -25t30 -10h112q219 0 219 -152q0 -88 -72 -146.5t-207 -58.5q-106 0 -164 37.5t-58 103.5q0 81 69 128q-40 28 -40 77q0 64 59 112q-72 45 -72 135q0 85 59.5 140.5t162.5 55.5q81 0 134 -32l168 9v-97h-89
q11 -48 11 -72q0 -80 -65.5 -127t-165.5 -47zM321 18h-137q-18 0 -26 1q-28 -31 -28 -68q0 -80 134 -80q71 0 114.5 25t43.5 63q0 28 -26 43.5t-75 15.5zM268 275q49 0 77 27t28 70t-27 71t-75 28q-47 0 -75 -27.5t-28 -73.5q0 -44 27 -69.5t73 -25.5zM211 605l48 199h107
l-28 -199h-127z" />
    <glyph glyph-name="Hcircumflex" unicode="&#x124;" horiz-adv-x="790" 
d="M92 0v707h136v-299h334v299h136v-707h-136v302h-334v-302h-136zM262 745l-47 86l179 89l176 -88l-47 -87l-130 59z" />
    <glyph glyph-name="hcircumflex" unicode="&#x125;" horiz-adv-x="636" 
d="M74 0v754h133v-268q92 73 184 73q48 0 82 -12.5t52 -30t28 -49t12 -57t2 -65.5v-345h-131v330q0 63 -18 88t-68 25q-64 0 -143 -45v-398h-133zM11 761l-47 86l179 89l176 -88l-47 -87l-130 59z" />
    <glyph glyph-name="Hbar" unicode="&#x126;" horiz-adv-x="827" 
d="M36 515v70h74v122h136v-122h334v122h136v-122h74v-70h-74v-515h-136v302h-334v-302h-136v515h-74zM246 408h334v107h-334v-107z" />
    <glyph glyph-name="hbar" unicode="&#x127;" horiz-adv-x="636" 
d="M74 0v615h-64v68h64v71h133v-71h120v-68h-120v-127q98 73 183 73q48 0 82 -12.5t52.5 -30t28.5 -48.5t12 -57t2 -66v-347h-131v332q0 64 -18 88.5t-71 24.5q-52 0 -140 -44v-401h-133z" />
    <glyph glyph-name="Itilde" unicode="&#x128;" horiz-adv-x="320" 
d="M92 0v707h136v-707h-136zM219 755q-25 0 -66 18.5t-59 18.5q-38 0 -70 -26l-51 63q62 68 127 68q33 0 70.5 -19t51.5 -19q35 0 78 26l46 -62q-59 -68 -127 -68z" />
    <glyph glyph-name="itilde" unicode="&#x129;" horiz-adv-x="281" 
d="M74 0v546h134v-546h-134zM197 638q-26 0 -66.5 18.5t-59.5 18.5q-37 0 -70 -27l-51 64q62 68 130 68q32 0 69.5 -19t53.5 -19q34 0 80 27l46 -63q-64 -68 -132 -68z" />
    <glyph glyph-name="Imacron" unicode="&#x12a;" horiz-adv-x="320" 
d="M92 0v707h136v-707h-136zM5 772v105h305v-105h-305z" />
    <glyph glyph-name="imacron" unicode="&#x12b;" horiz-adv-x="281" 
d="M74 0v546h134v-546h-134zM-11 655v105h305v-105h-305z" />
    <glyph glyph-name="Ibreve" unicode="&#x12c;" horiz-adv-x="320" 
d="M92 0v707h136v-707h-136zM158 753q-120 0 -181 101l70 61q58 -62 115 -62q60 0 112 61l66 -59q-68 -102 -182 -102z" />
    <glyph glyph-name="ibreve" unicode="&#x12d;" horiz-adv-x="281" 
d="M74 0v546h134v-546h-134zM144 626q-120 0 -181 101l70 60q59 -61 115 -61q60 0 112 61l66 -59q-66 -102 -182 -102z" />
    <glyph glyph-name="Iogonek" unicode="&#x12e;" horiz-adv-x="320" 
d="M260 -225q-50 -23 -108 -23q-77 0 -108.5 30.5t-31.5 87.5q0 58 80 122v714h136v-706q-98 -64 -98 -108q0 -18 13.5 -29t29.5 -11q28 0 63 11z" />
    <glyph glyph-name="iogonek" unicode="&#x12f;" horiz-adv-x="281" 
d="M130 -248q-142 0 -142 118q0 62 86 128v548h133v-546q-108 -68 -108 -116q0 -34 48 -34q32 0 67 13l25 -88q-52 -23 -109 -23zM74 653v128h133v-128h-133z" />
    <glyph glyph-name="Idotaccent" unicode="&#x130;" horiz-adv-x="320" 
d="M91 775v128h134v-128h-134zM92 0v707h136v-707h-136z" />
    <glyph glyph-name="dotlessi" unicode="&#x131;" horiz-adv-x="281" 
d="M74 0v546h134v-546h-134z" />
    <glyph glyph-name="IJ" unicode="&#x132;" horiz-adv-x="625" 
d="M92 0v707h136v-707h-136zM304 -194l-52 99q87 48 116 99.5t29 146.5v556h138v-554q0 -50 -4 -86t-17.5 -77t-38 -72t-67.5 -60.5t-104 -51.5z" />
    <glyph glyph-name="ij" unicode="&#x133;" horiz-adv-x="567" 
d="M286 -225q-56 0 -106 22l24 105q37 -13 78 -13q43 0 60.5 25t17.5 81v551h133v-552q0 -65 -16 -109.5t-46.5 -67.5t-65 -32.5t-79.5 -9.5zM74 0v546h134v-546h-134zM74 653v128h133v-128h-133zM362 653v128h133v-128h-133z" />
    <glyph glyph-name="Jcircumflex" unicode="&#x134;" horiz-adv-x="322" 
d="M1 -194l-52 99q87 48 116 99.5t29 146.5v556h138v-554q0 -50 -4 -86t-17.5 -77t-38 -72t-67.5 -60.5t-104 -51.5zM31 745l-47 86l179 89l176 -88l-47 -87l-130 59z" />
    <glyph glyph-name="jcircumflex" unicode="&#x135;" horiz-adv-x="281" 
d="M264 614l-125 88l-129 -88l-58 75l188 123l180 -123zM0 -225q-56 0 -106 22l24 105q37 -13 78 -13q43 0 60.5 25t17.5 81v551h133v-552q0 -65 -16 -109.5t-46.5 -67.5t-65 -32.5t-79.5 -9.5z" />
    <glyph glyph-name="Kcommaaccent" unicode="&#x136;" horiz-adv-x="687" 
d="M92 0v707h136v-323l267 323h174l-289 -329l306 -378h-175l-283 374v-374h-136zM417 -59l-43 -213h-94l21 213h116z" />
    <glyph glyph-name="kcommaaccent" unicode="&#x137;" horiz-adv-x="575" 
d="M370 -59l-43 -213h-94l21 213h116zM75 0v754h133v-444l189 236h146l-211 -253l232 -293h-165l-191 263v-263h-133z" />
    <glyph glyph-name="Lacute" unicode="&#x139;" horiz-adv-x="544" 
d="M103 745l-21 90l251 73l25 -106zM92 0v707h136v-597h307v-110h-443z" />
    <glyph glyph-name="lacute" unicode="&#x13a;" horiz-adv-x="281" 
d="M85 791l-21 90l251 73l25 -106zM74 0v754h133v-754h-133z" />
    <glyph glyph-name="Lcommaaccent" unicode="&#x13b;" horiz-adv-x="544" 
d="M366 -59l-43 -213h-94l21 213h116zM92 0v707h136v-597h307v-110h-443z" />
    <glyph glyph-name="lcommaaccent" unicode="&#x13c;" horiz-adv-x="281" 
d="M200 -59l-43 -213h-94l21 213h116zM74 0v754h133v-754h-133z" />
    <glyph glyph-name="Lcaron" unicode="&#x13d;" horiz-adv-x="544" 
d="M441 780l-43 -213h-94l21 213h116zM92 0v707h136v-597h307v-110h-443z" />
    <glyph glyph-name="lcaron" unicode="&#x13e;" horiz-adv-x="355" 
d="M391 754l-43 -213h-94l21 213h116zM74 0v754h133v-754h-133z" />
    <glyph glyph-name="Ldot" unicode="&#x13f;" horiz-adv-x="544" 
d="M356 306v136h151v-136h-151zM92 0v707h136v-597h307v-110h-443z" />
    <glyph glyph-name="ldot" unicode="&#x140;" horiz-adv-x="437" 
d="M274 300v136h151v-136h-151zM74 0v754h133v-754h-133z" />
    <glyph glyph-name="Lslash" unicode="&#x141;" horiz-adv-x="567" 
d="M43 235v95l72 41v336h136v-258l117 68v-94l-117 -68v-245h307v-110h-443v276z" />
    <glyph glyph-name="lslash" unicode="&#x142;" horiz-adv-x="350" 
d="M107 0v311l-86 -50l-1 95l87 50v348h133v-272l90 52v-94l-90 -52v-388h-133z" />
    <glyph glyph-name="Nacute" unicode="&#x143;" horiz-adv-x="792" 
d="M303 745l-21 90l251 73l25 -106zM92 0v707h162l312 -534h2l-4 83v451h137v-707h-168l-305 523h-4l4 -86v-437h-136z" />
    <glyph glyph-name="nacute" unicode="&#x144;" horiz-adv-x="636" 
d="M254 608l-40 80l219 124l47 -94zM74 0v546h133v-58q51 36 93 54t100 18q55 0 90.5 -17t51.5 -50.5t21 -66t5 -80.5v-346h-132v331q0 64 -17.5 88.5t-67.5 24.5q-68 0 -144 -43v-401h-133z" />
    <glyph glyph-name="Ncommaaccent" unicode="&#x145;" horiz-adv-x="792" 
d="M458 -59l-43 -213h-94l21 213h116zM92 0v707h162l312 -534h2l-4 83v451h137v-707h-168l-305 523h-4l4 -86v-437h-136z" />
    <glyph glyph-name="ncommaaccent" unicode="&#x146;" horiz-adv-x="636" 
d="M385 -59l-43 -213h-94l21 213h116zM74 0v546h133v-58q51 36 93 54t100 18q55 0 90.5 -17t51.5 -50.5t21 -66t5 -80.5v-346h-132v331q0 64 -17.5 88.5t-67.5 24.5q-68 0 -144 -43v-401h-133z" />
    <glyph glyph-name="Ncaron" unicode="&#x147;" horiz-adv-x="792" 
d="M572 830l-180 -88l-177 89l46 87l131 -60l132 59zM92 0v707h162l312 -534h2l-4 83v451h137v-707h-168l-305 523h-4l4 -86v-437h-136z" />
    <glyph glyph-name="ncaron" unicode="&#x148;" horiz-adv-x="636" 
d="M316 609l-183 124l54 74l130 -88l129 88l58 -75zM74 0v546h133v-58q51 36 93 54t100 18q55 0 90.5 -17t51.5 -50.5t21 -66t5 -80.5v-346h-132v331q0 64 -17.5 88.5t-67.5 24.5q-68 0 -144 -43v-401h-133z" />
    <glyph glyph-name="napostrophe" unicode="&#x149;" horiz-adv-x="706" 
d="M-28 511q30 59 30 130v113h123v-75q0 -94 -55 -168h-98zM143 0v546h133v-58q51 36 93 54t100 18q55 0 90.5 -17t51.5 -50.5t21 -66t5 -80.5v-346h-132v331q0 64 -17.5 88.5t-67.5 24.5q-68 0 -144 -43v-401h-133z" />
    <glyph glyph-name="Eng" unicode="&#x14a;" horiz-adv-x="792" 
d="M494 -220q-54 0 -106 18l24 105q2 -1 15.5 -3t32.5 -4.5t31 -2.5q77 0 77 87v20h-42l-302 532l4 -86v-446h-136v707h167l309 -543l-4 83v460h137l-1 -713q0 -64 -16 -108t-46.5 -66t-64.5 -31t-79 -9z" />
    <glyph glyph-name="eng" unicode="&#x14b;" horiz-adv-x="636" 
d="M568 -5q0 -65 -16 -109t-46.5 -66t-64.5 -31t-80 -9q-54 0 -106 18l24 105q40 -10 79 -10q43 0 60.5 24t17.5 79v336q0 64 -18 88t-71 24q-62 0 -140 -43v-401h-133v546h133v-58q98 73 183 73q48 0 82.5 -12t52.5 -30t28 -49t12.5 -57t2.5 -66v-352z" />
    <glyph glyph-name="Omacron" unicode="&#x14c;" horiz-adv-x="831" 
d="M267 772v105h305v-105h-305zM407 -12q-175 0 -268 98t-93 269q0 167 102 265t276 98q178 0 269.5 -100.5t91.5 -264.5q0 -169 -99 -267t-279 -98zM410 97q120 0 178 70.5t58 186.5q0 115 -58.5 185t-170.5 70q-116 0 -174.5 -69.5t-58.5 -183.5q0 -113 57 -186t169 -73z
" />
    <glyph glyph-name="omacron" unicode="&#x14d;" horiz-adv-x="619" 
d="M154 655v105h305v-105h-305zM304 -12q-126 0 -195 74.5t-69 205.5q0 137 74.5 214.5t199.5 77.5q132 0 198.5 -74.5t66.5 -211.5q0 -138 -75.5 -212t-199.5 -74zM311 95q74 0 103 47t29 130q0 182 -133 182q-135 0 -135 -182q0 -177 136 -177z" />
    <glyph glyph-name="Obreve" unicode="&#x14e;" horiz-adv-x="831" 
d="M417 753q-120 0 -181 101l70 61q58 -62 115 -62q60 0 112 61l66 -59q-68 -102 -182 -102zM407 -12q-175 0 -268 98t-93 269q0 167 102 265t276 98q178 0 269.5 -100.5t91.5 -264.5q0 -169 -99 -267t-279 -98zM410 97q120 0 178 70.5t58 186.5q0 115 -58.5 185t-170.5 70
q-116 0 -174.5 -69.5t-58.5 -183.5q0 -113 57 -186t169 -73z" />
    <glyph glyph-name="obreve" unicode="&#x14f;" horiz-adv-x="619" 
d="M304 -12q-126 0 -195 74.5t-69 205.5q0 137 74.5 214.5t199.5 77.5q132 0 198.5 -74.5t66.5 -211.5q0 -138 -75.5 -212t-199.5 -74zM311 95q74 0 103 47t29 130q0 182 -133 182q-135 0 -135 -182q0 -177 136 -177zM309 626q-120 0 -181 101l70 60q59 -61 115 -61
q60 0 112 61l66 -59q-66 -102 -182 -102z" />
    <glyph glyph-name="Ohungarumlaut" unicode="&#x150;" horiz-adv-x="831" 
d="M407 -12q-175 0 -268 98t-93 269q0 167 102 265t276 98q178 0 269.5 -100.5t91.5 -264.5q0 -169 -99 -267t-279 -98zM410 97q120 0 178 70.5t58 186.5q0 115 -58.5 185t-170.5 70q-116 0 -174.5 -69.5t-58.5 -183.5q0 -113 57 -186t169 -73zM468 878l-216 -141l-55 78
l206 154zM743 793l-253 -53l-21 92l248 69z" />
    <glyph glyph-name="ohungarumlaut" unicode="&#x151;" horiz-adv-x="619" 
d="M161 602l-57 68l187 166l68 -81zM385 603l-40 78l219 123l48 -93zM304 -12q-126 0 -195 74.5t-69 205.5q0 137 74.5 214.5t199.5 77.5q132 0 198.5 -74.5t66.5 -211.5q0 -138 -75.5 -212t-199.5 -74zM311 95q74 0 103 47t29 130q0 182 -133 182q-135 0 -135 -182
q0 -177 136 -177z" />
    <glyph glyph-name="OE" unicode="&#x152;" horiz-adv-x="1104" 
d="M408 -12q-175 0 -268 98t-93 269q0 173 102 268t278 95q101 0 169 -38v27h438v-108h-301v-193h279v-102h-279v-196h324v-108h-461v33q-76 -45 -188 -45zM411 98q124 0 185 80v350q-61 80 -178 80q-116 0 -174 -69t-58 -183q0 -112 57 -185t168 -73z" />
    <glyph glyph-name="oe" unicode="&#x153;" horiz-adv-x="972" 
d="M304 -12q-126 0 -195 74.5t-69 205.5q0 136 74.5 214t197.5 78q134 0 198 -81q66 80 200 80q222 0 222 -275v-48h-356q1 -79 42 -109.5t125 -30.5q66 0 152 22l22 -105q-74 -23 -193 -23q-157 0 -221 80q-70 -82 -199 -82zM311 95q74 0 103 47.5t29 130.5q0 181 -134 181
t-134 -182q0 -177 136 -177zM579 325h216q-1 64 -27 102t-73 38q-48 0 -80 -36.5t-36 -103.5z" />
    <glyph glyph-name="Racute" unicode="&#x154;" horiz-adv-x="727" 
d="M235 745l-21 90l251 73l25 -106zM92 0v707h258q117 0 186.5 -56t69.5 -166q0 -62 -30.5 -112.5t-90.5 -79.5l223 -293h-173l-186 261q-21 -3 -51 -3h-69v-258h-137zM229 358h75q161 0 161 122q0 64 -32 91.5t-105 27.5h-99v-241z" />
    <glyph glyph-name="racute" unicode="&#x155;" horiz-adv-x="427" 
d="M176 608l-40 80l219 124l47 -94zM74 0v546h133v-73q23 33 62 58.5t85 25.5q44 0 71 -9l-19 -110q-31 6 -70 6t-74 -18.5t-55 -43.5v-382h-133z" />
    <glyph glyph-name="Rcommaaccent" unicode="&#x156;" horiz-adv-x="727" 
d="M451 -59l-43 -213h-94l21 213h116zM92 0v707h258q117 0 186.5 -56t69.5 -166q0 -62 -30.5 -112.5t-90.5 -79.5l223 -293h-173l-186 261q-21 -3 -51 -3h-69v-258h-137zM229 358h75q161 0 161 122q0 64 -32 91.5t-105 27.5h-99v-241z" />
    <glyph glyph-name="rcommaaccent" unicode="&#x157;" horiz-adv-x="427" 
d="M202 -59l-43 -213h-94l21 213h116zM74 0v546h133v-73q23 33 62 58.5t85 25.5q44 0 71 -9l-19 -110q-31 6 -70 6t-74 -18.5t-55 -43.5v-382h-133z" />
    <glyph glyph-name="Rcaron" unicode="&#x158;" horiz-adv-x="727" 
d="M493 830l-180 -88l-177 89l46 87l131 -60l132 59zM92 0v707h258q117 0 186.5 -56t69.5 -166q0 -62 -30.5 -112.5t-90.5 -79.5l223 -293h-173l-186 261q-21 -3 -51 -3h-69v-258h-137zM229 358h75q161 0 161 122q0 64 -32 91.5t-105 27.5h-99v-241z" />
    <glyph glyph-name="rcaron" unicode="&#x159;" horiz-adv-x="427" 
d="M223 609l-183 124l54 74l130 -88l129 88l58 -75zM74 0v546h133v-73q23 33 62 58.5t85 25.5q44 0 71 -9l-19 -110q-31 6 -70 6t-74 -18.5t-55 -43.5v-382h-133z" />
    <glyph glyph-name="Sacute" unicode="&#x15a;" horiz-adv-x="569" 
d="M256 -12q-125 0 -221 54l40 104q102 -44 181 -44q63 0 101.5 24t38.5 69q0 38 -35 64t-85.5 45t-100.5 42t-85 68t-35 111q0 90 70.5 141.5t167.5 51.5q119 0 203 -49l-40 -101q-80 36 -159 36q-48 0 -78 -21.5t-30 -58.5q0 -27 25.5 -50t64 -38t83 -36t83 -44t64 -63
t25.5 -92q0 -104 -80.5 -158.5t-197.5 -54.5zM197 745l-21 90l251 73l25 -106z" />
    <glyph glyph-name="sacute" unicode="&#x15b;" horiz-adv-x="482" 
d="M166 608l-40 80l219 124l47 -94zM209 -12q-97 0 -171 23l16 104q103 -18 158 -18q108 0 108 53q0 20 -20.5 35.5t-51 24.5t-66 23.5t-66 32t-51 50.5t-20.5 77q0 81 61.5 124t154.5 43q87 0 163 -29l-24 -99q-70 21 -135 21q-88 0 -88 -49q0 -21 20 -36.5t50.5 -25.5
t66 -25t66 -32.5t50.5 -51t20 -77.5q0 -47 -22 -81.5t-59 -52.5t-77 -26t-83 -8z" />
    <glyph glyph-name="Scircumflex" unicode="&#x15c;" horiz-adv-x="569" 
d="M256 -12q-125 0 -221 54l40 104q102 -44 181 -44q63 0 101.5 24t38.5 69q0 38 -35 64t-85.5 45t-100.5 42t-85 68t-35 111q0 90 70.5 141.5t167.5 51.5q119 0 203 -49l-40 -101q-80 36 -159 36q-48 0 -78 -21.5t-30 -58.5q0 -27 25.5 -50t64 -38t83 -36t83 -44t64 -63
t25.5 -92q0 -104 -80.5 -158.5t-197.5 -54.5zM170 745l-47 86l179 89l176 -88l-47 -87l-130 59z" />
    <glyph glyph-name="scircumflex" unicode="&#x15d;" horiz-adv-x="482" 
d="M369 614l-125 88l-129 -88l-58 75l188 123l180 -123zM209 -12q-97 0 -171 23l16 104q103 -18 158 -18q108 0 108 53q0 20 -20.5 35.5t-51 24.5t-66 23.5t-66 32t-51 50.5t-20.5 77q0 81 61.5 124t154.5 43q87 0 163 -29l-24 -99q-70 21 -135 21q-88 0 -88 -49
q0 -21 20 -36.5t50.5 -25.5t66 -25t66 -32.5t50.5 -51t20 -77.5q0 -47 -22 -81.5t-59 -52.5t-77 -26t-83 -8z" />
    <glyph glyph-name="Scedilla" unicode="&#x15e;" horiz-adv-x="569" 
d="M256 -12q-125 0 -221 54l40 104q102 -44 181 -44q63 0 101.5 24t38.5 69q0 38 -35 64t-85.5 45t-100.5 42t-85 68t-35 111q0 90 70.5 141.5t167.5 51.5q119 0 203 -49l-40 -101q-80 36 -159 36q-48 0 -78 -21.5t-30 -58.5q0 -27 25.5 -50t64 -38t83 -36t83 -44t64 -63
t25.5 -92q0 -104 -80.5 -158.5t-197.5 -54.5zM217 -267l-46 79q50 31 62 48q8 12 8 25q0 20 -16 64h109q21 -44 21 -76q0 -81 -138 -140z" />
    <glyph glyph-name="scedilla" unicode="&#x15f;" horiz-adv-x="482" 
d="M209 -12q-97 0 -171 23l16 104q103 -18 158 -18q108 0 108 53q0 20 -20.5 35.5t-51 24.5t-66 23.5t-66 32t-51 50.5t-20.5 77q0 81 61.5 124t154.5 43q87 0 163 -29l-24 -99q-70 21 -135 21q-88 0 -88 -49q0 -21 20 -36.5t50.5 -25.5t66 -25t66 -32.5t50.5 -51t20 -77.5
q0 -47 -22 -81.5t-59 -52.5t-77 -26t-83 -8zM199 -267l-46 79q50 31 62 48q8 12 8 25q0 20 -16 64h109q21 -44 21 -76q0 -81 -138 -140z" />
    <glyph glyph-name="Scaron" unicode="&#x160;" horiz-adv-x="569" 
d="M461 830l-180 -88l-177 89l46 87l131 -60l132 59zM256 -12q-125 0 -221 54l40 104q102 -44 181 -44q63 0 101.5 24t38.5 69q0 38 -35 64t-85.5 45t-100.5 42t-85 68t-35 111q0 90 70.5 141.5t167.5 51.5q119 0 203 -49l-40 -101q-80 36 -159 36q-48 0 -78 -21.5
t-30 -58.5q0 -27 25.5 -50t64 -38t83 -36t83 -44t64 -63t25.5 -92q0 -104 -80.5 -158.5t-197.5 -54.5z" />
    <glyph glyph-name="scaron" unicode="&#x161;" horiz-adv-x="482" 
d="M241 609l-183 124l54 74l130 -88l129 88l58 -75zM209 -12q-97 0 -171 23l16 104q103 -18 158 -18q108 0 108 53q0 20 -20.5 35.5t-51 24.5t-66 23.5t-66 32t-51 50.5t-20.5 77q0 81 61.5 124t154.5 43q87 0 163 -29l-24 -99q-70 21 -135 21q-88 0 -88 -49q0 -21 20 -36.5
t50.5 -25.5t66 -25t66 -32.5t50.5 -51t20 -77.5q0 -47 -22 -81.5t-59 -52.5t-77 -26t-83 -8z" />
    <glyph glyph-name="Tcommaaccent" unicode="&#x162;" horiz-adv-x="615" 
d="M367 -59l-43 -213h-94l21 213h116zM239 0v598h-229v109h595v-109h-229v-598h-137z" />
    <glyph glyph-name="tcommaaccent" unicode="&#x163;" horiz-adv-x="452" 
d="M332 -59l-43 -213h-94l21 213h116zM285 -13q-90 0 -137.5 40.5t-47.5 135.5v281h-80v102h80v112h133v-112h169v-102h-169v-274q0 -39 17 -54t58 -15q49 0 108 16l15 -106q-67 -24 -146 -24z" />
    <glyph glyph-name="Tcaron" unicode="&#x164;" horiz-adv-x="615" 
d="M485 830l-180 -88l-177 89l46 87l131 -60l132 59zM239 0v598h-229v109h595v-109h-229v-598h-137z" />
    <glyph glyph-name="tcaron" unicode="&#x165;" horiz-adv-x="452" 
d="M442 807l-43 -213h-94l21 213h116zM285 -13q-90 0 -137.5 40.5t-47.5 135.5v281h-80v102h80v112h133v-112h169v-102h-169v-274q0 -39 17 -54t58 -15q49 0 108 16l15 -106q-67 -24 -146 -24z" />
    <glyph glyph-name="Tbar" unicode="&#x166;" horiz-adv-x="615" 
d="M96 316v75h143v207h-229v109h595v-109h-229v-207h143v-75h-143v-316h-137v316h-143z" />
    <glyph glyph-name="tbar" unicode="&#x167;" horiz-adv-x="452" 
d="M33 273v68h67v103h-80v102h80v112h133v-112h169v-102h-169v-103h124v-68h-124v-103q0 -39 17 -54t58 -15q49 0 108 16l15 -106q-67 -24 -146 -24q-90 0 -137.5 40.5t-47.5 135.5v110h-67z" />
    <glyph glyph-name="Utilde" unicode="&#x168;" horiz-adv-x="780" 
d="M443 755q-25 0 -66 18.5t-59 18.5q-38 0 -70 -26l-51 63q62 68 127 68q33 0 70.5 -19t51.5 -19q35 0 78 26l46 -62q-59 -68 -127 -68zM392 -13q-61 0 -113.5 14t-98.5 45.5t-72.5 89t-26.5 136.5v435h138v-429q0 -177 173 -177q174 0 174 199v407h135v-410
q0 -69 -18.5 -123.5t-48 -89t-70.5 -57t-83.5 -31.5t-88.5 -9z" />
    <glyph glyph-name="utilde" unicode="&#x169;" horiz-adv-x="635" 
d="M235 -12q-44 0 -75.5 12.5t-48.5 31.5t-27 49.5t-12.5 57t-2.5 64.5v343h133v-328q0 -63 16.5 -88t67.5 -25q72 0 143 43v398h133v-546h-133v59q-31 -22 -51.5 -34.5t-60 -24.5t-82.5 -12zM371 638q-26 0 -66.5 18.5t-59.5 18.5q-37 0 -70 -27l-51 64q62 68 130 68
q32 0 69.5 -19t53.5 -19q34 0 80 27l46 -63q-64 -68 -132 -68z" />
    <glyph glyph-name="Umacron" unicode="&#x16a;" horiz-adv-x="780" 
d="M237 772v105h305v-105h-305zM392 -13q-61 0 -113.5 14t-98.5 45.5t-72.5 89t-26.5 136.5v435h138v-429q0 -177 173 -177q174 0 174 199v407h135v-410q0 -69 -18.5 -123.5t-48 -89t-70.5 -57t-83.5 -31.5t-88.5 -9z" />
    <glyph glyph-name="umacron" unicode="&#x16b;" horiz-adv-x="635" 
d="M170 655v105h305v-105h-305zM235 -12q-44 0 -75.5 12.5t-48.5 31.5t-27 49.5t-12.5 57t-2.5 64.5v343h133v-328q0 -63 16.5 -88t67.5 -25q72 0 143 43v398h133v-546h-133v59q-31 -22 -51.5 -34.5t-60 -24.5t-82.5 -12z" />
    <glyph glyph-name="Ubreve" unicode="&#x16c;" horiz-adv-x="780" 
d="M389 753q-120 0 -181 101l70 61q58 -62 115 -62q60 0 112 61l66 -59q-68 -102 -182 -102zM392 -13q-61 0 -113.5 14t-98.5 45.5t-72.5 89t-26.5 136.5v435h138v-429q0 -177 173 -177q174 0 174 199v407h135v-410q0 -69 -18.5 -123.5t-48 -89t-70.5 -57t-83.5 -31.5
t-88.5 -9z" />
    <glyph glyph-name="ubreve" unicode="&#x16d;" horiz-adv-x="635" 
d="M235 -12q-44 0 -75.5 12.5t-48.5 31.5t-27 49.5t-12.5 57t-2.5 64.5v343h133v-328q0 -63 16.5 -88t67.5 -25q72 0 143 43v398h133v-546h-133v59q-31 -22 -51.5 -34.5t-60 -24.5t-82.5 -12zM313 626q-120 0 -181 101l70 60q59 -61 115 -61q60 0 112 61l66 -59
q-66 -102 -182 -102z" />
    <glyph glyph-name="Uring" unicode="&#x16e;" horiz-adv-x="780" 
d="M393 711q-50 0 -85.5 25t-35.5 79q0 53 35 81t83 28q46 0 83.5 -25.5t37.5 -81.5q0 -51 -34 -78.5t-84 -27.5zM391 765q52 0 55 51q0 23 -16 37t-39 14q-55 0 -55 -49q0 -24 15 -38.5t40 -14.5zM392 -13q-61 0 -113.5 14t-98.5 45.5t-72.5 89t-26.5 136.5v435h138v-429
q0 -177 173 -177q174 0 174 199v407h135v-410q0 -69 -18.5 -123.5t-48 -89t-70.5 -57t-83.5 -31.5t-88.5 -9z" />
    <glyph glyph-name="uring" unicode="&#x16f;" horiz-adv-x="635" 
d="M317 597q-57 0 -96 27t-39 88q0 58 39.5 90t92.5 32q22 0 44 -6t43.5 -19t34.5 -37.5t13 -57.5q0 -57 -38 -87t-94 -30zM315 656q28 0 43.5 15t17.5 42q0 26 -17.5 41.5t-43.5 15.5q-61 0 -61 -55q0 -27 16.5 -43t44.5 -16zM235 -12q-44 0 -75.5 12.5t-48.5 31.5
t-27 49.5t-12.5 57t-2.5 64.5v343h133v-328q0 -63 16.5 -88t67.5 -25q72 0 143 43v398h133v-546h-133v59q-31 -22 -51.5 -34.5t-60 -24.5t-82.5 -12z" />
    <glyph glyph-name="Uhungarumlaut" unicode="&#x170;" horiz-adv-x="780" 
d="M392 -13q-61 0 -113.5 14t-98.5 45.5t-72.5 89t-26.5 136.5v435h138v-429q0 -177 173 -177q174 0 174 199v407h135v-410q0 -69 -18.5 -123.5t-48 -89t-70.5 -57t-83.5 -31.5t-88.5 -9zM425 878l-216 -141l-55 78l206 154zM700 793l-253 -53l-21 92l248 69z" />
    <glyph glyph-name="uhungarumlaut" unicode="&#x171;" horiz-adv-x="635" 
d="M235 -12q-44 0 -75.5 12.5t-48.5 31.5t-27 49.5t-12.5 57t-2.5 64.5v343h133v-328q0 -63 16.5 -88t67.5 -25q72 0 143 43v398h133v-546h-133v59q-31 -22 -51.5 -34.5t-60 -24.5t-82.5 -12zM156 602l-57 68l187 166l68 -81zM380 603l-40 78l219 123l48 -93z" />
    <glyph glyph-name="Uogonek" unicode="&#x172;" horiz-adv-x="780" 
d="M526 -223q-46 -26 -103 -26q-63 0 -103 33t-40 90q0 59 60 116q-53 5 -97.5 22.5t-82 49.5t-58.5 86t-21 124v435h138v-429q0 -177 173 -177q174 0 174 199v407h135v-410q0 -131 -59.5 -203.5t-154.5 -95.5q-91 -54 -91 -106q0 -22 14 -34.5t34 -12.5q30 0 58 15z" />
    <glyph glyph-name="uogonek" unicode="&#x173;" horiz-adv-x="635" 
d="M569 -138l23 -85q-56 -25 -113 -25q-140 0 -140 109q0 61 90 134v64q-104 -73 -184 -73q-48 0 -81.5 12.5t-52 30.5t-28 49t-12 57t-2.5 66v345h133v-330q0 -63 16.5 -87.5t68.5 -24.5q60 0 142 44v398h133v-546q-109 -68 -109 -115q0 -35 46 -35q30 0 70 12z" />
    <glyph glyph-name="Wcircumflex" unicode="&#x174;" horiz-adv-x="1056" 
d="M398 745l-47 86l179 89l176 -88l-47 -87l-130 59zM1046 707l-208 -707h-184l-126 520l-143 -520h-186l-169 707h141l129 -622l173 622h127l150 -618l159 617z" />
    <glyph glyph-name="wcircumflex" unicode="&#x175;" horiz-adv-x="899" 
d="M580 614l-125 88l-129 -88l-58 75l188 123l180 -123zM170 0l-151 546h140l97 -440l118 440h161l102 -440l117 440h136l-172 -546h-168l-81 336l-18 85l-20 -84l-92 -337h-169z" />
    <glyph glyph-name="Ycircumflex" unicode="&#x176;" horiz-adv-x="662" 
d="M261 0v243l-250 464h157l166 -348l177 348h152l-266 -461v-246h-136zM205 745l-47 86l179 89l176 -88l-47 -87l-130 59z" />
    <glyph glyph-name="ycircumflex" unicode="&#x177;" horiz-adv-x="564" 
d="M408 614l-125 88l-129 -88l-58 75l188 123l180 -123zM166 -220l75 220h-52l-183 546h144l103 -349l26 -92l29 91l118 350h135l-267 -766h-128z" />
    <glyph glyph-name="Ydieresis" unicode="&#x178;" horiz-adv-x="662" 
d="M261 0v243l-250 464h157l166 -348l177 348h152l-266 -461v-246h-136zM273 764h-127v127h127v-127zM515 764h-126v127h126v-127z" />
    <glyph glyph-name="Zacute" unicode="&#x179;" horiz-adv-x="604" 
d="M219 745l-21 90l251 73l25 -106zM36 0v98l344 495h-318v114h483v-91l-348 -502h369v-114h-530z" />
    <glyph glyph-name="zacute" unicode="&#x17a;" horiz-adv-x="518" 
d="M182 608l-40 80l219 124l47 -94zM35 0v93l281 344h-261v109h418v-90l-279 -348h283v-108h-442z" />
    <glyph glyph-name="Zdotaccent" unicode="&#x17b;" horiz-adv-x="604" 
d="M240 775v128h134v-128h-134zM36 0v98l344 495h-318v114h483v-91l-348 -502h369v-114h-530z" />
    <glyph glyph-name="zdotaccent" unicode="&#x17c;" horiz-adv-x="518" 
d="M35 0v93l281 344h-261v109h418v-90l-279 -348h283v-108h-442zM208 653v128h133v-128h-133z" />
    <glyph glyph-name="Zcaron" unicode="&#x17d;" horiz-adv-x="604" 
d="M477 830l-180 -88l-177 89l46 87l131 -60l132 59zM36 0v98l344 495h-318v114h483v-91l-348 -502h369v-114h-530z" />
    <glyph glyph-name="zcaron" unicode="&#x17e;" horiz-adv-x="518" 
d="M253 609l-183 124l54 74l130 -88l129 88l58 -75zM35 0v93l281 344h-261v109h418v-90l-279 -348h283v-108h-442z" />
    <glyph glyph-name="uni018E" unicode="&#x18e;" horiz-adv-x="587" 
d="M496 707v-707h-439v108h302v196h-265v102h265v193h-301v108h438z" />
    <glyph glyph-name="uni018F" unicode="&#x18f;" horiz-adv-x="780" 
d="M378 -12q-168 0 -250.5 91.5t-87.5 256.5v67h551q-11 94 -68.5 150t-156.5 56q-122 0 -237 -61l-51 91q129 79 307 79q168 -1 258 -101.5t90 -263.5q0 -170 -91 -267.5t-264 -97.5zM381 97q105 0 152 54.5t58 155.5h-410q23 -210 200 -210z" />
    <glyph glyph-name="florin" unicode="&#x192;" horiz-adv-x="520" 
d="M46 -48l-4 111q5 0 24.5 1t26 2t23 3t23 5t18.5 7.5t17 11.5t12 16t9.5 22t2.5 29l1 72h-103v109h104v56q0 112 70.5 158t197.5 46l9 -114q-82 -7 -105 -17q-41 -19 -41 -76l-1 -53h116v-109h-116l-1 -75q-1 -104 -68 -154.5t-215 -50.5z" />
    <glyph glyph-name="uni01DD" unicode="&#x1dd;" horiz-adv-x="571" 
d="M248 559q139 0 210 -61.5t71 -214.5q0 -295 -266 -295q-223 0 -223 276v48h356q-1 82 -45 111t-127 29q-56 0 -148 -23l-21 101q87 29 193 29zM392 223h-215q-1 -64 24.5 -101.5t73.5 -37.5q51 0 82 36t35 103z" />
    <glyph glyph-name="uni01E2" unicode="&#x1e2;" horiz-adv-x="953" 
d="M429 772v105h305v-105h-305zM-20 0l348 707h555v-108h-302v-193h280v-102h-280v-196h325v-108h-461v270h-186l-125 -270h-154zM303 372h142v227h-37z" />
    <glyph glyph-name="uni01E3" unicode="&#x1e3;" horiz-adv-x="893" 
d="M297 655v105h305v-105h-305zM646 -9q-169 0 -235 88q-99 -87 -203 -87q-84 0 -129.5 40t-45.5 119q0 49 20 83t56 49.5t70 22t79 7.5q87 3 108 3v56q0 45 -25.5 59.5t-89.5 14.5q-45 0 -152 -24l-27 98q106 39 203 39q137 0 184 -54q62 54 173 54q222 0 222 -271v-44
l-357 -10q1 -82 45 -109.5t128 -27.5q50 0 148 20l19 -99q-83 -27 -191 -27zM232 95q58 0 150 43q-11 34 -16 92l-100 -2q-103 -3 -103 -69q0 -64 69 -64zM502 324l214 9q1 59 -25.5 94t-70.5 35q-49 0 -83 -34.5t-35 -103.5z" />
    <glyph glyph-name="AEacute" unicode="&#x1fc;" horiz-adv-x="953" 
d="M482 745l-21 90l251 73l25 -106zM-20 0l348 707h555v-108h-302v-193h280v-102h-280v-196h325v-108h-461v270h-186l-125 -270h-154zM303 372h142v227h-37z" />
    <glyph glyph-name="aeacute" unicode="&#x1fd;" horiz-adv-x="893" 
d="M376 608l-40 80l219 124l47 -94zM646 -9q-169 0 -235 88q-99 -87 -203 -87q-84 0 -129.5 40t-45.5 119q0 49 20 83t56 49.5t70 22t79 7.5q87 3 108 3v56q0 45 -25.5 59.5t-89.5 14.5q-45 0 -152 -24l-27 98q106 39 203 39q137 0 184 -54q62 54 173 54q222 0 222 -271v-44
l-357 -10q1 -82 45 -109.5t128 -27.5q50 0 148 20l19 -99q-83 -27 -191 -27zM232 95q58 0 150 43q-11 34 -16 92l-100 -2q-103 -3 -103 -69q0 -64 69 -64zM502 324l214 9q1 59 -25.5 94t-70.5 35q-49 0 -83 -34.5t-35 -103.5z" />
    <glyph glyph-name="Oslashacute" unicode="&#x1fe;" horiz-adv-x="860" 
d="M99 -39l-58 58l89 92q-71 94 -71 244q0 167 102 265t276 98q134 0 222 -60l87 90l61 -56l-87 -90q78 -96 78 -249q0 -169 -99 -267t-279 -98q-142 0 -231 66zM423 97q120 0 178 70.5t58 186.5q0 88 -34 150l-347 -359q56 -48 145 -48zM197 356q0 -82 30 -145l344 355
q-57 43 -141 43q-116 0 -174.5 -69.5t-58.5 -183.5zM347 745l-21 90l251 73l25 -106z" />
    <glyph glyph-name="oslashacute" unicode="&#x1ff;" horiz-adv-x="640" 
d="M313 -12q-107 0 -172 53l-62 -66l-45 43l64 68q-49 72 -49 182q0 137 74.5 214.5t199.5 77.5q108 0 174 -52l59 63l44 -43l-61 -65q49 -70 49 -189q0 -138 -75.5 -212t-199.5 -74zM320 95q74 0 103 47t29 130q0 51 -11 88l-216 -230q32 -35 95 -35zM184 272q0 -49 10 -85
l217 231q-33 36 -92 36q-135 0 -135 -182zM249 608l-40 80l219 124l47 -94z" />
    <glyph glyph-name="Scommaaccent" unicode="&#x218;" horiz-adv-x="569" 
d="M336 -59l-43 -213h-94l21 213h116zM256 -12q-125 0 -221 54l40 104q102 -44 181 -44q63 0 101.5 24t38.5 69q0 38 -35 64t-85.5 45t-100.5 42t-85 68t-35 111q0 90 70.5 141.5t167.5 51.5q119 0 203 -49l-40 -101q-80 36 -159 36q-48 0 -78 -21.5t-30 -58.5
q0 -27 25.5 -50t64 -38t83 -36t83 -44t64 -63t25.5 -92q0 -104 -80.5 -158.5t-197.5 -54.5z" />
    <glyph glyph-name="scommaaccent" unicode="&#x219;" horiz-adv-x="482" 
d="M314 -59l-43 -213h-94l21 213h116zM209 -12q-97 0 -171 23l16 104q103 -18 158 -18q108 0 108 53q0 20 -20.5 35.5t-51 24.5t-66 23.5t-66 32t-51 50.5t-20.5 77q0 81 61.5 124t154.5 43q87 0 163 -29l-24 -99q-70 21 -135 21q-88 0 -88 -49q0 -21 20 -36.5t50.5 -25.5
t66 -25t66 -32.5t50.5 -51t20 -77.5q0 -47 -22 -81.5t-59 -52.5t-77 -26t-83 -8z" />
    <glyph glyph-name="uni021A" unicode="&#x21a;" horiz-adv-x="615" 
d="M367 -59l-43 -213h-94l21 213h116zM239 0v598h-229v109h595v-109h-229v-598h-137z" />
    <glyph glyph-name="uni021B" unicode="&#x21b;" horiz-adv-x="452" 
d="M339 -59l-43 -213h-94l21 213h116zM285 -13q-90 0 -137.5 40.5t-47.5 135.5v281h-80v102h80v112h133v-112h169v-102h-169v-274q0 -39 17 -54t58 -15q49 0 108 16l15 -106q-67 -24 -146 -24z" />
    <glyph glyph-name="uni0232" unicode="&#x232;" horiz-adv-x="662" 
d="M261 0v243l-250 464h157l166 -348l177 348h152l-266 -461v-246h-136zM180 772v105h305v-105h-305z" />
    <glyph glyph-name="uni0233" unicode="&#x233;" horiz-adv-x="564" 
d="M166 -220l75 220h-52l-183 546h144l103 -349l26 -92l29 91l118 350h135l-267 -766h-128zM128 655v105h305v-105h-305z" />
    <glyph glyph-name="uni0237" unicode="&#x237;" horiz-adv-x="281" 
d="M0 -225q-56 0 -106 22l24 105q37 -13 78 -13q43 0 60.5 25t17.5 81v551h133v-552q0 -65 -16 -109.5t-46.5 -67.5t-65 -32.5t-79.5 -9.5z" />
    <glyph glyph-name="uni0259" unicode="&#x259;" horiz-adv-x="571" 
d="M248 559q139 0 210 -61.5t71 -214.5q0 -295 -266 -295q-223 0 -223 276v48h356q-1 82 -45 111t-127 29q-56 0 -148 -23l-21 101q87 29 193 29zM392 223h-215q-1 -64 24.5 -101.5t73.5 -37.5q51 0 82 36t35 103z" />
    <glyph glyph-name="circumflex" unicode="&#x2c6;" horiz-adv-x="550" 
d="M387 614l-125 88l-129 -88l-58 75l188 123l180 -123z" />
    <glyph glyph-name="caron" unicode="&#x2c7;" horiz-adv-x="550" 
d="M271 608l-183 124l54 74l130 -88l129 88l58 -75z" />
    <glyph glyph-name="breve" unicode="&#x2d8;" horiz-adv-x="510" 
d="M272 625q-120 0 -181 101l70 60q59 -61 115 -61q60 0 112 61l66 -59q-66 -102 -182 -102z" />
    <glyph glyph-name="dotaccent" unicode="&#x2d9;" horiz-adv-x="287" 
d="M77 653v128h133v-128h-133z" />
    <glyph glyph-name="ring" unicode="&#x2da;" horiz-adv-x="546" 
d="M275 597q-57 0 -96 27t-39 88q0 58 39.5 90t92.5 32q22 0 44 -6t43.5 -19t34.5 -37.5t13 -57.5q0 -57 -38 -87t-94 -30zM273 656q28 0 43.5 15t17.5 42q0 26 -17.5 41.5t-43.5 15.5q-61 0 -61 -55q0 -27 16.5 -43t44.5 -16z" />
    <glyph glyph-name="ogonek" unicode="&#x2db;" horiz-adv-x="575" 
d="M513 -223q-45 -26 -103 -26q-63 0 -103 33t-40 90q0 60 56.5 112.5t136.5 86.5l44 -58q-121 -64 -121 -123q0 -22 14 -34.5t34 -12.5q30 0 58 15z" />
    <glyph glyph-name="tilde" unicode="&#x2dc;" horiz-adv-x="550" 
d="M330 638q-26 0 -66.5 18.5t-59.5 18.5q-37 0 -70 -27l-51 64q62 68 130 68q32 0 69.5 -19t53.5 -19q34 0 80 27l46 -63q-64 -68 -132 -68z" />
    <glyph glyph-name="hungarumlaut" unicode="&#x2dd;" horiz-adv-x="621" 
d="M114 602l-57 68l187 166l68 -81zM338 603l-40 78l219 123l48 -93z" />
    <glyph glyph-name="Sigma" unicode="&#x3a3;" horiz-adv-x="609" 
d="M46 0v98l198 259l-192 237v113h508v-108h-358l188 -234l-191 -251h367v-114h-520z" />
    <glyph glyph-name="alpha" unicode="&#x3b1;" horiz-adv-x="635" 
d="M253 -8q-26 0 -50 4.5t-54.5 20.5t-53 42.5t-38 76t-15.5 115.5q0 143 65 225t172 82q41 0 78.5 -16.5t52.5 -43.5v48h134v-413q0 -19 12 -27t38 -9l-6 -102q-35 0 -48 2q-59 5 -90 29.5t-33 81.5q-20 -48 -64.5 -82t-99.5 -34zM274 104q50 0 91 45.5t45 113.5v90
q-13 40 -47 69t-71 29q-117 0 -117 -193q0 -75 26 -114.5t73 -39.5z" />
    <glyph glyph-name="beta" unicode="&#x3b2;" horiz-adv-x="630" 
d="M73 -220v738q0 112 68.5 181t181.5 69q104 0 167 -56.5t63 -139.5q0 -51 -31.5 -100t-82.5 -70q77 -19 115.5 -60t38.5 -117q0 -118 -72.5 -178t-189.5 -60q-64 0 -126 20v-227h-132zM329 97q63 0 95.5 28.5t32.5 94.5q0 116 -160 122v92q52 4 90 40.5t38 81.5t-31 74.5
t-76 29.5q-54 0 -83.5 -36.5t-29.5 -99.5v-406q67 -21 124 -21z" />
    <glyph glyph-name="gamma" unicode="&#x3b3;" horiz-adv-x="554" 
d="M191 -220q-10 78 -10 146q0 32 4 94q-19 96 -60.5 212t-66 170.5t-66.5 143.5h149q28 -56 66.5 -167t66.5 -227q43 89 61.5 130.5t43.5 122t26 141.5h140q-2 -64 -30 -145t-60 -141.5t-78 -143t-63 -118.5q11 -70 11 -149q0 -25 -2 -69h-132z" />
    <glyph glyph-name="delta" unicode="&#x3b4;" 
d="M299 -12q-121 0 -192 65t-71 192q0 81 45.5 142.5t117.5 92.5q-94 49 -94 141q0 69 64 108t150 39q102 0 208 -32l-24 -100q-81 23 -177 23q-90 0 -90 -50q0 -13 7.5 -24t26 -22t34.5 -19t48 -22.5t51 -23.5q71 -36 119 -99.5t48 -149.5q0 -68 -22 -120t-61 -82
t-86 -44.5t-102 -14.5zM306 96q66 0 98 43t32 113q0 37 -12 65t-37 48t-44 31t-52 26q-7 3 -11 5q-110 -53 -110 -174q0 -157 136 -157z" />
    <glyph glyph-name="pi" unicode="&#x3c0;" horiz-adv-x="669" 
d="M540 -11q-120 0 -120 137v314h-189v-440h-133v440h-64v106h585v-106h-66v-291q0 -48 49 -50q14 0 22 1l7 -100q-35 -11 -91 -11z" />
    <glyph glyph-name="phi" unicode="&#x3c6;" horiz-adv-x="773" 
d="M319 -220v209q-279 19 -279 278q0 131 72 205t207 88v119h133v-117q281 -19 281 -289q0 -262 -281 -284v-209h-133zM319 94v360q-81 -13 -112.5 -59.5t-31.5 -121.5q0 -76 32 -121t112 -58zM452 93q83 11 114 56t31 125q0 75 -31 121.5t-114 58.5v-361z" />
    <glyph glyph-name="omega" unicode="&#x3c9;" horiz-adv-x="853" 
d="M256 -11q-99 0 -156.5 70t-57.5 178q0 91 27 164t109 145h148q-70 -59 -110 -134.5t-40 -158.5q0 -23 4 -46t14 -48t30.5 -40.5t49.5 -15.5q37 0 61.5 32.5t24.5 88.5v136h132v-134q0 -58 24.5 -90.5t61.5 -32.5q29 0 49.5 15.5t30.5 40.5t14 48t4 46q0 82 -41 159
t-111 134h155q132 -117 132 -304q0 -103 -62 -178t-165 -75q-51 0 -100 30t-60 80q-20 -54 -68 -82t-100 -28z" />
    <glyph glyph-name="Wgrave" unicode="&#x1e80;" horiz-adv-x="1056" 
d="M608 745l-256 55l25 107l252 -72zM1046 707l-208 -707h-184l-126 520l-143 -520h-186l-169 707h141l129 -622l173 622h127l150 -618l159 617z" />
    <glyph glyph-name="wgrave" unicode="&#x1e81;" horiz-adv-x="899" 
d="M534 608l-224 111l46 95l220 -125zM170 0l-151 546h140l97 -440l118 440h161l102 -440l117 440h136l-172 -546h-168l-81 336l-18 85l-20 -84l-92 -337h-169z" />
    <glyph glyph-name="Wacute" unicode="&#x1e82;" horiz-adv-x="1056" 
d="M424 745l-21 90l251 73l25 -106zM1046 707l-208 -707h-184l-126 520l-143 -520h-186l-169 707h141l129 -622l173 622h127l150 -618l159 617z" />
    <glyph glyph-name="wacute" unicode="&#x1e83;" horiz-adv-x="899" 
d="M386 608l-40 80l219 124l47 -94zM170 0l-151 546h140l97 -440l118 440h161l102 -440l117 440h136l-172 -546h-168l-81 336l-18 85l-20 -84l-92 -337h-169z" />
    <glyph glyph-name="Wdieresis" unicode="&#x1e84;" horiz-adv-x="1056" 
d="M468 764h-127v127h127v-127zM710 764h-126v127h126v-127zM1046 707l-208 -707h-184l-126 520l-143 -520h-186l-169 707h141l129 -622l173 622h127l150 -618l159 617z" />
    <glyph glyph-name="wdieresis" unicode="&#x1e85;" horiz-adv-x="899" 
d="M384 653h-127v128h127v-128zM633 653h-126v128h126v-128zM170 0l-151 546h140l97 -440l118 440h161l102 -440l117 440h136l-172 -546h-168l-81 336l-18 85l-20 -84l-92 -337h-169z" />
    <glyph glyph-name="uni1EBC" unicode="&#x1ebc;" 
d="M379 755q-25 0 -66 18.5t-59 18.5q-38 0 -70 -26l-51 63q62 68 127 68q33 0 70.5 -19t51.5 -19q35 0 78 26l46 -62q-59 -68 -127 -68zM92 0v707h438v-108h-302v-193h280v-102h-280v-196h325v-108h-461z" />
    <glyph glyph-name="uni1EBD" unicode="&#x1ebd;" horiz-adv-x="571" 
d="M321 -12q-136 0 -207.5 62t-71.5 215q0 154 70.5 224t187.5 70q122 0 177 -70t55 -205v-48h-356q-1 -80 43 -110t120 -30q67 0 157 23l21 -101q-87 -30 -196 -30zM179 325h216q1 64 -24.5 101t-75.5 37q-49 0 -80.5 -36t-35.5 -102zM350 638q-26 0 -66.5 18.5t-59.5 18.5
q-37 0 -70 -27l-51 64q62 68 130 68q32 0 69.5 -19t53.5 -19q34 0 80 27l46 -63q-64 -68 -132 -68z" />
    <glyph glyph-name="Ygrave" unicode="&#x1ef2;" horiz-adv-x="662" 
d="M423 745l-256 55l25 107l252 -72zM261 0v243l-250 464h157l166 -348l177 348h152l-266 -461v-246h-136z" />
    <glyph glyph-name="ygrave" unicode="&#x1ef3;" horiz-adv-x="564" 
d="M166 -220l75 220h-52l-183 546h144l103 -349l26 -92l29 91l118 350h135l-267 -766h-128zM351 608l-224 111l46 95l220 -125z" />
    <glyph glyph-name="uni2012" unicode="&#x2012;" horiz-adv-x="400" 
d="M0 240v124h400v-124h-400z" />
    <glyph glyph-name="endash" unicode="&#x2013;" horiz-adv-x="628" 
d="M78 239v95h472v-95h-472z" />
    <glyph glyph-name="emdash" unicode="&#x2014;" horiz-adv-x="953" 
d="M78 239v95h797v-95h-797z" />
    <glyph glyph-name="quoteleft" unicode="&#x2018;" horiz-adv-x="213" 
d="M49 511v76q0 95 54 168h85q-30 -56 -30 -129v-115h-109z" />
    <glyph glyph-name="quoteright" unicode="&#x2019;" horiz-adv-x="214" 
d="M38 511q30 59 30 130v114h109v-76q0 -94 -55 -168h-84z" />
    <glyph glyph-name="quotesinglbase" unicode="&#x201a;" horiz-adv-x="229" 
d="M30 -122q29 57 29 130v114h111v-76q0 -94 -55 -168h-85z" />
    <glyph glyph-name="quotedblleft" unicode="&#x201c;" horiz-adv-x="393" 
d="M49 511v76q0 96 55 168h85q-31 -58 -31 -129v-115h-109zM229 511v76q0 95 54 168h85q-30 -59 -30 -129v-115h-109z" />
    <glyph glyph-name="quotedblright" unicode="&#x201d;" horiz-adv-x="395" 
d="M38 511q30 59 30 130v114h109v-76q0 -95 -54 -168h-85zM218 511q30 59 30 130v114h109v-76q0 -96 -55 -168h-84z" />
    <glyph glyph-name="quotedblbase" unicode="&#x201e;" horiz-adv-x="397" 
d="M30 -122q29 57 29 130v114h106v-76q0 -95 -54 -168h-81zM201 -122q31 58 31 130v114h105v-76q0 -95 -54 -168h-82z" />
    <glyph glyph-name="dagger" unicode="&#x2020;" horiz-adv-x="527" 
d="M194 0l9 482l-169 -8v121l168 -8l-9 167h141l-9 -167l168 8v-121l-169 8l8 -482h-138z" />
    <glyph glyph-name="daggerdbl" unicode="&#x2021;" horiz-adv-x="563" 
d="M212 0l9 166l-169 -7v121l169 -7v209l-169 -8v121l167 -8l-8 167h140l-8 -167l168 8v-121l-169 8v-209l169 7v-121l-169 7l9 -166h-139z" />
    <glyph glyph-name="bullet" unicode="&#x2022;" horiz-adv-x="372" 
d="M186 208q-60 0 -102.5 42t-42.5 102q0 61 42.5 103t102.5 42t102.5 -42t42.5 -103q0 -60 -42.5 -102t-102.5 -42z" />
    <glyph glyph-name="ellipsis" unicode="&#x2026;" horiz-adv-x="845" 
d="M61 0v126h139v-126h-139zM352 0v126h139v-126h-139zM646 0v126h139v-126h-139z" />
    <glyph glyph-name="perthousand" unicode="&#x2030;" horiz-adv-x="1228" 
d="M211 365q-75 0 -124 41.5t-49 127.5q0 83 51.5 131.5t124.5 48.5q78 0 127.5 -41t49.5 -131q0 -82 -52 -129.5t-128 -47.5zM211 458q31 0 49.5 21.5t18.5 62.5q0 80 -65 80q-27 0 -45 -20.5t-18 -67.5q0 -76 60 -76zM617 -10q-76 0 -124.5 41t-48.5 127q0 83 51.5 131.5
t124.5 48.5q78 0 127.5 -41t49.5 -131q0 -82 -52 -129t-128 -47zM617 83q31 0 49.5 21t18.5 62q0 80 -65 80q-27 0 -45.5 -21t-18.5 -67q0 -40 15 -57.5t46 -17.5zM1009 -10q-76 0 -125 41t-49 127q0 83 51.5 131.5t125.5 48.5q77 0 127 -41t50 -131q0 -82 -52 -129
t-128 -47zM1009 83q30 0 49 21t19 62q0 80 -65 80q-27 0 -45.5 -21t-18.5 -67q0 -40 15 -57.5t46 -17.5zM164 45l-70 73l564 532l70 -73z" />
    <glyph glyph-name="guilsinglleft" unicode="&#x2039;" horiz-adv-x="284" 
d="M155 46l-120 226l119 224l86 -34l-89 -190l88 -185z" />
    <glyph glyph-name="guilsinglright" unicode="&#x203a;" horiz-adv-x="284" 
d="M129 46l-84 42l88 184l-90 190l86 34l120 -224z" />
    <glyph glyph-name="uni203D" unicode="&#x203d;" horiz-adv-x="412" 
d="M99 202l-2 173v135h105v-106q59 55 59 103q0 93 -213 95l24 111q84 -3 148.5 -21t109.5 -64.5t45 -116.5q0 -22 -5.5 -43t-20 -40.5t-24.5 -33t-33 -32.5t-31 -25.5t-33 -24.5l-26 -17l1 -93h-104zM84 0v124h138v-124h-138z" />
    <glyph glyph-name="fraction" unicode="&#x2044;" horiz-adv-x="175" 
d="M-156 67l-50 54l537 540l50 -52z" />
    <glyph glyph-name="zerosuperior" unicode="&#x2070;" horiz-adv-x="378" 
d="M186 411q-162 0 -162 183q0 37 8 69t26 61.5t53 46t84 16.5q159 0 159 -182q0 -86 -39.5 -140t-128.5 -54zM189 485q38 0 51 31t13 85q0 106 -62 106q-39 0 -52.5 -30t-13.5 -81q0 -111 64 -111z" />
    <glyph glyph-name="foursuperior" unicode="&#x2074;" horiz-adv-x="337" 
d="M177 414v83h-161v75l112 210h140v-213h55v-72h-55v-83h-91zM84 569h93v160z" />
    <glyph glyph-name="fivesuperior" unicode="&#x2075;" horiz-adv-x="332" 
d="M150 407q-35 0 -112 16l18 68q59 -17 92 -17q26 0 40 15t14 37q0 26 -17 38.5t-44 12.5q-47 0 -87 -3v208h231v-78h-141v-56h19q140 0 140 -113q0 -59 -43.5 -93.5t-109.5 -34.5z" />
    <glyph glyph-name="sixsuperior" unicode="&#x2076;" horiz-adv-x="356" 
d="M182 408q-78 0 -115.5 37t-37.5 129q0 102 51 157.5t131 55.5q44 0 99 -15l-24 -75q-33 9 -72 9q-31 0 -54 -21.5t-30 -61.5q34 20 72 20q127 0 127 -103q0 -68 -41.5 -100t-105.5 -32zM187 480q18 0 29.5 16t11.5 39q0 49 -46 49q-19 0 -51 -9v-23q1 -40 14.5 -56
t41.5 -16z" />
    <glyph glyph-name="sevensuperior" unicode="&#x2077;" horiz-adv-x="278" 
d="M108 406l-96 22l165 264h-171v90h266v-77z" />
    <glyph glyph-name="eightsuperior" unicode="&#x2078;" horiz-adv-x="349" 
d="M173 410q-149 0 -149 102q0 59 65 96q-51 31 -51 80t40 74t100 25q59 0 97.5 -25.5t38.5 -67.5q0 -52 -59 -83q69 -35 69 -92q0 -51 -40.5 -80t-110.5 -29zM175 477q24 0 36.5 13t12.5 32q0 15 -17.5 26.5t-55.5 27.5q-28 -20 -28 -56q0 -19 13.5 -31t38.5 -12zM187 640
q12 10 16.5 15t8 13t3.5 18q0 33 -39 33q-43 0 -43 -35q0 -10 9.5 -18.5t17.5 -12.5t27 -13z" />
    <glyph glyph-name="ninesuperior" unicode="&#x2079;" horiz-adv-x="351" 
d="M148 409q-47 0 -99 16l24 74q33 -9 71 -9q32 0 55 21.5t30 61.5q-35 -20 -73 -20q-127 0 -127 103q0 67 41.5 99.5t105.5 32.5q78 0 116 -37t38 -129q0 -101 -51 -157t-131 -56zM177 612q21 0 51 10q2 49 -11 71.5t-44 22.5q-18 0 -31 -15t-13 -37q0 -26 13.5 -39
t34.5 -13z" />
    <glyph glyph-name="uni207A" unicode="&#x207a;" horiz-adv-x="398" 
d="M161 448l1 134l-134 -1v72l134 -2l-1 136h73l-3 -138l140 4v-72l-139 1l2 -134h-73z" />
    <glyph glyph-name="minussuperior" unicode="&#x207b;" horiz-adv-x="397" 
d="M28 581v71h342v-71h-342z" />
    <glyph glyph-name="uni207C" unicode="&#x207c;" horiz-adv-x="398" 
d="M28 503v72h342v-72h-342zM28 657v71h342v-71h-342z" />
    <glyph glyph-name="parenleftsuperior" unicode="&#x207d;" horiz-adv-x="233" 
d="M191 268q-7 5 -18 13.5t-40 40t-51.5 67t-40.5 93.5t-18 121q0 64 17.5 120.5t42.5 91.5t50 61t43 37l17 11l56 -60q-5 -3 -13.5 -10t-30.5 -31t-38.5 -51.5t-30 -73t-13.5 -94.5q0 -50 13 -96.5t31.5 -77.5t37 -55t31.5 -35l13 -12z" />
    <glyph glyph-name="parenrightsuperior" unicode="&#x207e;" horiz-adv-x="233" 
d="M64 268l-58 60q5 4 13.5 11.5t30.5 34.5t39 56.5t30.5 76.5t13.5 97q0 49 -13 94t-31.5 74t-37.5 51t-32 31l-13 10l57 60q7 -4 18.5 -11.5t40.5 -36t51 -62t40.5 -90.5t18.5 -121q0 -63 -17.5 -120.5t-42 -95t-49 -65.5t-41.5 -41z" />
    <glyph glyph-name="n.superior" unicode="&#x207f;" horiz-adv-x="444" 
d="M51 416v360h99v-37q66 47 124 47q75 0 99.5 -37t24.5 -105v-228h-98v218q0 41 -11.5 56.5t-44.5 15.5q-38 0 -94 -28v-262h-99z" />
    <glyph glyph-name="zeroinferior" unicode="&#x2080;" horiz-adv-x="378" 
d="M186 -4q-162 0 -162 183q0 37 8 69t26 61.5t53 46t84 16.5q159 0 159 -182q0 -86 -39.5 -140t-128.5 -54zM189 70q38 0 51 31t13 85q0 106 -62 106q-39 0 -52.5 -30t-13.5 -81q0 -111 64 -111z" />
    <glyph glyph-name="oneinferior" unicode="&#x2081;" horiz-adv-x="245" 
d="M95 0v287h-79v77q50 2 180 5v-369h-101z" />
    <glyph glyph-name="twoinferior" unicode="&#x2082;" horiz-adv-x="305" 
d="M12 0v66q80 57 125.5 100.5t45.5 77.5q0 20 -14 31.5t-36 11.5q-44 0 -78 -27q-5 9 -17 33t-17 33q53 45 130 45q60 0 96 -32.5t36 -83.5q0 -91 -151 -175h155v-80h-275z" />
    <glyph glyph-name="threeinferior" unicode="&#x2083;" horiz-adv-x="304" 
d="M133 -5q-56 0 -115 16l17 74q49 -11 89 -11q63 0 63 44q0 27 -21.5 37.5t-71.5 12.5v47q43 4 59.5 16t16.5 35q-1 15 -13 23.5t-29 8.5q-40 0 -75 -16q-3 11 -11.5 35.5t-10.5 30.5q48 25 108 25t95 -24.5t35 -72.5q0 -24 -13.5 -45.5t-36.5 -31.5q68 -21 68 -89
q0 -60 -42.5 -87.5t-111.5 -27.5z" />
    <glyph glyph-name="fourinferior" unicode="&#x2084;" horiz-adv-x="337" 
d="M177 0v83h-161v75l112 210h140v-213h55v-72h-55v-83h-91zM84 155h93v160z" />
    <glyph glyph-name="fiveinferior" unicode="&#x2085;" horiz-adv-x="332" 
d="M150 -7q-35 0 -112 16l18 68q59 -17 92 -17q26 0 40 15t14 37q0 26 -17 38.5t-44 12.5q-47 0 -87 -3v208h231v-78h-141v-56h19q140 0 140 -113q0 -59 -43.5 -93.5t-109.5 -34.5z" />
    <glyph glyph-name="sixinferior" unicode="&#x2086;" horiz-adv-x="356" 
d="M182 -6q-78 0 -115.5 37t-37.5 129q0 102 51 157.5t131 55.5q44 0 99 -15l-24 -75q-33 9 -72 9q-31 0 -54 -21.5t-30 -61.5q34 20 72 20q127 0 127 -103q0 -68 -41.5 -100t-105.5 -32zM187 66q18 0 29.5 16t11.5 39q0 49 -46 49q-19 0 -51 -9v-23q1 -40 14.5 -56
t41.5 -16z" />
    <glyph glyph-name="seveninferior" unicode="&#x2087;" horiz-adv-x="278" 
d="M108 -8l-96 22l165 264h-171v90h266v-77z" />
    <glyph glyph-name="eightinferior" unicode="&#x2088;" horiz-adv-x="349" 
d="M173 -4q-149 0 -149 102q0 59 65 96q-51 31 -51 80t40 74t100 25q59 0 97.5 -25.5t38.5 -67.5q0 -52 -59 -83q69 -35 69 -92q0 -51 -40.5 -80t-110.5 -29zM175 63q24 0 36.5 13t12.5 32q0 15 -17.5 26.5t-55.5 27.5q-28 -20 -28 -56q0 -19 13.5 -31t38.5 -12zM187 226
q12 10 16.5 15t8 13t3.5 18q0 33 -39 33q-43 0 -43 -35q0 -10 9.5 -18.5t17.5 -12.5t27 -13z" />
    <glyph glyph-name="nineinferior" unicode="&#x2089;" horiz-adv-x="351" 
d="M148 -6q-47 0 -99 16l24 74q33 -9 71 -9q32 0 55 21.5t30 61.5q-35 -20 -73 -20q-127 0 -127 103q0 67 41.5 99.5t105.5 32.5q78 0 116 -37t38 -129q0 -101 -51 -157t-131 -56zM177 197q21 0 51 10q2 49 -11 71.5t-44 22.5q-18 0 -31 -15t-13 -37q0 -26 13.5 -39
t34.5 -13z" />
    <glyph glyph-name="parenleft.inferior" unicode="&#x208d;" horiz-adv-x="255" 
d="M191 -148q-7 5 -18 13.5t-40 40t-51.5 67t-40.5 93.5t-18 121q0 64 17.5 120.5t42.5 91.5t50 61t43 37l17 11l56 -60q-5 -3 -13.5 -10t-30.5 -31t-38.5 -51.5t-30 -73t-13.5 -94.5q0 -50 13 -96.5t31.5 -77.5t37 -55t31.5 -35l13 -12z" />
    <glyph glyph-name="parenright.inferior" unicode="&#x208e;" horiz-adv-x="255" 
d="M64 -148l-58 60q5 4 13.5 11.5t30.5 34.5t39 56.5t30.5 76.5t13.5 97q0 49 -13 94t-31.5 74t-37.5 51t-32 31l-13 10l57 60q7 -4 18.5 -11.5t40.5 -36t51 -62t40.5 -90.5t18.5 -121q0 -63 -17.5 -120.5t-42 -95t-49 -65.5t-41.5 -41z" />
    <glyph glyph-name="colonsign" unicode="&#x20a1;" horiz-adv-x="811" 
d="M49 -75l88 172q-87 93 -87 252q0 178 96.5 272t281.5 94h26l44 85h69l-47 -91q49 -5 92 -20l58 111h72l-353 -690q32 -5 61 -5q90 0 165 22l30 -105q-89 -32 -213 -32q-54 0 -101 9l-38 -74h-72l46 90q-48 15 -82 41l-67 -131h-69zM325 128l236 459q-44 9 -97 12
l-214 -418q31 -34 75 -53zM212 244l182 354q-93 -10 -148.5 -69t-55.5 -170q0 -66 22 -115z" />
    <glyph glyph-name="uni20A2" unicode="&#x20a2;" horiz-adv-x="726" 
d="M443 -10q-200 0 -298 93.5t-98 265.5q0 177 102.5 271.5t289.5 94.5q141 0 228 -38l-37 -102q-86 25 -189 26q-120 1 -187.5 -59t-67.5 -183q0 -171 138 -228v335h134v-73q23 33 61 58.5t82 25.5t71 -9l-18 -110q-32 6 -70 6q-39 0 -73 -18.5t-53 -43.5v-197h29
q75 1 152 22l30 -105q-88 -32 -226 -32z" />
    <glyph glyph-name="franc" unicode="&#x20a3;" horiz-adv-x="783" 
d="M86 0v707h464v-108h-327v-176l312 1v-73q23 33 62.5 58.5t84.5 25.5q44 0 71 -9l-19 -110q-31 6 -70 6t-74 -18.5t-55 -43.5v-260h-133v321h-179v-321h-137z" />
    <glyph glyph-name="lira" unicode="&#x20a4;" horiz-adv-x="552" 
d="M71 0v108q53 24 69 127h-87v101h93v45h-93v101h93q0 46 4 61q5 39 20 68t40.5 46.5t49 28t61 15t60.5 6t62 1.5l5 -110q-9 -1 -27.5 -2.5t-26 -2t-23 -2t-22 -3.5t-17.5 -5t-16 -7t-12.5 -9.5t-10.5 -12.5t-6 -16.5t-4 -20.5q0 -6 -1 -17.5t-1 -17.5h158v-101h-159
q-2 -32 -2 -45h161v-101h-174q-14 -85 -48 -127h297v-108h-443z" />
    <glyph glyph-name="mill" unicode="&#x20a5;" horiz-adv-x="949" 
d="M171 -134l238 457q-2 72 -19.5 96t-62.5 24q-56 0 -130 -44v-399h-133v546h133v-59q30 24 81.5 48.5t95.5 24.5q88 0 131 -53l123 234h109l-104 -199q47 18 84 18q49 0 83.5 -14.5t51.5 -33t26 -52t10.5 -55.5t1.5 -59v-346h-133v331q0 59 -18 86t-68 27q-42 0 -106 -31
l-23 -45q1 -5 1 -44v-324h-132v118l-131 -252h-109z" />
    <glyph glyph-name="uni20A6" unicode="&#x20a6;" horiz-adv-x="906" 
d="M153 0v254h-109v71h109v59h-109v71h109v252h167l143 -252h162v252h137v-252h100v-71h-100v-59h100v-71h-100v-254h-175l-145 254h-153v-254h-136zM289 325h113l-33 59h-80v-59zM537 325h88v59h-121zM289 455h39l-39 70v-70zM625 171v83h-47z" />
    <glyph glyph-name="uni20A7" unicode="&#x20a7;" horiz-adv-x="1496" 
d="M87 0v707h258q116 0 186 -63.5t70 -176.5q0 -106 -80.5 -176t-227.5 -70h-69v-221h-137zM1212 -12q-97 0 -171 23l16 104q103 -18 158 -18q108 0 108 53q0 20 -20.5 35.5t-51 24.5t-66 23.5t-66 32t-51 50.5t-20.5 77q0 81 61.5 124t154.5 43q87 0 163 -29l-24 -99
q-70 21 -135 21q-88 0 -88 -49q0 -21 20 -36.5t50.5 -25.5t66 -25t66 -32.5t50.5 -51t20 -77.5q0 -47 -22 -81.5t-59 -52.5t-77 -26t-83 -8zM879 -13q-90 0 -137.5 40.5t-47.5 135.5v281h-80v102h80v112h133v-112h169v-102h-169v-274q0 -39 17 -54t58 -15q49 0 108 16
l15 -106q-67 -24 -146 -24zM224 599v-271h75q79 0 119.5 35.5t40.5 99.5q0 136 -136 136h-99z" />
    <glyph glyph-name="uni20A8" unicode="&#x20a8;" horiz-adv-x="1080" 
d="M781 -12q-120 0 -200.5 35.5t-143.5 113.5l-96 124q-21 -3 -49 -3h-68v-258h-138v707h258q117 0 186.5 -56t69.5 -166q0 -62 -30.5 -112.5t-90.5 -79.5l87 -107q76 -93 220 -93q123 0 123 60q0 23 -28.5 38.5t-68.5 28t-80.5 30.5t-69 55t-28.5 91q0 79 60.5 121.5
t152.5 42.5q84 0 164 -28l-23 -99q-84 20 -141 20q-43 0 -62 -14.5t-19 -35.5q0 -23 28 -40t68 -31t80.5 -32.5t68.5 -54t28 -85.5q0 -87 -68 -129.5t-190 -42.5zM224 358h74q161 0 161 122q0 64 -32 91.5t-105 27.5h-98v-241z" />
    <glyph glyph-name="uni20A9" unicode="&#x20a9;" horiz-adv-x="1133" 
d="M1076 707l-67 -227h79v-71h-100l-21 -73h121v-71h-142l-78 -265h-184l-65 265h-131l-73 -265h-186l-63 265h-120v71h103l-18 73h-85v71h68l-54 227h141l47 -227h192l63 227h127l55 -227h196l58 226zM702 409l18 -73h124l18 73h-160zM262 409l15 -73h123l20 73h-158z
M292 265l38 -180l50 180h-88zM737 265l43 -176l45 176h-88zM527 409l-20 -73h95l-18 73h-57zM558 520l-11 -40h20z" />
    <glyph glyph-name="uni20AA" unicode="&#x20aa;" horiz-adv-x="969" 
d="M315 1v465h137v-342h141q49 0 80.5 7.5t50 19t27.5 38.5t11 52.5t2 73.5v391h136v-404q0 -84 -11.5 -136.5t-43 -92t-89.5 -56t-151 -16.5h-290zM86 0v707h290q93 0 151 -16.5t89.5 -56t43 -92t11.5 -136.5v-165h-136v152q0 40 -1.5 62.5t-6.5 48t-16 37.5t-29.5 23.5
t-47 15.5t-69.5 4h-142v-584h-137z" />
    <glyph glyph-name="dong" unicode="&#x20ab;" horiz-adv-x="630" 
d="M268 100q-45 0 -79.5 8.5t-68 31t-52 71.5t-18.5 121q0 114 70.5 174t191.5 60q48 0 86 -9v58h-119v68h119v71h133v-71h65v-68h-65v-508h-133v44q-60 -51 -130 -51zM291 211q46 0 107 33v205q-44 11 -84 11q-75 0 -103 -35t-28 -96q0 -118 108 -118zM75 0v67h457v-67
h-457z" />
    <glyph glyph-name="Euro" unicode="&#x20ac;" horiz-adv-x="594" 
d="M386 -9q-118 0 -192.5 48.5t-100.5 136.5h-58v64h48q-2 18 -2 29q0 15 2 39h-48v65h60q26 87 99 133.5t189 46.5q96 0 178 -35l-35 -92q-76 21 -142 22q-111 0 -151 -75h212v-65h-234q-1 -10 -1 -32q0 -25 2 -36h233v-64h-210q46 -80 165 -80q61 0 134 19l28 -95
q-81 -29 -176 -29z" />
    <glyph glyph-name="uni20AD" unicode="&#x20ad;" horiz-adv-x="772" 
d="M146 0v321h-109v106h109v280h137v-280h34l232 280h174l-246 -280h222v-106h-219l261 -321h-176l-243 321h-39v-321h-137z" />
    <glyph glyph-name="uni20AE" unicode="&#x20ae;" horiz-adv-x="663" 
d="M264 0v192l-141 -66v76l141 66v82l-141 -66v72l141 66v176h-229v109h595v-109h-229v-116l134 63v-72l-134 -63v-82l134 63v-76l-134 -63v-252h-137z" />
    <glyph glyph-name="uni20B1" unicode="&#x20b1;" horiz-adv-x="781" 
d="M42 488v71h97v148h258q89 0 152.5 -38.5t88.5 -109.5h104v-71h-90q1 -7 1 -21q0 -4 -0.5 -10.5t-0.5 -9.5h90v-71h-107q-29 -71 -103.5 -113t-186.5 -42h-69v-221h-137v376h-97v71h97v41h-97zM511 463q0 17 -1 25h-234v-41h234q0 2 0.5 7.5t0.5 8.5zM351 328q91 0 131 48
h-206v-48h75zM276 599v-40h207q-32 40 -108 40h-99z" />
    <glyph glyph-name="uni2113" unicode="&#x2113;" horiz-adv-x="485" 
d="M234 -12q-71 0 -101.5 41t-30.5 132v82q-10 -8 -29 -20.5t-27 -18.5l-38 51l94 66v193q0 121 63.5 184.5t143.5 63.5q53 0 93 -28.5t40 -94.5q0 -140 -207 -307v-138q0 -73 10.5 -98t43.5 -25q46 0 76 30l31 -39q-65 -74 -162 -74zM235 567v-145q111 108 111 195
q0 42 -10 62.5t-39 20.5q-62 0 -62 -133z" />
    <glyph glyph-name="uni2116" unicode="&#x2116;" horiz-adv-x="1047" 
d="M834 213q-75 0 -116 39t-41 106q0 70 44 110.5t117 40.5q80 0 119.5 -39t39.5 -109t-45.5 -109t-117.5 -39zM836 282q70 0 70 79q0 80 -70 80t-70 -81q0 -33 18 -55.5t52 -22.5zM683 70v78h310v-78h-310zM605 0h-151l-256 376l6 -56v-320h-125v546h144l259 -385l-4 55
v330h127v-546z" />
    <glyph glyph-name="uni2117" unicode="&#x2117;" horiz-adv-x="795" 
d="M565 347q0 -45 -19 -75.5t-50.5 -43t-55.5 -17t-50 -4.5h-27v-121h-86v392h140q67 0 107.5 -31.5t40.5 -99.5zM475 345q0 65 -69 65h-43v-135h30q82 0 82 70zM389 -85q-162 0 -253.5 98t-91.5 263q0 166 100 261t264 95q165 0 254 -98.5t89 -259.5q0 -165 -97 -262
t-265 -97zM392 -21q137 0 209.5 82t72.5 214q0 130 -73.5 211.5t-201.5 81.5q-133 0 -206 -81t-73 -210q0 -128 71.5 -213t200.5 -85z" />
    <glyph glyph-name="uni2120" unicode="&#x2120;" horiz-adv-x="861" 
d="M182 347q-82 0 -135 16l12 71q68 -15 114 -15q73 0 73 37q0 14 -20 24t-48.5 17.5t-57 18.5t-48.5 34.5t-20 58.5q0 53 45 81.5t107 28.5q66 0 121 -19l-16 -67q-54 13 -104 13q-54 0 -54 -30q0 -18 30 -31t66.5 -22t66.5 -35t30 -67q0 -42 -29.5 -69.5t-63 -36
t-69.5 -8.5zM389 353v355h106l100 -259l106 259h101v-355h-91l3 192l-77 -192h-91l-68 189l1 -189h-90z" />
    <glyph glyph-name="trademark" unicode="&#x2122;" horiz-adv-x="827" 
d="M356 353v355h105l101 -259l105 259h101v-355h-91l3 192l-76 -192h-92l-68 189l2 -189h-90zM132 353v275h-111v80h313v-80h-111v-275h-91z" />
    <glyph glyph-name="Omega" unicode="&#x2126;" horiz-adv-x="857" 
d="M54 0v115h148q-140 80 -140 261q0 155 100.5 248.5t272.5 93.5q175 0 267 -95.5t92 -241.5q0 -182 -142 -266h149v-115h-297v109q74 57 112 118t38 144q0 103 -58.5 169.5t-169.5 66.5q-108 0 -166.5 -65.5t-58.5 -171.5q0 -62 23 -113t50 -79.5t76 -68.5v-109h-296z" />
    <glyph glyph-name="estimated" unicode="&#x212e;" horiz-adv-x="649" 
d="M330 -8q-141 0 -219 72t-78 203q0 129 85.5 213t215.5 84q127 0 202.5 -63.5t76.5 -182.5l1 -54h-427v-59q0 -61 39 -101t108 -40q135 0 207 101l54 -40q-37 -66 -113 -99.5t-152 -33.5zM187 328h272v22q0 71 -28.5 108t-96.5 37q-72 0 -109.5 -37.5t-37.5 -107.5v-22z
" />
    <glyph glyph-name="uni2139" unicode="&#x2139;" horiz-adv-x="800" 
d="M400 -9q-150 0 -256.5 106t-106.5 257q0 150 106.5 256.5t256.5 106.5t256.5 -106.5t106.5 -256.5q0 -151 -106.5 -257t-256.5 -106zM400 62q121 0 206 85.5t86 206.5q0 121 -85.5 206.5t-206.5 85.5t-206.5 -85.5t-85.5 -206.5t85.5 -206.5t206.5 -85.5zM400 452
q-30 0 -51.5 21t-21.5 52q0 30 21.5 51t51.5 21t51.5 -21t21.5 -51q0 -31 -21.5 -52t-51.5 -21zM330 144v274h139v-274h-139z" />
    <glyph glyph-name="uni213B" unicode="&#x213b;" horiz-adv-x="804" 
d="M754 0h-704v309h111v344h309l175 -175v-169h109v-309zM585 483l-109 110v-110h109zM606 309v135h-170v170h-236v-305h406zM715 39l-1 231h-625v-231h626zM390 529h-144v39h144v-39zM560 360h-314v38h314v-38zM390 444h-144v39h144v-39zM390 80h-144v39h144v-39z" />
    <glyph glyph-name="onethird" unicode="&#x2153;" horiz-adv-x="794" 
d="M600 -5q-56 0 -115 16l17 74q49 -11 89 -11q63 0 63 44q0 27 -21.5 37.5t-71.5 12.5v47q43 4 59.5 16t16.5 35q-1 15 -13 23.5t-29 8.5q-40 0 -75 -16q-3 11 -11.5 35.5t-10.5 30.5q48 25 108 25t95 -24.5t35 -72.5q0 -24 -13.5 -45.5t-36.5 -31.5q68 -21 68 -89
q0 -60 -42.5 -87.5t-111.5 -27.5zM115 67l-50 54l537 540l50 -52zM118 415v287h-79v77q50 2 180 5v-369h-101z" />
    <glyph glyph-name="twothirds" unicode="&#x2154;" horiz-adv-x="810" 
d="M26 415v66q80 57 125.5 100.5t45.5 77.5q0 20 -14 31.5t-36 11.5q-44 0 -78 -27q-4 9 -16.5 33t-17.5 33q53 45 130 45q60 0 96 -32.5t36 -83.5q0 -91 -151 -175h155v-80h-275zM616 -5q-56 0 -115 16l17 74q49 -11 89 -11q63 0 63 44q0 27 -21.5 37.5t-71.5 12.5v47
q43 4 59.5 16t16.5 35q-1 15 -13 23.5t-29 8.5q-40 0 -75 -16q-3 11 -11.5 35.5t-10.5 30.5q48 25 108 25t95 -24.5t35 -72.5q0 -24 -13.5 -45.5t-36.5 -31.5q68 -21 68 -89q0 -60 -42.5 -87.5t-111.5 -27.5zM156 67l-50 54l537 540l50 -52z" />
    <glyph glyph-name="oneeighth" unicode="&#x215b;" horiz-adv-x="802" 
d="M603 -4q-149 0 -149 102q0 59 65 96q-51 31 -51 80t40 74t100 25q59 0 97.5 -25.5t38.5 -67.5q0 -52 -59 -83q69 -35 69 -92q0 -51 -40.5 -80t-110.5 -29zM605 63q24 0 36.5 13t12.5 32q0 15 -17.5 26.5t-55.5 27.5q-28 -20 -28 -56q0 -19 13.5 -31t38.5 -12zM617 226
q12 10 16.5 15t8 13t3.5 18q0 33 -39 33q-43 0 -43 -35q0 -10 9.5 -18.5t17.5 -12.5t27 -13zM118 415v287h-79v77q50 2 180 5v-369h-101zM114 67l-50 54l537 540l50 -52z" />
    <glyph glyph-name="threeeighths" unicode="&#x215c;" horiz-adv-x="810" 
d="M611 -4q-149 0 -149 102q0 59 65 96q-51 31 -51 80t40 74t100 25q59 0 97.5 -25.5t38.5 -67.5q0 -52 -59 -83q69 -35 69 -92q0 -51 -40.5 -80t-110.5 -29zM156 410q-56 0 -115 16l17 74q49 -11 89 -11q63 0 63 44q0 27 -21.5 37.5t-71.5 12.5v47q43 4 59.5 16t16.5 35
q-1 15 -13 23.5t-29 8.5q-40 0 -75 -16q-3 11 -11.5 35.5t-10.5 30.5q48 25 108 25t95 -24.5t35 -72.5q0 -24 -13.5 -45.5t-36.5 -31.5q68 -21 68 -89q0 -60 -42.5 -87.5t-111.5 -27.5zM122 67l-50 54l537 540l50 -52zM613 63q24 0 36.5 13t12.5 32q0 15 -17.5 26.5
t-55.5 27.5q-28 -20 -28 -56q0 -19 13.5 -31t38.5 -12zM625 226q12 10 16.5 15t8 13t3.5 18q0 33 -39 33q-43 0 -43 -35q0 -10 9.5 -18.5t17.5 -12.5t27 -13z" />
    <glyph glyph-name="fiveeighths" unicode="&#x215d;" horiz-adv-x="807" 
d="M608 -4q-149 0 -149 102q0 59 65 96q-51 31 -51 80t40 74t100 25q59 0 97.5 -25.5t38.5 -67.5q0 -52 -59 -83q69 -35 69 -92q0 -51 -40.5 -80t-110.5 -29zM175 407q-35 0 -112 16l18 68q60 -17 92 -17q26 0 40 15t14 37q0 26 -17 38.5t-44 12.5q-47 0 -87 -3v208h231v-78
h-141v-56h19q140 0 140 -113q0 -59 -43.5 -93.5t-109.5 -34.5zM119 67l-50 54l537 540l50 -52zM610 63q24 0 36.5 13t12.5 32q0 15 -17.5 26.5t-55.5 27.5q-28 -20 -28 -56q0 -19 13.5 -31t38.5 -12zM622 226q12 10 16.5 15t8 13t3.5 18q0 33 -39 33q-43 0 -43 -35
q0 -10 9.5 -18.5t17.5 -12.5t27 -13z" />
    <glyph glyph-name="seveneighths" unicode="&#x215e;" horiz-adv-x="789" 
d="M590 -4q-149 0 -149 102q0 59 65 96q-51 31 -51 80t40 74t100 25q59 0 97.5 -25.5t38.5 -67.5q0 -52 -59 -83q69 -35 69 -92q0 -51 -40.5 -80t-110.5 -29zM592 63q24 0 36.5 13t12.5 32q0 15 -17.5 26.5t-55.5 27.5q-28 -20 -28 -56q0 -19 13.5 -31t38.5 -12zM604 226
q12 10 16.5 15t8 13t3.5 18q0 33 -39 33q-43 0 -43 -35q0 -10 9.5 -18.5t17.5 -12.5t27 -13zM101 67l-50 54l537 540l50 -52zM138 406l-96 22l165 264h-171v90h266v-77z" />
    <glyph glyph-name="uni2190" unicode="&#x2190;" horiz-adv-x="703" 
d="M309 33l-267 270l263 266l80 -80l-122 -125h440v-124h-445l129 -129z" />
    <glyph glyph-name="arrowup" unicode="&#x2191;" horiz-adv-x="745" 
d="M312 -31v444l-130 -128l-77 77l269 268l266 -263l-80 -81l-124 122v-440z" />
    <glyph glyph-name="uni2192" unicode="&#x2192;" horiz-adv-x="703" 
d="M398 36l-80 80l122 124h-440v124h445l-128 130l77 77l267 -269z" />
    <glyph glyph-name="arrowdown" unicode="&#x2193;" horiz-adv-x="745" 
d="M371 -68l-266 263l80 80l125 -121v440l123 -1v-444l130 128l77 -78z" />
    <glyph glyph-name="uni2196" unicode="&#x2196;" horiz-adv-x="745" 
d="M540 16l-314 314l1 -182h-110v380h374v-113h-174l311 -311z" />
    <glyph glyph-name="uni2197" unicode="&#x2197;" horiz-adv-x="745" 
d="M205 8l-88 88l314 313l-182 -1v111h379v-375h-113v175z" />
    <glyph glyph-name="uni2198" unicode="&#x2198;" horiz-adv-x="745" 
d="M254 27v113h174l-311 311l88 87l314 -314l-1 182h110v-379h-374z" />
    <glyph glyph-name="uni2199" unicode="&#x2199;" horiz-adv-x="745" 
d="M117 37v374h113v-174l311 310l87 -87l-313 -314h182v-109h-380z" />
    <glyph glyph-name="partialdiff" unicode="&#x2202;" horiz-adv-x="611" 
d="M299 -13q-53 0 -94 9.5t-78.5 33t-58 71t-20.5 116.5q0 92 66.5 164.5t177.5 72.5q38 0 110 -10q-48 128 -228 170l41 111q348 -82 348 -398q0 -340 -264 -340zM292 98q36 0 61.5 14.5t39 34.5t21.5 53.5t9.5 59.5t1.5 63v18q-66 11 -113 11q-60 0 -95 -37t-35 -102
q0 -53 28.5 -84t81.5 -31z" />
    <glyph glyph-name="Delta" unicode="&#x2206;" horiz-adv-x="733" 
d="M188 114h360l-127 362l-43 143l-50 -145zM2 0l292 707h178l260 -707h-730z" />
    <glyph glyph-name="product" unicode="&#x220f;" horiz-adv-x="779" 
d="M114 -220v819h-100v108h751v-108h-101v-819h-137v819h-276v-819h-137z" />
    <glyph glyph-name="summation" unicode="&#x2211;" horiz-adv-x="547" 
d="M31 -220v88l179 375l-180 376v88h489v-108h-359l176 -356l-172 -354h356v-109h-489z" />
    <glyph glyph-name="minus" unicode="&#x2212;" 
d="M41 253v103h519v-103h-519z" />
    <glyph glyph-name="radical" unicode="&#x221a;" horiz-adv-x="714" 
d="M263 0l-122 436h-141v110h253l83 -331l23 -106l30 106l196 622h136l-277 -837h-181z" />
    <glyph glyph-name="infinity" unicode="&#x221e;" horiz-adv-x="975" 
d="M246 123q-88 0 -132.5 46.5t-44.5 127.5t49 130t132 49q19 0 39.5 -5t35.5 -11t39 -20.5t37 -23t43 -30t44 -31.5q18 12 53.5 36.5t52 35t42.5 24.5t47 19.5t44 5.5q86 0 133 -47t47 -126q0 -81 -49.5 -130.5t-135.5 -49.5q-29 0 -60.5 12t-51 24t-63.5 42.5t-64 43.5
q-17 -11 -52 -36t-51 -35.5t-42 -25t-47.5 -20t-44.5 -5.5zM251 222q13 0 26.5 3.5t32 13.5t28 16t34 22.5t31.5 21.5q-6 4 -23 16t-24.5 17t-22 14t-23.5 13t-20.5 9.5t-21.5 7.5t-20 2q-35 0 -56 -23t-21 -54q0 -34 21 -56.5t59 -22.5zM726 222q36 0 57 23t21 55
q0 34 -22 56t-59 22q-8 0 -17 -2t-17 -4.5t-19.5 -8.5t-18.5 -9.5t-20.5 -12t-19.5 -12.5t-21.5 -14.5t-20.5 -13.5q11 -7 41 -27t43.5 -27.5t34.5 -16t38 -8.5z" />
    <glyph glyph-name="integral" unicode="&#x222b;" horiz-adv-x="416" 
d="M-56 -231l-9 111q15 2 40 4t36 3t29 4t25 7t18 11.5t15 17.5t7 24.5t3 33.5v518q0 55 17.5 95.5t45 63t69.5 36t81.5 17.5t90.5 4l9 -114q-13 -1 -41.5 -3t-38 -3t-29.5 -4t-26 -7t-17.5 -11t-15 -17t-7 -24t-3.5 -33v-518q0 -55 -17 -95.5t-43.5 -63.5t-68 -36t-80 -17
t-90.5 -4z" />
    <glyph glyph-name="approxequal" unicode="&#x2248;" 
d="M393 106q-51 0 -110 30.5t-86 30.5q-42 0 -80 -32l-62 69q72 82 148 82q50 0 105 -31t86 -31q16 0 24.5 1t26 8.5t37.5 23.5l63 -62q-25 -36 -68.5 -62.5t-83.5 -26.5zM393 336q-51 0 -110 30.5t-86 30.5q-43 0 -80 -32l-62 70q72 81 148 81q50 0 105 -30.5t86 -30.5
q17 0 24.5 0.5t26 8.5t37.5 24l63 -63q-25 -36 -68.5 -62.5t-83.5 -26.5z" />
    <glyph glyph-name="notequal" unicode="&#x2260;" 
d="M43 11l93 122h-73l-1 103h150l99 133h-248l-1 103h325l85 110h89l-84 -110h61v-103h-137l-100 -133h237v-103h-312l-93 -122h-90z" />
    <glyph glyph-name="lessequal" unicode="&#x2264;" 
d="M521 127l-443 161v131l443 161v-115l-312 -112l312 -111v-115zM76 0v109h447v-109h-447z" />
    <glyph glyph-name="greaterequal" unicode="&#x2265;" 
d="M78 127v115l312 111l-312 112v115l443 -161v-131zM76 0v109h447v-109h-447z" />
    <glyph glyph-name="uni231A" unicode="&#x231a;" horiz-adv-x="786" 
d="M756 354q0 -151 -106.5 -257t-256.5 -106t-256.5 106t-106.5 257q0 150 106.5 256.5t256.5 106.5t256.5 -106.5t106.5 -256.5zM713 354q0 134 -93.5 227t-226.5 93t-226.5 -93t-93.5 -227t93.5 -227t226.5 -93t226.5 93t93.5 227zM558 602l-20 -25l-26 15l15 31zM661 489
l-32 -15l-15 27l26 20zM691 341h-30v31h30v-31zM276 592l-26 -16l-20 26l31 21zM660 224l-21 -31l-26 20l15 26zM410 340h-201v33h168v264h33v-297zM174 501l-15 -27l-31 15l20 32zM558 111l-32 -19l-15 30l27 15zM409 60h-30v32h30v-32zM128 341h-31v31h31v-31zM175 213
l-27 -20l-20 31l32 15zM276 122l-15 -30l-31 19l20 26z" />
    <glyph glyph-name="uni235F" unicode="&#x235f;" horiz-adv-x="666" 
d="M616 333q0 -115 -81.5 -196.5t-196.5 -81.5t-196.5 81.5t-81.5 196.5t81.5 196.5t196.5 81.5q116 0 197 -81.5t81 -196.5zM495 385l-118 8l-44 110l-44 -110l-117 -8l91 -75l-29 -115l99 64l101 -64l-30 115z" />
    <glyph glyph-name="uni24BB" unicode="&#x24bb;" horiz-adv-x="793" 
d="M762 354q0 -151 -106.5 -257.5t-256.5 -106.5t-256.5 106.5t-106.5 257.5q0 150 106.5 257t256.5 107t256.5 -107t106.5 -257zM691 354q0 121 -85.5 207t-206.5 86t-206.5 -86t-85.5 -207t85.5 -207t206.5 -86t206.5 86t85.5 207zM499 438h-129v-78h121v-51h-121v-98h-67
v281h196v-54z" />
    <glyph glyph-name="uni24C2" unicode="&#x24c2;" horiz-adv-x="793" 
d="M227 211v281h82l88 -220l96 220h78v-281h-65v138l4 43l-78 -181h-73l-73 181l6 -42v-139h-65zM399 -10q-150 0 -256.5 106.5t-106.5 257.5q0 150 106.5 257t256.5 107t256.5 -107t106.5 -257q0 -151 -106.5 -257.5t-256.5 -106.5zM399 61q121 0 206.5 86t85.5 207
t-85.5 207t-206.5 86t-206.5 -86t-85.5 -207t85.5 -207t206.5 -86z" />
    <glyph glyph-name="uni24C9" unicode="&#x24c9;" horiz-adv-x="793" 
d="M762 354q0 -151 -106.5 -257.5t-256.5 -106.5t-256.5 106.5t-106.5 257.5q0 150 106.5 256.5t256.5 106.5t256.5 -106.5t106.5 -256.5zM691 354q0 121 -85.5 206.5t-206.5 85.5t-206.5 -85.5t-85.5 -206.5q0 -122 85.5 -207.5t206.5 -85.5t206.5 85.5t85.5 207.5z
M518 437h-89v-227h-68v227h-90v54h247v-54z" />
    <glyph glyph-name="uni24CA" unicode="&#x24ca;" horiz-adv-x="827" 
d="M405 -86q-162 0 -253.5 98.5t-91.5 262.5q0 166 100 261.5t264 95.5q165 0 254 -99t89 -260q0 -165 -97 -262t-265 -97zM409 -22q136 0 208.5 82t72.5 214q0 130 -73.5 212t-201.5 82q-132 0 -205 -81t-73 -211q0 -128 71.5 -213t200.5 -85zM578 257q0 -95 -45.5 -137
t-115.5 -42q-73 0 -119 38t-46 125v180h88v-172q0 -48 18 -72.5t59 -24.5q42 0 59 26t17 83v160h85v-164z" />
    <glyph glyph-name="uni24CC" unicode="&#x24cc;" horiz-adv-x="793" 
d="M762 353q0 -151 -106.5 -257.5t-256.5 -106.5t-256.5 106.5t-106.5 257.5q0 150 106.5 257t256.5 107t256.5 -107t106.5 -257zM691 353q0 122 -85.5 207.5t-206.5 85.5t-206.5 -85.5t-85.5 -207.5q0 -121 85.5 -206.5t206.5 -85.5t206.5 85.5t85.5 206.5zM606 491
l-82 -281h-82l-39 106l-10 33l-11 -32l-41 -107h-84l-67 281h67l39 -182l9 -48l17 49l44 109l-25 72h69l59 -183l13 -46l12 49l47 180h65z" />
    <glyph glyph-name="uni25A0" unicode="&#x25a0;" horiz-adv-x="926" 
d="M110 0v707h706v-707h-706z" />
    <glyph glyph-name="uni25A1" unicode="&#x25a1;" horiz-adv-x="800" 
d="M60 13v681h680v-681h-680zM173 127h454v453h-454v-453z" />
    <glyph glyph-name="uni25AA" unicode="&#x25aa;" horiz-adv-x="766" 
d="M110 0v547h546v-547h-546z" />
    <glyph glyph-name="uni25AB" unicode="&#x25ab;" horiz-adv-x="766" 
d="M110 0v547h546v-547h-546zM242 133h283v283h-283v-283z" />
    <glyph glyph-name="uni25B6" unicode="&#x25b6;" horiz-adv-x="665" 
d="M110 -54v670l535 -335z" />
    <glyph glyph-name="uni25B7" unicode="&#x25b7;" horiz-adv-x="665" 
d="M110 -54v670l535 -335zM242 170l191 111l-191 115v-226z" />
    <glyph glyph-name="uni25B8" unicode="&#x25b8;" horiz-adv-x="465" 
d="M444 273l-334 -335v670z" />
    <glyph glyph-name="uni25B9" unicode="&#x25b9;" horiz-adv-x="465" 
d="M444 273l-334 -335v670zM306 273l-93 93v-186z" />
    <glyph glyph-name="uni25BA" unicode="&#x25ba;" horiz-adv-x="1013" 
d="M1013 273l-903 -335v670z" />
    <glyph glyph-name="uni25BB" unicode="&#x25bb;" horiz-adv-x="1013" 
d="M1013 273l-903 -335v670zM692 273l-449 148v-294z" />
    <glyph glyph-name="uni25C0" unicode="&#x25c0;" horiz-adv-x="665" 
d="M555 -54l-535 335l535 335v-670z" />
    <glyph glyph-name="uni25C1" unicode="&#x25c1;" horiz-adv-x="665" 
d="M555 -54l-535 335l535 335v-670zM423 170v226l-191 -115z" />
    <glyph glyph-name="uni25C2" unicode="&#x25c2;" horiz-adv-x="464" 
d="M354 -62l-334 336l334 334v-670z" />
    <glyph glyph-name="uni25C3" unicode="&#x25c3;" horiz-adv-x="464" 
d="M354 -62l-334 335l334 335v-670zM251 180v186l-92 -93z" />
    <glyph glyph-name="uni25C4" unicode="&#x25c4;" horiz-adv-x="1013" 
d="M903 -62l-903 334l903 336v-670z" />
    <glyph glyph-name="uni25C5" unicode="&#x25c5;" horiz-adv-x="1013" 
d="M903 -62l-903 335l903 335v-670zM770 127v294l-449 -148z" />
    <glyph glyph-name="uni25C6" unicode="&#x25c6;" horiz-adv-x="510" 
d="M255 172l-175 175l175 175l175 -175z" />
    <glyph glyph-name="uni25C9" unicode="&#x25c9;" horiz-adv-x="891" 
d="M798 358q0 -146 -103 -249t-249 -103q-147 0 -250 103t-103 249q0 147 103 250t250 103q146 0 249 -103t103 -250zM746 358q0 125 -88 213q-87 87 -212 87q-126 0 -213 -87t-87 -213q0 -125 87 -212q90 -88 213 -88q124 0 212 88q88 87 88 212zM601 358q0 -63 -46 -109
t-109 -46q-64 0 -110 46t-46 109q0 64 46 110t110 46q63 0 109 -46t46 -110z" />
    <glyph glyph-name="lozenge" unicode="&#x25ca;" horiz-adv-x="613" 
d="M217 0l-195 355l205 352h167l194 -354l-204 -353h-167zM302 105l135 247l-128 251l-135 -247z" />
    <glyph glyph-name="uni25CB" unicode="&#x25cb;" horiz-adv-x="755" 
d="M377 -6q-116 0 -198.5 82t-82.5 198t82.5 198t198.5 82t198 -82t82 -198t-82.5 -198t-197.5 -82zM377 130q60 0 102.5 42t42.5 102t-42.5 102.5t-102.5 42.5t-103 -42.5t-43 -102.5t43 -102t103 -42z" />
    <glyph glyph-name="uni25CE" unicode="&#x25ce;" horiz-adv-x="891" 
d="M804 361q0 -148 -105 -253t-253 -105t-254 105q-105 107 -105 253q0 149 105 254q106 105 254 105t253 -105t105 -254zM738 361q0 122 -86 207q-84 85 -206 85q-121 0 -207 -85q-85 -85 -85 -207q0 -121 85 -206q88 -86 207 -86q122 0 206 86q86 85 86 206zM660 361
q0 -86 -63 -151q-62 -62 -151 -62q-87 0 -152 62q-62 64 -62 151q0 88 62 152q65 62 152 62q89 0 151 -62q63 -65 63 -152zM593 361q0 62 -43 105q-42 43 -104 43t-104 -43q-44 -43 -44 -105q0 -61 44 -104q42 -43 104 -43t104 43q43 43 43 104zM515 361q0 -29 -20 -49
t-49 -20q-27 0 -49 20q-20 22 -20 49q0 29 20 49q21 21 49 21t49 -21q20 -20 20 -49z" />
    <glyph glyph-name="uni25CF" unicode="&#x25cf;" horiz-adv-x="766" 
d="M382 -5q-115 0 -197 81.5t-82 196.5t81.5 196.5t197.5 81.5q115 0 196.5 -81.5t81.5 -196.5t-81.5 -196.5t-196.5 -81.5z" />
    <glyph glyph-name="uni25EF" unicode="&#x25ef;" horiz-adv-x="911" 
d="M456 -5q-149 0 -254 105t-105 254t105 254t254 105q148 0 253 -105t105 -254t-105 -254t-253 -105zM456 128q93 0 159.5 66t66.5 160q0 93 -66.5 159.5t-159.5 66.5q-94 0 -160 -66.5t-66 -159.5q0 -94 66 -160t160 -66z" />
    <glyph glyph-name="uni2605" unicode="&#x2605;" horiz-adv-x="585" 
d="M122 101l46 190l-149 128l196 15l74 181l75 -181l196 -15l-149 -128l45 -190l-167 102z" />
    <glyph glyph-name="uni260F" unicode="&#x260f;" horiz-adv-x="658" 
d="M608 125q-89 -85 -126 -97q-16 -6 -42 4q-117 45 -250 231q-78 112 -107 182q-30 74 -33 129q5 32 10 40q12 19 57 51t72 45l102 -178l-64 -47l186 -259l58 50zM542 129l-73 80l-50 -44q-13 -13 -29 11l-219 305q-8 9 -6.5 17.5t8.5 11.5l51 43l-56 90
q-22 -12 -45.5 -41.5t-20.5 -52.5q19 -113 125 -258q125 -166 211 -207q20 -9 51 7.5t53 37.5z" />
    <glyph glyph-name="uni2610" unicode="&#x2610;" horiz-adv-x="800" 
d="M60 13v681h680v-681h-680zM139 93h522v521h-522v-521z" />
    <glyph glyph-name="uni2611" unicode="&#x2611;" horiz-adv-x="800" 
d="M60 13v681h680v-681h-680zM139 93h522v521h-522v-521zM504 525q9 14 43.5 28t59.5 16l8 -9q-187 -276 -316 -412h-21q-26 20 -53 101t-23 104q28 36 49 42l22 -7q2 -94 33 -152q18 21 46 60.5t50 73t56 85.5t46 70z" />
    <glyph glyph-name="uni2612" unicode="&#x2612;" horiz-adv-x="766" 
d="M110 0v547h546v-547h-546zM383 322l93 93h-185zM292 133h185l-94 91zM242 181l92 92l-92 92v-184zM524 185v179l-92 -91z" />
    <glyph glyph-name="uni261A" unicode="&#x261a;" horiz-adv-x="765" 
d="M715 97h-67q-11 0 -38.5 -21t-54.5 -21h-188q-39 0 -60.5 20.5t-21.5 51.5q0 9 3 18q-21 7 -34 26t-13 41q0 14 8 32q-15 16 -15 42q0 11 6 27h-116q-35 0 -54.5 21t-19.5 50q0 30 21.5 52.5t60.5 22.5h263l-45 42q-30 29 -30 59q0 43 59 100l237 -190h98z" />
    <glyph glyph-name="uni261B" unicode="&#x261b;" horiz-adv-x="765" 
d="M715 384q0 -29 -19.5 -50t-54.5 -21h-116q6 -16 6 -27q0 -24 -15 -42q8 -18 8 -32q0 -22 -13 -41t-34 -26q3 -9 3 -18q0 -31 -21.5 -51.5t-60.5 -20.5h-188q-27 0 -54.5 21t-38.5 21h-67l1 373h98l237 190q59 -57 59 -100q0 -30 -30 -59l-45 -42h263q39 0 60.5 -22.5
t21.5 -52.5z" />
    <glyph glyph-name="uni261C" unicode="&#x261c;" horiz-adv-x="765" 
d="M715 97h-67q-11 0 -38.5 -21t-54.5 -21h-188q-39 0 -60.5 20.5t-21.5 51.5q0 9 3 18q-21 7 -34 26t-13 41q0 14 8 32q-15 16 -15 42q0 11 6 27h-116q-35 0 -54.5 21t-19.5 50q0 30 21.5 52.5t60.5 22.5h263l-45 42q-30 29 -30 59q0 43 59 100l237 -190h98v-38h-112
l-222 178q-20 -20 -20 -43q0 -29 29 -53l108 -93h-365q-21 0 -32.5 -10.5t-11.5 -25.5q0 -14 9.5 -24t26.5 -10h334v-38h-178q-8 -14 -8 -22q0 -9 7 -17.5t22 -8.5h157v-38h-175q-5 -6 -5 -22q0 -26 47 -26h133v-38h-131q-4 -4 -4 -16q0 -14 14 -23t30 -9h188q18 0 44 21
t49 21h67v-38z" />
    <glyph glyph-name="uni261D" unicode="&#x261d;" horiz-adv-x="705" 
d="M655 361l-190 -237v-124h-38v138l178 222q-20 20 -43 20q-29 0 -53 -29l-93 -108v365q0 21 -10.5 32.5t-25.5 11.5q-14 0 -24 -9.5t-10 -26.5v-334h-38v178q-14 8 -22 8q-9 0 -17.5 -7t-8.5 -22v-157h-38v175q-6 5 -22 5q-26 0 -26 -47v-133h-38v130q-4 5 -16 5
q-14 0 -23 -14t-9 -30v-188q0 -18 21 -44t21 -49v-93h-38v93q0 11 -21 38.5t-21 54.5v188q0 39 20.5 60.5t51.5 21.5q9 0 18 -3q7 21 26 34t41 13q14 0 32 -8q18 15 42 15q11 0 27 -6v116q0 35 21 54.5t50 19.5q30 0 52.5 -21.5t22.5 -60.5v-263l42 45q28 30 59 30
q43 0 100 -59z" />
    <glyph glyph-name="uni261E" unicode="&#x261e;" horiz-adv-x="765" 
d="M715 384q0 -29 -19.5 -50t-54.5 -21h-116q6 -16 6 -27q0 -24 -15 -42q8 -18 8 -32q0 -22 -13 -41t-34 -26q3 -9 3 -18q0 -31 -21.5 -51.5t-60.5 -20.5h-188q-27 0 -54.5 21t-38.5 21h-67v38h67q23 0 49 -21t44 -21h188q16 0 30 9t14 23q0 12 -5 16h-130v38h133
q47 0 47 26q0 16 -5 22h-175v38h157q15 0 22 8.5t7 17.5q0 8 -8 22h-178v38h334q17 0 26.5 10t9.5 24q0 15 -11.5 25.5t-32.5 10.5h-365l108 93q29 24 29 53q0 23 -20 43l-222 -178h-112v38h98l237 190q59 -57 59 -100q0 -30 -30 -59l-45 -42h263q39 0 60.5 -22.5
t21.5 -52.5z" />
    <glyph glyph-name="uni261F" unicode="&#x261f;" horiz-adv-x="705" 
d="M655 361l-190 -237v-124h-38v138l178 222q-20 20 -43 20q-29 0 -53 -29l-93 -108v160q0 44 -28 44q-14 0 -23 -9.5t-9 -26.5v-129h-38v337q0 17 -9 27.5t-21 10.5t-20 -10.5t-8 -27.5v-337h-38v161q-6 5 -22 5q-14 0 -20 -6t-6 -27v-133h-38v130q-4 5 -16 5
q-15 0 -23.5 -13.5t-8.5 -30.5v-188q0 -18 21 -44t21 -49v-93h-38v93q0 11 -21 38.5t-21 54.5v188q0 39 20.5 60.5t51.5 21.5q9 0 18 -3q20 33 58 33q10 0 24 -7v153q0 28 22.5 47.5t47.5 19.5q26 0 45.5 -19t19.5 -44v-156q14 6 32 6q29 0 47 -21t18 -61v-58l42 45
q27 28 67 28q22 0 42 -13t50 -44z" />
    <glyph glyph-name="uni263A" unicode="&#x263a;" horiz-adv-x="813" 
d="M407 183q-51 0 -92.5 28t-61.5 75l52 33q17 -33 44.5 -52t60.5 -19q35 0 62 18.5t40 52.5l48 -33q-15 -45 -58 -74t-95 -29zM313 382q-22 0 -37 14.5t-15 35.5t15 35.5t37 14.5q21 0 37.5 -14.5t16.5 -35.5t-16.5 -35.5t-37.5 -14.5zM407 -9q-150 0 -256 106t-106 256
q0 149 106 255t256 106t255.5 -106t105.5 -255q0 -150 -105.5 -256t-255.5 -106zM407 106q101 0 174 72.5t73 174.5q0 101 -73 174t-174 73q-102 0 -174.5 -73t-72.5 -174q0 -102 72.5 -174.5t174.5 -72.5zM501 382q-22 0 -37.5 14.5t-15.5 35.5t15.5 35.5t37.5 14.5
q21 0 37 -14.5t16 -35.5t-16 -35.5t-37 -14.5z" />
    <glyph glyph-name="uni2641" unicode="&#x2641;" horiz-adv-x="786" 
d="M753 354q0 -150 -105.5 -255t-254.5 -105t-254.5 105t-105.5 255q0 149 105.5 254.5t254.5 105.5t254.5 -105.5t105.5 -254.5zM202 561l-29 -21l-16 25l1 1h-2l1 -1q-82 -88 -82 -211q0 -133 92.5 -225.5t225.5 -92.5t225.5 92.5t92.5 225.5q0 33 -7 69l-5 -49l-49 -32
l17 -20l-28 -14l-10 18l-5 -1l5 -26l21 -12l-8 -7l-13 4l3 -10l11 -1l10 -19l30 -11l2 -10l-36 6l-48 51l19 -2l-27 64v16h-8l-3 -15l-27 -20v-19l-25 -6l-13 36l-9 3l1 21l-81 14l13 -21l18 5l14 -14l-14 -18l-39 -12l-34 67h-10l-1 -13l23 -48l18 -13l32 2l-54 -76l6 -6
l2 -24l-15 -15l-1 -18l-38 -46l-35 2l-27 77l8 11v19l-22 27l9 6l-22 14l-49 2l-26 27l-1 49l62 54l32 3l8 -9l-2 -13l25 -8l13 16l9 -14h40l6 6v24l-14 -24l-24 30l8 -30l-22 18l-3 19l-21 24l-4 -4l17 -20l-11 -19l-2 16l-22 17l-11 -10l-6 4l-41 -34l-14 35l26 -1l9 11
l-14 9l21 13l10 1l17 16l-5 18l10 4l6 -14l32 4l1 12l40 13l-6 7l-27 -7l-7 14l16 12l-9 10l-21 -27l8 -6l-2 -16l-20 -6l-5 12l-22 -3l2 19l36 49l44 9l60 -14l-11 -16l-23 2l15 -16l46 30h35l-20 27l23 26l33 14q-52 19 -111 19q-146 0 -235 -106l30 8zM564 625
q-40 20 -60 28l5 -11l-31 -11l-18 -23l36 -23l-6 11l22 24l45 -15zM438 219l-14 -51l-21 14l6 26l21 16zM702 277l-13 -25l-23 6l1 19l21 21zM251 496l-1 -13h-27l6 13l-15 21l12 11l6 -18zM218 491l-10 -11l-11 10l9 18zM296 419l-9 4l6 9z" />
    <glyph glyph-name="uni2661" unicode="&#x2661;" horiz-adv-x="673" 
d="M623 375q0 -74 -98 -188l-189 -223l-154 175q-58 65 -95 130t-37 106q0 82 49.5 132t112.5 50t125 -56q58 56 124 56q63 0 112.5 -50t49.5 -132zM564 375q0 59 -32.5 91t-70.5 32q-24 0 -43.5 -8.5t-35.5 -27.5t-24 -32t-22 -39q-22 42 -37 61q-39 46 -87 46
q-38 0 -70.5 -33t-32.5 -90q0 -29 31.5 -81.5t73.5 -101.5l123 -142l143 169q37 44 60.5 88t23.5 68z" />
    <glyph glyph-name="uni2665" unicode="&#x2665;" horiz-adv-x="673" 
d="M623 375q0 -74 -98 -188l-189 -223l-154 175q-58 65 -95 130t-37 106q0 82 49.5 132t112.5 50t125 -56q58 56 124 56q63 0 112.5 -50t49.5 -132z" />
    <glyph glyph-name="uni267E" unicode="&#x267e;" horiz-adv-x="827" 
d="M405 -86q-162 0 -253.5 98.5t-91.5 262.5q0 166 100 261.5t264 95.5q165 0 254 -99t89 -260q0 -165 -97 -262t-265 -97zM409 -22q136 0 208.5 82t72.5 214q0 130 -73.5 212t-201.5 82q-132 0 -205 -81t-73 -211q0 -128 71.5 -213t200.5 -85zM304 140q-46 0 -72.5 40.5
t-26.5 90.5q0 48 27.5 89.5t71.5 41.5q38 0 62.5 -23.5t50.5 -67.5q52 91 115 91q44 0 71 -41t27 -90q0 -50 -26 -90.5t-72 -40.5q-8 0 -16.5 1.5t-14.5 3.5t-13.5 7t-12 7.5t-11.5 10.5t-10 10.5t-10 12.5t-9 12.5t-9.5 13t-8.5 12.5q-56 -91 -113 -91zM523 198q21 0 34 20
t13 53q0 34 -13 54.5t-34 20.5q-5 0 -9.5 -1.5t-9.5 -4.5t-9 -6t-9.5 -9t-9 -9.5t-9 -11.5t-8 -11t-8 -11.5t-7.5 -10.5q2 -2 14 -18t16.5 -21.5t14 -15.5t18 -14t16.5 -4zM312 198q13 0 30 14t25.5 25.5t24.5 34.5q-3 4 -11.5 16t-12.5 17.5t-12.5 15t-14.5 14t-14 8
t-15 3.5q-44 0 -44 -75q0 -29 12 -51t32 -22z" />
    <glyph glyph-name="uni2708" unicode="&#x2708;" horiz-adv-x="786" 
d="M756 354q0 -150 -106.5 -256.5t-256.5 -106.5t-256.5 106.5t-106.5 256.5t106.5 256.5t256.5 106.5t256.5 -106.5t106.5 -256.5zM713 354q0 134 -93.5 227t-226.5 93t-226.5 -93t-93.5 -227t93.5 -227t226.5 -93t226.5 93t93.5 227zM573 513q0 -15 -8 -25l-79 -88
l85 -188l-43 -45l-116 162l-75 -77l15 -103l-37 -12l-44 96l-97 41l5 38l109 -14l75 78l-164 109l43 45l189 -78l87 81q10 10 23 10q15 0 23.5 -8.5t8.5 -21.5z" />
    <glyph glyph-name="uni2709" unicode="&#x2709;" horiz-adv-x="756" 
d="M706 51h-656v484h656v-484zM665 116v351l-186 -168zM642 495h-524l263 -227zM637 89l-190 182l-32 -31q-13 -13 -38 -13q-19 0 -37 17l-33 29l-190 -184h520zM278 300l-189 163v-351z" />
    <glyph glyph-name="uni270E" unicode="&#x270e;" horiz-adv-x="764" 
d="M714 498l-377 -380l-287 -108l111 278l383 380zM586 571l-45 41l-316 -320l45 -42zM657 496l-45 45l-316 -320l45 -46zM316 148l-121 118l-53 -123l43 -46z" />
    <glyph glyph-name="uni2713" unicode="&#x2713;" horiz-adv-x="683" 
d="M504 525q9 14 43.5 28t59.5 16l8 -9q-187 -276 -316 -412h-21q-26 20 -53 101t-23 104q28 36 49 42l22 -7q2 -94 33 -152q18 21 46 60.5t50 73t56 85.5t46 70z" />
    <glyph glyph-name="uni2740" unicode="&#x2740;" horiz-adv-x="434" 
d="M384 211l-137 -206v-5h-59v3l-138 208q16 4 37 4q29 0 50 -11q41 -24 51 -108v156q-42 12 -66 43.5t-24 72.5q0 22 0.5 102t0.5 102l71 -45l44 47l47 -48l74 46v-204q0 -41 -23.5 -72t-64.5 -43v-149q9 76 50 100q21 11 50 11zM282 368v112l-20 -20l-47 48l-45 -49
l-19 20v-111q0 -27 19 -46t46 -19t46.5 19t19.5 46z" />
    <glyph glyph-name="uni2780" unicode="&#x2780;" horiz-adv-x="840" 
d="M420 -5q-149 0 -254.5 105t-105.5 254t105.5 254t254.5 105t254.5 -105t105.5 -254q0 -148 -105.5 -253.5t-254.5 -105.5zM420 63q121 0 206 85t85 206t-85 206t-206 85t-206 -85t-85 -206t85 -206t206 -85zM383 182v287h-79v77l180 5v-369h-101z" />
    <glyph glyph-name="uni2781" unicode="&#x2781;" horiz-adv-x="840" 
d="M283 192v66q80 57 125.5 100.5t45.5 77.5q0 20 -14 31.5t-35 11.5q-44 0 -79 -27l-34 66q54 46 130 46q60 0 96.5 -33t36.5 -84q0 -90 -151 -175h155v-80h-276zM420 -5q-149 0 -254.5 105t-105.5 254t105.5 254t254.5 105t254.5 -105t105.5 -254q0 -148 -105.5 -253.5
t-254.5 -105.5zM420 63q121 0 206 85t85 206t-85 206t-206 85t-206 -85t-85 -206t85 -206t206 -85z" />
    <glyph glyph-name="uni2782" unicode="&#x2782;" horiz-adv-x="840" 
d="M414 172q-53 0 -115 16l17 74q43 -11 89 -11q63 0 63 44q0 27 -21.5 37.5t-71.5 12.5v47q43 4 59.5 15.5t16.5 35.5q0 13 -11.5 22.5t-30.5 9.5q-40 0 -75 -16l-22 66q48 25 108 25q61 0 95.5 -24.5t34.5 -73.5q0 -24 -13.5 -45t-36.5 -31q68 -21 68 -89
q0 -60 -42.5 -87.5t-111.5 -27.5zM420 -5q-149 0 -254.5 105t-105.5 254t105.5 254t254.5 105t254.5 -105t105.5 -254q0 -148 -105.5 -253.5t-254.5 -105.5zM420 63q121 0 206 85t85 206t-85 206t-206 85t-206 -85t-85 -206t85 -206t206 -85z" />
    <glyph glyph-name="uni2783" unicode="&#x2783;" horiz-adv-x="840" 
d="M420 -5q-149 0 -254.5 105t-105.5 254t105.5 254t254.5 105t254.5 -105t105.5 -254q0 -148 -105.5 -253.5t-254.5 -105.5zM420 63q121 0 206 85t85 206t-85 206t-206 85t-206 -85t-85 -206t85 -206t206 -85zM412 181v82h-161v75l113 210h140v-213h54v-72h-54v-82h-92z
M320 335h92v160z" />
    <glyph glyph-name="uni2784" unicode="&#x2784;" horiz-adv-x="840" 
d="M420 -5q-149 0 -254.5 105t-105.5 254t105.5 254t254.5 105t254.5 -105t105.5 -254q0 -148 -105.5 -253.5t-254.5 -105.5zM420 63q121 0 206 85t85 206t-85 206t-206 85t-206 -85t-85 -206t85 -206t206 -85zM405 162q-44 0 -113 16l18 68q60 -17 92 -17q27 0 41 15t14 37
q0 26 -17 38.5t-44 12.5q-48 0 -87 -3v208h231v-78h-142v-56h19q140 0 140 -113q0 -59 -43.5 -93.5t-108.5 -34.5z" />
    <glyph glyph-name="uni2785" unicode="&#x2785;" horiz-adv-x="840" 
d="M420 -5q-149 0 -254.5 105t-105.5 254t105.5 254t254.5 105t254.5 -105t105.5 -254q0 -148 -105.5 -253.5t-254.5 -105.5zM420 63q121 0 206 85t85 206t-85 206t-206 85t-206 -85t-85 -206t85 -206t206 -85zM414 172q-78 0 -115.5 37t-37.5 129q0 102 50.5 157.5
t131.5 55.5q43 0 99 -15l-25 -75q-33 9 -71 9q-31 0 -54 -21.5t-31 -61.5q35 20 73 20q127 0 127 -103q0 -68 -41.5 -100t-105.5 -32zM416 244q19 0 31.5 16t12.5 39q0 49 -46 49q-20 0 -52 -9q0 -53 11 -74t43 -21z" />
    <glyph glyph-name="uni2786" unicode="&#x2786;" horiz-adv-x="840" 
d="M420 -5q-149 0 -254.5 105t-105.5 254t105.5 254t254.5 105t254.5 -105t105.5 -254q0 -148 -105.5 -253.5t-254.5 -105.5zM420 63q121 0 206 85t85 206t-85 206t-206 85t-206 -85t-85 -206t85 -206t206 -85zM400 150l-95 23l164 264h-171v90h266v-77z" />
    <glyph glyph-name="uni2787" unicode="&#x2787;" horiz-adv-x="840" 
d="M419 165q-148 0 -148 103q0 58 64 95q-50 30 -50 81q0 49 40 74t100 25q59 0 97.5 -25.5t38.5 -67.5q0 -51 -59 -84q69 -34 69 -91q0 -52 -41 -81t-111 -29zM422 233q23 0 35.5 13t12.5 32q0 23 -72 53q-28 -19 -28 -55q0 -19 13.5 -31t38.5 -12zM420 -5
q-149 0 -254.5 105t-105.5 254t105.5 254t254.5 105t254.5 -105t105.5 -254q0 -148 -105.5 -253.5t-254.5 -105.5zM420 63q121 0 206 85t85 206t-85 206t-206 85t-206 -85t-85 -206t85 -206t206 -85zM433 396q29 24 29 46q0 14 -10 23t-29 9q-44 0 -44 -34q0 -14 14 -23.5
t40 -20.5z" />
    <glyph glyph-name="uni2788" unicode="&#x2788;" horiz-adv-x="840" 
d="M420 -5q-149 0 -254.5 105t-105.5 254t105.5 254t254.5 105t254.5 -105t105.5 -254q0 -148 -105.5 -253.5t-254.5 -105.5zM420 63q121 0 206 85t85 206t-85 206t-206 85t-206 -85t-85 -206t85 -206t206 -85zM395 166q-49 0 -99 15l25 74q33 -9 71 -9q31 0 54 21.5
t30 61.5q-34 -20 -72 -20q-127 0 -127 104q0 67 41.5 99t105.5 32q78 0 115.5 -37t37.5 -129q0 -101 -50.5 -156.5t-131.5 -55.5zM424 369q24 0 52 9q-1 52 -12.5 73t-41.5 21q-19 0 -31.5 -14.5t-12.5 -39.5q0 -49 46 -49z" />
    <glyph glyph-name="uni278A" unicode="&#x278a;" horiz-adv-x="840" 
d="M420 -5q-149 0 -254.5 105t-105.5 254t105.5 254t254.5 105t254.5 -105t105.5 -254q0 -148 -105.5 -253.5t-254.5 -105.5zM383 182h101v369l-180 -5v-77h79v-287z" />
    <glyph glyph-name="uni278B" unicode="&#x278b;" horiz-adv-x="840" 
d="M283 192h276v80h-155q151 85 151 175q0 51 -36.5 84t-96.5 33q-76 0 -130 -46l34 -66q35 27 79 27q21 0 35 -11.5t14 -31.5q0 -34 -45.5 -77.5t-125.5 -100.5v-66zM420 -5q-149 0 -254.5 105t-105.5 254t105.5 254t254.5 105t254.5 -105t105.5 -254q0 -148 -105.5 -253.5
t-254.5 -105.5z" />
    <glyph glyph-name="uni278C" unicode="&#x278c;" horiz-adv-x="840" 
d="M414 172q69 0 111.5 27.5t42.5 87.5q0 68 -68 89q23 10 36.5 31t13.5 45q0 49 -34.5 73.5t-95.5 24.5q-60 0 -108 -25l22 -66q35 16 75 16q19 0 30.5 -9.5t11.5 -22.5q0 -24 -16.5 -35.5t-59.5 -15.5v-47q50 -2 71.5 -12.5t21.5 -37.5q0 -44 -63 -44q-46 0 -89 11
l-17 -74q62 -16 115 -16zM420 -5q-149 0 -254.5 105t-105.5 254t105.5 254t254.5 105t254.5 -105t105.5 -254q0 -148 -105.5 -253.5t-254.5 -105.5z" />
    <glyph glyph-name="uni278D" unicode="&#x278d;" horiz-adv-x="840" 
d="M420 -5q-149 0 -254.5 105t-105.5 254t105.5 254t254.5 105t254.5 -105t105.5 -254q0 -148 -105.5 -253.5t-254.5 -105.5zM412 181h92v82h54v72h-54v213h-140l-113 -210v-75h161v-82zM320 335l92 160v-160h-92z" />
    <glyph glyph-name="uni278E" unicode="&#x278e;" horiz-adv-x="840" 
d="M420 -5q-149 0 -254.5 105t-105.5 254t105.5 254t254.5 105t254.5 -105t105.5 -254q0 -148 -105.5 -253.5t-254.5 -105.5zM405 162q65 0 108.5 34.5t43.5 93.5q0 113 -140 113h-19v56h142v78h-231v-208q39 3 87 3q27 0 44 -12.5t17 -38.5q0 -22 -14 -37t-41 -15
q-32 0 -92 17l-18 -68q69 -16 113 -16z" />
    <glyph glyph-name="uni278F" unicode="&#x278f;" horiz-adv-x="840" 
d="M420 -5q-149 0 -254.5 105t-105.5 254t105.5 254t254.5 105t254.5 -105t105.5 -254q0 -148 -105.5 -253.5t-254.5 -105.5zM414 172q64 0 105.5 32t41.5 100q0 103 -127 103q-38 0 -73 -20q8 40 31 61.5t54 21.5q38 0 71 -9l25 75q-56 15 -99 15q-81 0 -131.5 -55.5
t-50.5 -157.5q0 -92 37.5 -129t115.5 -37zM418 244q-28 0 -41 16t-14 57q-1 3 -1 22q32 9 52 9q46 0 46 -49q0 -23 -12 -39t-30 -16z" />
    <glyph glyph-name="uni2790" unicode="&#x2790;" horiz-adv-x="840" 
d="M420 -5q-149 0 -254.5 105t-105.5 254t105.5 254t254.5 105t254.5 -105t105.5 -254q0 -148 -105.5 -253.5t-254.5 -105.5zM400 150l164 300v77h-266v-90h171l-164 -264z" />
    <glyph glyph-name="uni2791" unicode="&#x2791;" horiz-adv-x="840" 
d="M419 165q70 0 111 29t41 81q0 57 -69 91q59 33 59 84q0 42 -38.5 67.5t-97.5 25.5q-60 0 -100 -25t-40 -74q0 -51 50 -81q-64 -37 -64 -95q0 -103 148 -103zM422 233q-25 0 -38.5 12t-13.5 31q0 36 28 55q72 -30 72 -53q0 -19 -12.5 -32t-35.5 -13zM420 -5
q-149 0 -254.5 105t-105.5 254t105.5 254t254.5 105t254.5 -105t105.5 -254q0 -148 -105.5 -253.5t-254.5 -105.5zM433 396q-17 7 -26.5 12t-18.5 13.5t-9 18.5q0 34 44 34q19 0 29 -9t10 -23q0 -22 -29 -46z" />
    <glyph glyph-name="uni2792" unicode="&#x2792;" horiz-adv-x="840" 
d="M395 166q81 0 131.5 55.5t50.5 156.5q0 92 -37.5 129t-115.5 37q-64 0 -105.5 -32t-41.5 -99q0 -104 127 -104q38 0 72 20q-7 -40 -30 -61.5t-54 -21.5q-38 0 -71 9l-25 -74q50 -15 99 -15zM423 472q31 0 43 -22t10 -72q-28 -9 -52 -9q-46 0 -46 49q0 24 13 39t32 15z
M780 354q0 -148 -105.5 -253.5t-254.5 -105.5t-254.5 105t-105.5 254t105.5 254t254.5 105t254.5 -105t105.5 -254z" />
    <glyph glyph-name="uni2981" unicode="&#x2981;" horiz-adv-x="926" 
d="M463 -5q-149 0 -254 105t-105 254t105 254t254 105q148 0 253 -105t105 -254t-105 -254t-253 -105z" />
    <glyph glyph-name="uni301A" unicode="&#x301a;" horiz-adv-x="537" 
d="M73 -220v974h435v-104h-107v-766h107v-104h-435zM193 650v-766h88v766h-88z" />
    <glyph glyph-name="uni301B" unicode="&#x301b;" horiz-adv-x="537" 
d="M464 754v-974h-435v104h107v766h-107v104h435zM344 -116v766h-88v-766h88z" />
    <glyph glyph-name="uni301C" unicode="&#x301c;" horiz-adv-x="995" 
d="M700 158q-55 0 -104.5 15t-85.5 37t-70 44t-73 37t-80 15q-59 0 -100.5 -22.5t-90.5 -68.5l-69 79q127 129 261 129q53 0 100 -15t82 -36.5t68.5 -43t75 -36.5t85.5 -16q99 -1 195 87l74 -77q-50 -55 -124.5 -91.5t-143.5 -36.5z" />
    <glyph glyph-name="apple" unicode="&#xf8ff;" horiz-adv-x="1241" 
d="M1141 357h-10v-10h-11v10h-10v11h10v10h11v-10h10v-11zM1081 377h-11v11h11v-11zM1081 338h-11v10h11v-10zM1041 377h-11v11h11v-11zM1071 357h-10v-10h-11v10h-10v11h10v10h11v-10h10v-11zM1041 338h-11v10h11v-10zM1001 387h-10v-10h-11v11h10v10h11v-11zM1001 328h-11
v10h-10v10h11v-10h10v-10zM951 377h-11v10h-10v11h11v-10h10v-11zM981 357h-10v-10h-11v10h-10v11h10v10h11v-10h10v-11zM951 338h-10v-10h-11v10h10v10h11v-10zM911 338h-31v9h-10v31h10v10h21v-10h10v-21h-30v-9h30v-10zM900 368v9h-19v-9h19zM851 338h-31v9h-10v41h11
v-40h19v40h11v-50zM791 318h-11v20h-20v9h-10v31h10v10h31v-70zM780 348v29h-19v-29h19zM731 338h-31v9h-10v31h10v10h21v-10h10v-21h-30v-9h30v-10zM720 368v9h-19v-9h19zM671 338h-11v39h-19v-39h-11v70h11v-20h20v-10h10v-40zM611 338h-21v9h-10v30h-10v11h10v10h11v-10
h20v-11h-20v-29h20v-10zM551 347h-10v-9h-21v9h-10v31h10v10h21v-10h10v-31zM540 348v29h-19v-29h19zM491 347h-10v-9h-20v-20h-11v70h31v-10h10v-31zM480 348v29h-19v-29h19zM431 347h-10v-9h-10v-10h-10v-10h-11v11h10v18h-10v41h11v-40h19v40h11v-41zM371 338h-21v9h-10
v30h-10v11h10v10h11v-10h20v-11h-20v-29h20v-10zM311 387h-10v-10h-11v11h10v10h11v-11zM311 328h-11v10h-10v10h11v-10h10v-10zM261 377h-11v10h-10v11h11v-10h10v-11zM291 357h-10v-10h-11v10h-10v11h10v10h11v-10h10v-11zM261 338h-10v-10h-11v10h10v10h11v-10zM211 377
h-11v11h11v-11zM211 338h-11v10h11v-10zM171 377h-11v11h11v-11zM201 357h-10v-10h-11v10h-10v11h10v10h11v-10h10v-11zM171 338h-11v10h11v-10zM131 357h-10v-10h-11v10h-10v11h10v10h11v-10h10v-11z" />
    <glyph glyph-name="Q.alt" horiz-adv-x="831" 
d="M786 -180q-117 0 -154 8q-89 14 -129 26q-58 16 -103 16v97q56 0 116 -14q101 -23 143 -27q42 -7 127 -7v-99zM407 -12q-175 0 -268 98t-93 269q0 167 102 265t276 98q178 0 269.5 -100.5t91.5 -264.5q0 -169 -99 -267t-279 -98zM410 97q120 0 178 70.5t58 186.5
q0 115 -58.5 185t-170.5 70q-116 0 -174.5 -69.5t-58.5 -183.5q0 -113 57 -186t169 -73z" />
    <glyph glyph-name="uni004A0301" horiz-adv-x="322" 
d="M89 745l-21 90l251 73l25 -106zM1 -194l-52 99q87 48 116 99.5t29 146.5v556h138v-554q0 -50 -4 -86t-17.5 -77t-38 -72t-67.5 -60.5t-104 -51.5z" />
    <glyph glyph-name="f.alt" horiz-adv-x="373" 
d="M107 -171v621h-80v96h80v27q0 195 201 195q53 0 93 -13l-21 -101q-36 8 -67 8q-73 0 -73 -90v-26h117v-96h-117v-621h-133z" />
    <glyph glyph-name="g.alt" horiz-adv-x="613" 
d="M274 -230q-115 0 -194 32l22 113q90 -28 175 -28q64 0 98 24.5t34 89.5v25q-49 -32 -114 -32q-254 0 -254 263q0 154 81.5 228.5t218.5 74.5q91 0 201 -26v-550q0 -106 -76 -160t-192 -54zM318 95q44 0 90 24v318q-48 12 -79 12q-155 0 -155 -184q0 -91 36.5 -130.5
t107.5 -39.5z" />
    <glyph glyph-name="uni006A0301" horiz-adv-x="281" 
d="M75 608l-40 80l219 124l47 -94zM0 -225q-56 0 -106 22l24 105q37 -13 78 -13q43 0 60.5 25t17.5 81v551h133v-552q0 -65 -16 -109.5t-46.5 -67.5t-65 -32.5t-79.5 -9.5z" />
    <glyph glyph-name="gbreve.alt" horiz-adv-x="613" 
d="M274 -230q-115 0 -194 32l22 113q90 -28 175 -28q64 0 98 24.5t34 89.5v25q-49 -32 -114 -32q-254 0 -254 263q0 154 81.5 228.5t218.5 74.5q91 0 201 -26v-550q0 -106 -76 -160t-192 -54zM318 95q44 0 90 24v318q-48 12 -79 12q-155 0 -155 -184q0 -91 36.5 -130.5
t107.5 -39.5zM317 626q-120 0 -181 101l70 60q59 -61 115 -61q60 0 112 61l66 -59q-66 -102 -182 -102z" />
    <glyph glyph-name="gcircumflex.alt" horiz-adv-x="613" 
d="M447 614l-125 88l-129 -88l-58 75l188 123l180 -123zM274 -230q-115 0 -194 32l22 113q90 -28 175 -28q64 0 98 24.5t34 89.5v25q-49 -32 -114 -32q-254 0 -254 263q0 154 81.5 228.5t218.5 74.5q91 0 201 -26v-550q0 -106 -76 -160t-192 -54zM318 95q44 0 90 24v318
q-48 12 -79 12q-155 0 -155 -184q0 -91 36.5 -130.5t107.5 -39.5z" />
    <glyph glyph-name="gcommaaccent.alt" horiz-adv-x="613" 
d="M258 616l43 213h94l-21 -213h-116zM274 -230q-115 0 -194 32l22 113q90 -28 175 -28q64 0 98 24.5t34 89.5v25q-49 -32 -114 -32q-254 0 -254 263q0 154 81.5 228.5t218.5 74.5q91 0 201 -26v-550q0 -106 -76 -160t-192 -54zM318 95q44 0 90 24v318q-48 12 -79 12
q-155 0 -155 -184q0 -91 36.5 -130.5t107.5 -39.5z" />
    <glyph glyph-name="gdotaccent.alt" horiz-adv-x="613" 
d="M274 -230q-115 0 -194 32l22 113q90 -28 175 -28q64 0 98 24.5t34 89.5v25q-49 -32 -114 -32q-254 0 -254 263q0 154 81.5 228.5t218.5 74.5q91 0 201 -26v-550q0 -106 -76 -160t-192 -54zM318 95q44 0 90 24v318q-48 12 -79 12q-155 0 -155 -184q0 -91 36.5 -130.5
t107.5 -39.5zM251 653v128h133v-128h-133z" />
    <glyph glyph-name="i.alt" horiz-adv-x="309" 
d="M190 -11q-120 0 -120 137v420h134v-397q0 -48 49 -50q13 0 21 1l7 -100q-35 -11 -91 -11zM75 653v128h133v-128h-133z" />
    <glyph glyph-name="l.alt" horiz-adv-x="309" 
d="M190 -11q-120 0 -120 137v628h134v-605q0 -48 49 -50q13 0 21 1l7 -100q-35 -11 -91 -11z" />
    <glyph glyph-name="iacute.alt" horiz-adv-x="309" 
d="M76 608l-40 80l219 124l47 -94zM190 -11q-120 0 -120 137v420h134v-397q0 -48 49 -50q13 0 21 1l7 -100q-35 -11 -91 -11z" />
    <glyph glyph-name="igrave.alt" horiz-adv-x="309" 
d="M190 -11q-120 0 -120 137v420h134v-397q0 -48 49 -50q13 0 21 1l7 -100q-35 -11 -91 -11zM193 607l-224 111l46 95l220 -125z" />
    <glyph glyph-name="icircumflex.alt" horiz-adv-x="309" 
d="M268 614l-125 88l-129 -88l-58 75l188 123l180 -123zM190 -11q-120 0 -120 137v420h134v-397q0 -48 49 -50q13 0 21 1l7 -100q-35 -11 -91 -11z" />
    <glyph glyph-name="idieresis.alt" horiz-adv-x="309" 
d="M75 653h-127v128h127v-128zM324 653h-126v128h126v-128zM190 -11q-120 0 -120 137v420h134v-397q0 -48 49 -50q13 0 21 1l7 -100q-35 -11 -91 -11z" />
    <glyph glyph-name="ibreve.alt" horiz-adv-x="309" 
d="M190 -11q-120 0 -120 137v420h134v-397q0 -48 49 -50q13 0 21 1l7 -100q-35 -11 -91 -11zM141 625q-120 0 -181 101l70 60q59 -61 115 -61q60 0 112 61l66 -59q-66 -102 -182 -102z" />
    <glyph glyph-name="dotlessi.alt" horiz-adv-x="309" 
d="M190 -11q-120 0 -120 137v420h134v-397q0 -48 49 -50q13 0 21 1l7 -100q-35 -11 -91 -11z" />
    <glyph glyph-name="imacron.alt" horiz-adv-x="309" 
d="M-14 654v105h305v-105h-305zM190 -11q-120 0 -120 137v420h134v-397q0 -48 49 -50q13 0 21 1l7 -100q-35 -11 -91 -11z" />
    <glyph glyph-name="itilde.alt" horiz-adv-x="309" 
d="M190 -11q-120 0 -120 137v420h134v-397q0 -48 49 -50q13 0 21 1l7 -100q-35 -11 -91 -11zM195 638q-26 0 -66.5 18.5t-59.5 18.5q-37 0 -70 -27l-51 64q62 68 130 68q32 0 69.5 -19t53.5 -19q34 0 80 27l46 -63q-64 -68 -132 -68z" />
    <glyph glyph-name="lacute.alt" horiz-adv-x="309" 
d="M190 -11q-120 0 -120 137v628h134v-605q0 -48 49 -50q13 0 21 1l7 -100q-35 -11 -91 -11zM73 790l-21 90l251 73l25 -106z" />
    <glyph glyph-name="lcaron.alt" horiz-adv-x="346" 
d="M190 -11q-120 0 -120 137v628h134v-605q0 -48 49 -50q13 0 21 1l7 -100q-35 -11 -91 -11zM387 754l-43 -213h-94l21 213h116z" />
    <glyph glyph-name="lcommaaccent.alt" horiz-adv-x="309" 
d="M237 -59l-43 -213h-94l21 213h116zM190 -11q-120 0 -120 137v628h134v-605q0 -48 49 -50q13 0 21 1l7 -100q-35 -11 -91 -11z" />
    <glyph glyph-name="ldot.alt" horiz-adv-x="428" 
d="M190 -11q-120 0 -120 137v628h134v-605q0 -48 49 -50q13 0 21 1l7 -100q-35 -11 -91 -11zM271 300v136h151v-136h-151z" />
    <glyph glyph-name="lslash.alt" horiz-adv-x="369" 
d="M226 -11q-120 0 -120 137v185l-86 -50l-1 95l87 50v348h134v-271l89 51v-94l-89 -52v-239q0 -48 49 -50q13 0 21 1l7 -100q-35 -11 -91 -11z" />
    <glyph glyph-name="questiondown.cap" horiz-adv-x="409" 
d="M342 -3q-303 23 -303 204q0 34 19 66t46.5 55t55 44t46.5 42.5t19 40.5q0 29 -14 63l109 19q22 -48 22 -90q0 -36 -17 -68t-41 -54.5t-48 -42t-41 -38t-17 -34.5q0 -81 188 -96zM190 583v124h137v-124h-137z" />
    <glyph glyph-name="question.smcp" horiz-adv-x="381" 
d="M340 447q0 -34 -23.5 -65t-51 -51t-51 -43.5t-23.5 -44.5q0 -27 9 -49l-110 -19q-17 39 -17 74t20.5 67t45 51.5t45 40t20.5 35.5q0 30 -35.5 48t-119.5 27l25 107q266 -20 266 -178zM211 0h-138v124h138v-124z" />
    <glyph glyph-name="questiondown.smcp" horiz-adv-x="351" 
d="M27 99q0 34 23.5 65t51 51t51 43.5t23.5 44.5q0 24 -10 49l110 19q17 -39 17 -74t-20.5 -66.5t-45 -50.5t-45 -40t-20.5 -37q0 -71 155 -75l-25 -107q-265 20 -265 178zM156 546h137v-124h-137v124z" />
    <glyph glyph-name="exclamdown.cap" horiz-adv-x="311" 
d="M89 0v332l8 173h118l7 -173v-332h-133zM87 583v124h139v-124h-139z" />
    <glyph glyph-name="exclam.smcp" horiz-adv-x="325" 
d="M230 375l-8 -173h-118l-8 173v232h134v-232zM232 0h-139v124h139v-124z" />
    <glyph glyph-name="exclamdown.smcp" horiz-adv-x="291" 
d="M79 172l7 173h118l9 -173v-233h-134v233zM76 546h139v-124h-139v124z" />
    <glyph glyph-name="uni203D.smcp" horiz-adv-x="403" 
d="M103 202l-8 123v130h106v-90q44 39 44 73q0 71 -178 85l21 101q267 -18 267 -174q0 -25 -9 -47.5t-18.5 -37t-32 -32t-32 -23.5t-36.5 -21t-30 -17l-4 -70h-90zM81 0v124h138v-124h-138z" />
    <glyph glyph-name="hyphen.cap" horiz-adv-x="449" 
d="M75 299v108h298v-108h-298z" />
    <glyph glyph-name="endash.cap" horiz-adv-x="623" 
d="M75 306v94h472v-94h-472z" />
    <glyph glyph-name="emdash.cap" horiz-adv-x="941" 
d="M75 306v94h791v-94h-791z" />
    <glyph glyph-name="slash.smcp" horiz-adv-x="380" 
d="M44 -62l190 678h118l-189 -678h-119z" />
    <glyph glyph-name="backslash.smcp" horiz-adv-x="379" 
d="M217 -62l-190 678h119l190 -678h-119z" />
    <glyph glyph-name="parenleft.cap" horiz-adv-x="359" 
d="M340 -81l-64 -70q-108 80 -173 206t-65 291q0 160 65.5 285.5t171.5 196.5l68 -67q-183 -158 -183 -414q0 -126 47.5 -237.5t132.5 -190.5z" />
    <glyph glyph-name="parenright.cap" horiz-adv-x="350" 
d="M75 -151l-64 70q85 79 132.5 190.5t47.5 237.5q0 256 -183 414l68 67q106 -71 171.5 -196.5t65.5 -285.5q0 -165 -65 -291t-173 -206z" />
    <glyph glyph-name="bracketleft.cap" horiz-adv-x="336" 
d="M73 -132v974h234v-104h-107v-766h107v-104h-234z" />
    <glyph glyph-name="bracketright.cap" horiz-adv-x="336" 
d="M29 -132v104h107v766h-107v104h234v-974h-234z" />
    <glyph glyph-name="braceleft.cap" horiz-adv-x="367" 
d="M293 -142q-99 0 -152 34.5t-53 118.5q0 9 2 29l21 192q3 25 -17.5 46.5t-61.5 21.5v106q41 0 61.5 21t17.5 46l-21 196q-2 22 -2 31q1 81 54 115.5t151 34.5h44v-112h-40q-43 0 -63 -21.5t-16 -58.5l21 -176q12 -96 -68 -127v-2q80 -36 68 -128l-21 -176
q-4 -36 15.5 -57.5t63.5 -21.5h40v-112h-44z" />
    <glyph glyph-name="braceright.cap" horiz-adv-x="367" 
d="M72 -140h-45v112h41q44 0 63.5 21.5t15.5 57.5l-21 176q-12 92 68 128v2q-80 31 -68 127l21 176q4 37 -16 58.5t-63 21.5h-41v112h45q97 0 150 -34.5t55 -115.5q0 -9 -2 -31l-21 -196q-3 -25 17.5 -46t61.5 -21v-106q-42 0 -62 -21.5t-17 -46.5l21 -192q2 -20 2 -29
q0 -84 -53 -118.5t-152 -34.5z" />
    <glyph glyph-name="uni301A.cap" horiz-adv-x="573" 
d="M73 -132v974h435v-104h-107v-766h107v-104h-435zM193 738v-766h88v766h-88z" />
    <glyph glyph-name="uni301B.cap" horiz-adv-x="537" 
d="M464 842v-974h-435v104h107v766h-107v104h435zM344 -28v766h-88v-766h88z" />
    <glyph glyph-name="dblparenleft" horiz-adv-x="555" 
d="M337 -150l-64 -70q-108 80 -173 206t-65 291q0 160 65.5 285.5t171.5 196.5l68 -67q-190 -164 -190 -414q0 -124 50 -235.5t137 -192.5zM540 -106l-64 -71q-104 77 -163.5 194.5t-59.5 259.5q0 137 58.5 252t158.5 189l68 -67q-85 -73 -128 -161.5t-43 -211.5
q0 -119 43 -211t130 -173z" />
    <glyph glyph-name="dblparenleft.cap" horiz-adv-x="560" 
d="M340 -81l-64 -70q-108 80 -173 206t-65 291q0 160 65.5 285.5t171.5 196.5l68 -67q-190 -164 -190 -414q0 -124 50 -235.5t137 -192.5zM543 -37l-64 -71q-104 77 -163.5 194.5t-59.5 259.5q0 137 58.5 252t158.5 189l68 -67q-85 -73 -128 -161.5t-43 -211.5
q0 -119 43 -211t130 -173z" />
    <glyph glyph-name="dblparenright" horiz-adv-x="553" 
d="M280 -220l-64 70q87 81 137 192.5t50 235.5q0 250 -190 414l68 67q106 -71 171 -196.5t65 -285.5q0 -165 -64.5 -291.5t-172.5 -205.5zM77 -177l-64 71q87 81 130 173t43 211q0 123 -43 211.5t-129 161.5l68 67q100 -74 159 -189.5t59 -251.5q0 -142 -59.5 -259.5
t-163.5 -194.5z" />
    <glyph glyph-name="dblparenright.cap" horiz-adv-x="554" 
d="M278 -151l-64 70q87 81 137 192.5t50 235.5q0 250 -190 414l68 67q106 -71 171 -196.5t65 -285.5q0 -165 -64.5 -291.5t-172.5 -205.5zM75 -108l-64 71q87 81 130 173t43 211q0 123 -43 211.5t-129 161.5l68 67q100 -74 159 -189.5t59 -251.5q0 -142 -59.5 -259.5
t-163.5 -194.5z" />
    <glyph glyph-name="section.pln" horiz-adv-x="585" 
d="M138 -219q-74 0 -122 40l36 98q47 -34 84 -34q22 0 31.5 24.5t9.5 52.5q0 39 -14 113l-67 316q-10 53 -10 98q0 121 92.5 196.5t224.5 75.5q99 0 162 -55q-48 -78 -56 -86q-47 39 -104 39q-46 0 -46 -58q0 -29 9 -79l69 -306q20 -103 20 -168q0 -114 -93.5 -190.5
t-225.5 -76.5zM274 -105q69 62 69 143q0 38 -11 99l-72 340q-8 42 -8 88q0 43 9 78q-59 -43 -59 -139q-1 -38 8 -89l72 -342q9 -52 9 -84q0 -29 -17 -94z" />
    <glyph glyph-name="numbersign.pln" horiz-adv-x="692" 
d="M636 149h-110l-9 -149h-127l9 149h-130l-9 -149h-127l9 149h-86v108h93l11 181h-104v108h113l9 161h128l-10 -161h129l10 161h127l-10 -161h84v-108h-91l-13 -181h104v-108zM417 438h-129l-12 -181h130z" />
    <glyph glyph-name="ordfeminine.smcp" horiz-adv-x="447" 
d="M57 394l127 316h95l110 -316h-82l-27 82h-112l-31 -82h-80zM52 288v70h344v-70h-344zM191 534h69l-32 105z" />
    <glyph glyph-name="quotedblleft.smcp" horiz-adv-x="408" 
d="M50 507q0 95 54 168h89q-31 -58 -31 -129v-115h-112v76zM229 507q0 94 55 168h88q-30 -59 -30 -129v-115h-113v76z" />
    <glyph glyph-name="quotedblright.smcp" horiz-adv-x="406" 
d="M362 599q0 -95 -54 -168h-88q30 59 30 130v114h112v-76zM183 599q0 -95 -54 -168h-89q30 59 30 130v114h113v-76z" />
    <glyph glyph-name="quoteleft.smcp" horiz-adv-x="228" 
d="M50 507q0 95 54 168h89q-31 -58 -31 -129v-115h-112v76z" />
    <glyph glyph-name="quoteright.smcp" horiz-adv-x="227" 
d="M183 599q0 -95 -54 -168h-89q30 59 30 130v114h113v-76z" />
    <glyph glyph-name="guilsinglright.cap" horiz-adv-x="285" 
d="M129 127l-84 42l88 184l-90 190l86 34l120 -224z" />
    <glyph glyph-name="guilsinglleft.cap" horiz-adv-x="285" 
d="M155 124l-120 226l119 224l86 -34l-89 -190l88 -185z" />
    <glyph glyph-name="guillemotleft.cap" horiz-adv-x="489" 
d="M155 126l-120 226l119 224l86 -34l-89 -190l88 -185zM359 126l-120 226l119 224l86 -34l-89 -190l88 -185z" />
    <glyph glyph-name="guillemotright.cap" horiz-adv-x="488" 
d="M129 127l-84 41l88 185l-90 190l86 34l120 -224zM333 127l-84 41l88 185l-90 190l86 34l119 -224z" />
    <glyph glyph-name="asterisk.alt" horiz-adv-x="330" 
d="M296 698l-80 -57l31 -96l-80 60l-81 -60l30 96l-79 57l99 1l31 93l30 -93z" />
    <glyph glyph-name="f_i" horiz-adv-x="662" 
d="M107 0v450h-80v96h80v30q0 204 211 204q22 0 66 -3t65 -3q69 0 120 6l20 -101q-63 -21 -147 -21q-20 0 -60 2.5t-65 2.5q-42 0 -59.5 -19.5t-17.5 -68.5v-29h348v-546h-134v450h-215v-450h-132z" />
    <glyph glyph-name="f_l" horiz-adv-x="662" 
d="M107 0v450h-80v96h80v29q0 108 58.5 156t152.5 48q20 0 64 -3t67 -3q52 -1 139 9v-782h-134v658q-23 -1 -66.5 2t-70.5 3q-42 0 -59.5 -20.5t-17.5 -65.5v-31h117v-96h-118v-450h-132z" />
    <glyph glyph-name="f_i.alt" horiz-adv-x="662" 
d="M107 0v450h-80v96h80v30q0 204 211 204q22 0 66 -3t65 -3q69 0 120 6l20 -101q-63 -21 -147 -21q-20 0 -60 2.5t-65 2.5q-42 0 -59.5 -19.5t-17.5 -68.5v-29h348v-546h-134v450h-215v-450h-132z" />
    <glyph glyph-name="f_l.alt" horiz-adv-x="662" 
d="M107 0v450h-80v96h80v29q0 108 58.5 156t152.5 48q20 0 64 -3t67 -3q52 -1 139 9v-782h-134v658q-23 -1 -66.5 2t-70.5 3q-42 0 -59.5 -20.5t-17.5 -65.5v-31h117v-96h-118v-450h-132z" />
    <glyph glyph-name="f_h.alt" horiz-adv-x="1018" 
d="M107 -171v623h-80v94h80v29q0 110 58.5 158.5t152.5 48.5q22 0 65.5 -3.5t65.5 -3.5q52 -1 139 9v-294q102 71 183 71q60 0 98 -16.5t54.5 -50t21.5 -65.5t5 -82v-347h-133v332q0 62 -18 87.5t-70 25.5q-56 0 -141 -46v-399h-134v660q-23 -1 -66.5 2.5t-71.5 3.5
q-41 0 -58.5 -21.5t-17.5 -70.5v-28h116v-94h-117v-623h-132z" />
    <glyph glyph-name="f_b.alt" horiz-adv-x="1003" 
d="M672 -10q-117 0 -217 32v636q-23 -1 -67 2t-71 3q-42 0 -59.5 -20.5t-17.5 -65.5v-31h117v-96h-118v-621h-132v621h-80v96h80v29q0 108 58.5 156t152.5 48q20 0 64 -3t67 -3q52 -1 139 9v-245q59 23 126 23q247 0 247 -260q0 -84 -23.5 -146t-65 -97t-91.5 -51t-109 -16z
M690 459q-18 0 -34 -2t-23 -4t-23.5 -7t-21.5 -7v-332q50 -12 87 -12q71 0 110.5 56t39.5 142q0 85 -30 125.5t-105 40.5z" />
    <glyph glyph-name="f_j.alt" horiz-adv-x="662" 
d="M376 -227q-39 0 -93 18l25 107q24 -8 71 -8q42 0 58.5 22.5t16.5 77.5v462h-215v-620h-132v620h-80v94h80v27q0 111 58 159.5t153 48.5q20 0 63.5 -3t67.5 -3q69 0 119 6l21 -101q-61 -21 -147 -21q-21 0 -61 2.5t-65 2.5q-41 0 -58.5 -21.5t-17.5 -69.5v-27h348v-555
q0 -124 -56.5 -171t-155.5 -47z" />
    <glyph glyph-name="f_k.alt" horiz-adv-x="956" 
d="M948 0h-164l-196 257v-257h-134v660q-23 -1 -66.5 2.5t-71.5 3.5q-41 0 -58.5 -21.5t-17.5 -70.5v-28h116v-94h-117v-623h-132v623h-80v94h80v29q0 110 58.5 158.5t152.5 48.5q22 0 65.5 -3.5t65.5 -3.5q53 -1 139 9v-475l190 237h146l-212 -253z" />
    <glyph glyph-name="f_f.alt" horiz-adv-x="721" 
d="M107 -171v622h-80v95h80v36q0 198 221 198q103 0 195 -33q46 33 143 33q68 0 128 -20l-26 -104q-51 10 -97 10q-83 0 -83 -84v-36h118v-95h-118v-622h-133v622h-215v-622h-133zM240 546h215v43q0 36 8 60q-63 17 -138 17q-85 0 -85 -84v-36z" />
    <glyph glyph-name="f_f_i.alt" horiz-adv-x="1010" 
d="M107 -171v621h-80v96h80v36q0 198 216 198q115 0 205 -35q54 37 138 37q22 0 66 -3t65 -3q69 0 119 6l21 -101q-64 -21 -146 -21q-21 0 -61.5 3t-65.5 3q-41 0 -58 -21.5t-17 -70.5v-28h348v-546h-134v450h-214v-621h-134v621h-214v-621h-134zM241 546h215v29q0 47 9 74
q-72 17 -140 17q-84 0 -84 -84v-36z" />
    <glyph glyph-name="f_f_l.alt" horiz-adv-x="1006" 
d="M107 -171v622h-80v95h80v36q0 198 221 198q107 0 200 -35q53 37 137 37q22 0 66 -3.5t66 -3.5q50 -1 135 9v-784h-133v660q-21 0 -63.5 3t-71.5 3q-41 0 -58.5 -21.5t-17.5 -69.5v-29h116v-95h-116v-622h-133v622h-214v-622h-134zM241 546h214v29q0 43 9 73
q-64 18 -139 18q-84 0 -84 -84v-36z" />
    <glyph glyph-name="f_f_j.alt" horiz-adv-x="1010" 
d="M728 -223q-43 0 -92 19l25 104q36 -9 67 -9q42 0 58 24t17 79v456h-214v-620h-134v620h-214v-620h-134v620h-80v96h80v36q0 198 216 198q115 0 205 -35q54 37 138 37q22 0 66 -3t65 -3q69 0 119 6l21 -101q-64 -21 -146 -21q-21 0 -61.5 3t-65.5 3q-41 0 -58 -21.5
t-17 -70.5v-28h348l-1 -552q-1 -123 -56.5 -170t-151.5 -47zM241 546h215v29q0 47 9 74q-72 17 -140 17q-84 0 -84 -84v-36z" />
    <glyph glyph-name="f_idieresis.alt" horiz-adv-x="669" 
d="M107 -171v621h-80v96h80v41q0 181 179 181q44 0 84 -14l-21 -100q-22 9 -53 9q-56 0 -56 -70v-47h113v-96h-113v-621h-133zM462 0v546h134v-546h-134zM398 648v108h110v-108h-110zM589 648v108h110v-108h-110z" />
    <glyph glyph-name="f_igrave.alt" horiz-adv-x="669" 
d="M107 -171v621h-80v96h80v41q0 181 175 181q57 0 97 -13l-21 -104q-29 12 -65 12q-53 0 -53 -70v-47h113v-96h-113v-621h-133zM555 597l-151 164l80 69l141 -175zM462 0v546h134v-546h-134z" />
    <glyph glyph-name="germandbls.alt" horiz-adv-x="638" 
d="M74 -171v717q0 222 237 222q31 0 63 -7t68 -24t59 -53t23 -87q0 -34 -17 -67t-38 -53.5t-38 -44.5t-17 -43q0 -24 21 -44t50.5 -35.5t59 -34t50.5 -49.5t21 -72q0 -45 -19 -79t-49.5 -52t-63.5 -26.5t-67 -8.5q-102 0 -159 21l17 104q71 -17 116 -17q95 0 95 49
q0 22 -21 39t-51 32t-59.5 33.5t-50.5 53t-21 80.5q0 37 25 74t50 70.5t25 62.5q0 31 -24.5 50t-57.5 19q-53 0 -74 -29t-21 -85v-716h-132z" />
    <glyph glyph-name="ampersand.alt" horiz-adv-x="717" 
d="M570 374l81 -59q-51 -97 -108 -169q89 -46 163 -57l-19 -98q-102 6 -224 75q-97 -78 -215 -78q-98 0 -152.5 43.5t-54.5 126.5q0 101 123 191q-52 88 -52 167q0 80 52 140.5t149 60.5q89 0 135.5 -52t46.5 -119q0 -36 -14.5 -66.5t-46 -59t-54.5 -44.5t-68 -44
q59 -73 144 -133q65 73 114 175zM227 520q0 -52 32 -110q61 38 93 69t32 67q0 30 -21.5 50.5t-56.5 20.5q-36 0 -57.5 -23.5t-21.5 -73.5zM255 89q57 0 116 37q-86 65 -151 143q-59 -49 -59 -99q0 -38 26.5 -59.5t67.5 -21.5z" />
    <glyph glyph-name="ampersand.smcp" horiz-adv-x="757" 
d="M305 -11q-125 0 -195.5 74.5t-70.5 204.5q0 134 76 212.5t199 78.5q91 0 152 -30l-39 -89q-53 21 -116 21q-75 0 -109 -54t-34 -135q0 -180 145 -180q129 0 140 153h-173v100h324q56 0 83 36l66 -65q-38 -70 -136 -71h-35q-5 -109 -76 -182.5t-201 -73.5z" />
    <glyph glyph-name="caron.alt" horiz-adv-x="666" 
d="M426 754l-43 -213h-94l21 213h116z" />
    <glyph glyph-name="acute.cap" horiz-adv-x="694" 
d="M233 745l-21 90l251 73l25 -106z" />
    <glyph glyph-name="breve.cap" horiz-adv-x="500" 
d="M255 759q-120 0 -181 101l70 61q58 -62 115 -62q60 0 112 61l66 -59q-68 -102 -182 -102z" />
    <glyph glyph-name="caron.cap" horiz-adv-x="562" 
d="M459 830l-180 -88l-177 89l46 87l131 -60l132 59z" />
    <glyph glyph-name="circumflex.cap" horiz-adv-x="593" 
d="M169 745l-47 86l179 89l176 -88l-47 -87l-130 59z" />
    <glyph glyph-name="dieresis.cap" horiz-adv-x="400" 
d="M148 764h-127v127h127v-127zM390 764h-126v127h126v-127z" />
    <glyph glyph-name="dotaccent.cap" horiz-adv-x="292" 
d="M79 775v128h134v-128h-134z" />
    <glyph glyph-name="hungarumlaut.cap" horiz-adv-x="756" 
d="M393 878l-216 -141l-55 78l206 154zM668 793l-253 -53l-21 92l248 69z" />
    <glyph glyph-name="grave.cap" horiz-adv-x="648" 
d="M441 745l-256 55l25 107l252 -72z" />
    <glyph glyph-name="macron.cap" horiz-adv-x="550" 
d="M118 772v105h305v-105h-305z" />
    <glyph glyph-name="tilde.cap" horiz-adv-x="696" 
d="M410 755q-25 0 -66 18.5t-59 18.5q-38 0 -70 -26l-51 63q62 68 127 68q33 0 70.5 -19t51.5 -19q35 0 78 26l46 -62q-59 -68 -127 -68z" />
    <glyph glyph-name="commaaccent" horiz-adv-x="232" 
d="M181 -59l-43 -213h-94l21 213h116z" />
    <glyph glyph-name="zero.zero" horiz-adv-x="677" 
d="M334 -12q-142 0 -216 70t-74 210q0 139 78.5 215.5t223.5 76.5q142 0 214.5 -74.5t72.5 -203.5q0 -146 -80 -220t-219 -74zM338 99q71 0 115 46.5t44 133.5q0 57 -21 94l-233 -247q39 -27 95 -27zM200 178l231 246q-37 25 -89 25q-76 0 -119 -46t-43 -133q0 -50 20 -92z
" />
    <glyph glyph-name="zero.opencirc" horiz-adv-x="840" 
d="M420 -5q-149 0 -254.5 105t-105.5 254t105.5 254t254.5 105t254.5 -105t105.5 -254q0 -148 -105.5 -253.5t-254.5 -105.5zM420 63q121 0 206 85t85 206t-85 206t-206 85t-206 -85t-85 -206t85 -206t206 -85zM415 166q-162 0 -162 183q0 37 8 69t26 61.5t53 46t84 16.5
q159 0 159 -182q0 -86 -39.5 -140t-128.5 -54zM418 240q64 0 64 116q0 106 -62 106q-39 0 -52.5 -30t-13.5 -81q0 -111 64 -111z" />
    <glyph glyph-name="zero.closecirc" horiz-adv-x="840" 
d="M420 -5q-149 0 -254.5 105t-105.5 254t105.5 254t254.5 105t254.5 -105t105.5 -254q0 -148 -105.5 -253.5t-254.5 -105.5zM415 166q89 0 128.5 54t39.5 140q0 182 -159 182q-49 0 -84 -16.5t-53 -46t-26 -61.5t-8 -69q0 -183 162 -183zM418 240q-64 0 -64 111
q0 51 13.5 81t52.5 30q62 0 62 -106q0 -116 -64 -116z" />
    <glyph glyph-name="zero.closecirc_fina" horiz-adv-x="420" 
d="M132 227q115 0 115 140q0 26 -3.5 45t-13.5 40.5t-33.5 33.5t-58.5 12q-116 0 -116 -139q0 -60 23 -96t87 -36zM134 283q-41 0 -41 77q0 37 8 57t34 20q41 0 41 -73q0 -39 -8.5 -60t-33.5 -21zM0 -5v718q149 0 254.5 -105t105.5 -254t-105.5 -254t-254.5 -105z" />
    <glyph glyph-name="one.closecirc_fina" horiz-adv-x="420" 
d="M0 -5v718q149 0 254.5 -105t105.5 -254t-105.5 -254t-254.5 -105zM101 229h76v265l-132 -3v-58h56v-204z" />
    <glyph glyph-name="two.closecirc_fina" horiz-adv-x="420" 
d="M25 229h200v61h-110q107 58 107 123q0 36 -26.5 60.5t-70.5 24.5q-54 0 -94 -33l25 -50q26 19 56 19q14 0 24 -8t10 -21q0 -42 -121 -127v-49zM0 -5v718q149 0 254.5 -105t105.5 -254t-105.5 -254t-254.5 -105z" />
    <glyph glyph-name="three.closecirc_fina" horiz-adv-x="420" 
d="M108 225q111 0 111 84q0 48 -47 64q34 14 34 54q0 71 -95 71q-45 0 -79 -18l17 -50q26 12 54 12q13 0 21 -7t8 -15q0 -17 -11 -25t-42 -11v-34q34 -1 49 -8t15 -26q0 -31 -42 -31q-33 0 -65 7l-12 -55q40 -12 84 -12zM0 -5v718q149 0 254.5 -105t105.5 -254t-105.5 -254
t-254.5 -105z" />
    <glyph glyph-name="four.closecirc_fina" horiz-adv-x="420" 
d="M129 229h69v59h39v54h-39v152h-105l-79 -150v-56h115v-59zM0 -5v718q149 0 254.5 -105t105.5 -254t-105.5 -254t-254.5 -105zM65 342l64 112v-112h-64z" />
    <glyph glyph-name="five.closecirc_fina" horiz-adv-x="420" 
d="M0 -5v718q149 0 254.5 -105t105.5 -254t-105.5 -254t-254.5 -105zM106 224q47 0 79 25t32 68q0 82 -102 82h-12v37h101v59h-168v-152q28 3 62 3q43 0 43 -35q0 -15 -9.5 -25.5t-27.5 -10.5q-21 0 -67 11l-13 -50q50 -12 82 -12z" />
    <glyph glyph-name="six.closecirc_fina" horiz-adv-x="420" 
d="M130 226q47 0 77 23.5t30 73.5q0 74 -91 74q-25 0 -52 -15q5 27 21 42t38 15q28 0 52 -6l18 56q-38 11 -73 11q-59 0 -95.5 -40t-36.5 -113q0 -67 27.5 -94t84.5 -27zM132 281q-22 0 -30 14.5t-8 50.5q30 7 35 7q32 0 32 -34q0 -16 -8.5 -27t-20.5 -11zM0 -5v718
q149 0 254.5 -105t105.5 -254t-105.5 -254t-254.5 -105z" />
    <glyph glyph-name="seven.closecirc_fina" horiz-adv-x="420" 
d="M102 223l116 213v58h-192v-68h121l-118 -187zM0 -5v718q149 0 254.5 -105t105.5 -254t-105.5 -254t-254.5 -105z" />
    <glyph glyph-name="eight.closecirc_fina" horiz-adv-x="420" 
d="M127 227q51 0 80.5 21t29.5 58q0 42 -48 66q41 24 41 60q0 31 -28 49.5t-71 18.5t-72.5 -18t-29.5 -54t36 -58q-47 -27 -47 -69q0 -74 109 -74zM129 278q-36 0 -36 29q0 25 19 38q49 -21 49 -37q0 -30 -32 -30zM137 395q-37 14 -37 30q0 23 29 23q26 0 26 -22
q0 -16 -18 -31zM0 -5v718q149 0 254.5 -105t105.5 -254t-105.5 -254t-254.5 -105z" />
    <glyph glyph-name="nine.closecirc_fina" horiz-adv-x="420" 
d="M109 226q58 0 95 40.5t37 113.5q0 66 -27.5 93t-84.5 27q-47 0 -77 -23t-30 -73q0 -74 91 -74q25 0 52 15q-5 -27 -21.5 -42.5t-37.5 -15.5q-30 0 -52 7l-18 -56q42 -12 73 -12zM130 374q-32 0 -32 33q0 39 29 39q21 0 29 -15t9 -50q-23 -7 -35 -7zM0 -5v718
q149 0 254.5 -105t105.5 -254t-105.5 -254t-254.5 -105z" />
    <glyph glyph-name="zero.closecirc_init" horiz-adv-x="420" 
d="M287 227q115 0 115 140q0 26 -3.5 45t-13.5 40.5t-33.5 33.5t-58.5 12q-117 0 -117 -139q0 -59 23.5 -95.5t87.5 -36.5zM289 283q-23 0 -32 19t-9 59q0 37 8 57t34 20q41 0 41 -74q0 -39 -8.5 -60t-33.5 -21zM420 -5q-149 0 -254.5 105t-105.5 254t105.5 254t254.5 105
v-718z" />
    <glyph glyph-name="one.closecirc_init" horiz-adv-x="420" 
d="M420 -5q-149 0 -254.5 105t-105.5 254t105.5 254t254.5 105v-718zM283 229h76v266l-132 -3v-59h56v-204z" />
    <glyph glyph-name="two.closecirc_init" horiz-adv-x="420" 
d="M203 229h200v61h-110q107 58 107 123q0 36 -26.5 60.5t-70.5 24.5q-54 0 -94 -33l25 -50q26 19 56 19q14 0 24 -8t10 -21q0 -42 -121 -127v-49zM420 -5q-149 0 -254.5 105t-105.5 254t105.5 254t254.5 105v-718z" />
    <glyph glyph-name="three.closecirc_init" horiz-adv-x="420" 
d="M286 225q111 0 111 84q0 48 -47 64q34 14 34 54q0 71 -95 71q-45 0 -78 -18l16 -50q27 12 55 12q13 0 20.5 -7t7.5 -15q0 -17 -11 -25t-42 -11v-34q35 -1 50 -8t15 -26q0 -31 -43 -31q-33 0 -65 7l-12 -55q40 -12 84 -12zM420 -5q-149 0 -254.5 105t-105.5 254t105.5 254
t254.5 105v-718z" />
    <glyph glyph-name="four.closecirc_init" horiz-adv-x="420" 
d="M297 229h69v59h39v54h-39v152h-105l-79 -150v-56h115v-59zM420 -5q-149 0 -254.5 105t-105.5 254t105.5 254t254.5 105v-718zM233 342l64 112v-112h-64z" />
    <glyph glyph-name="five.closecirc_init" horiz-adv-x="420" 
d="M420 -5q-149 0 -254.5 105t-105.5 254t105.5 254t254.5 105v-718zM286 224q47 0 79 25t32 68q0 82 -102 82h-12v37h101v58h-168v-151q19 2 63 2q43 0 43 -35q0 -36 -38 -36q-22 0 -67 12l-13 -51q58 -11 82 -11z" />
    <glyph glyph-name="six.closecirc_init" horiz-adv-x="420" 
d="M295 226q47 0 77.5 23.5t30.5 73.5q0 74 -92 74q-25 0 -52 -15q5 27 21 42t38 15q28 0 52 -6l18 56q-37 11 -73 11q-58 0 -95 -40t-37 -113q0 -67 27.5 -94t84.5 -27zM297 281q-22 0 -29.5 14t-8.5 51q30 7 35 7q33 0 33 -34q0 -16 -8.5 -27t-21.5 -11zM420 -5
q-149 0 -254.5 105t-105.5 254t105.5 254t254.5 105v-718z" />
    <glyph glyph-name="seven.closecirc_init" horiz-adv-x="420" 
d="M420 -5q-149 0 -254.5 105t-105.5 254t105.5 254t254.5 105v-718zM289 223l116 213v58h-193v-68h122l-118 -187z" />
    <glyph glyph-name="eight.closecirc_init" horiz-adv-x="420" 
d="M293 227q51 0 80.5 21t29.5 58q0 42 -48 66q41 25 41 60q0 31 -28 49.5t-71 18.5t-72.5 -18t-29.5 -54q0 -37 35 -58q-46 -28 -46 -69q0 -74 109 -74zM295 278q-36 0 -36 29q0 26 18 38q50 -20 50 -37q0 -30 -32 -30zM302 395q-36 15 -36 30q0 23 29 23q26 0 26 -22
q0 -16 -19 -31zM420 -5q-149 0 -254.5 105t-105.5 254t105.5 254t254.5 105v-718z" />
    <glyph glyph-name="nine.closecirc_init" horiz-adv-x="420" 
d="M270 226q58 0 95 40.5t37 113.5q0 66 -27.5 93t-83.5 27q-47 0 -77.5 -23t-30.5 -73q0 -74 91 -74q25 0 52 15q-5 -27 -21 -42.5t-38 -15.5q-30 0 -52 7l-18 -56q42 -12 73 -12zM291 374q-32 0 -32 33q0 18 8.5 28.5t21.5 10.5q20 0 28 -15t9 -50q-23 -7 -35 -7zM420 -5
q-149 0 -254.5 105t-105.5 254t105.5 254t254.5 105v-718z" />
    <glyph glyph-name="zero.closecirc_medi" horiz-adv-x="230" 
d="M114 227q113 0 113 140q0 20 -1.5 35.5t-7.5 34.5t-17 31.5t-31.5 21t-49.5 8.5q-116 0 -116 -139q0 -28 4 -49t15 -41t34 -31t57 -11zM116 279q-41 0 -41 81q0 38 8 60t34 22q41 0 41 -78q0 -85 -42 -85zM0 -5v718h230v-718h-230z" />
    <glyph glyph-name="one.closecirc_medi" horiz-adv-x="230" 
d="M97 229h76v266l-132 -3v-59h56v-204zM0 -5v718h230v-718h-230z" />
    <glyph glyph-name="two.closecirc_medi" horiz-adv-x="230" 
d="M15 229h199v61h-109q107 58 107 123q0 36 -26.5 60.5t-70.5 24.5q-54 0 -95 -33l26 -50q26 19 55 19q15 0 25 -8t10 -21q0 -40 -121 -127v-49zM0 -5v718h230v-718h-230z" />
    <glyph glyph-name="three.closecirc_medi" horiz-adv-x="230" 
d="M101 225q111 0 111 84q0 48 -46 64q33 14 33 54q0 71 -95 71q-45 0 -78 -18l17 -50q25 12 54 12q13 0 20.5 -7t7.5 -15q0 -17 -11 -25t-42 -11v-34q35 -1 50 -8t15 -26q0 -31 -43 -31q-33 0 -65 7l-11 -55q38 -12 83 -12zM0 -5v718h230v-718h-230z" />
    <glyph glyph-name="four.closecirc_medi" horiz-adv-x="230" 
d="M120 229h69v59h33v54h-33v152h-105l-76 -150v-56h112v-59zM0 -5v718h230v-718h-230zM56 342l64 112v-112h-64z" />
    <glyph glyph-name="five.closecirc_medi" horiz-adv-x="230" 
d="M0 -5v718h230v-718h-230zM100 224q47 0 79 25t32 68q0 82 -102 82h-12v37h101v59h-168v-152q28 3 63 3q43 0 43 -35q0 -15 -10 -25.5t-28 -10.5q-19 0 -67 11l-13 -50q50 -12 82 -12z" />
    <glyph glyph-name="six.closecirc_medi" horiz-adv-x="230" 
d="M118 226q46 0 75 23.5t29 73.5q0 74 -89 74q-24 0 -51 -15q11 57 59 57q27 0 52 -6l18 56q-39 11 -74 11q-57 0 -92.5 -39.5t-35.5 -113.5q0 -67 26.5 -94t82.5 -27zM120 281q-22 0 -30 14.5t-8 50.5q28 7 35 7q32 0 32 -34q0 -16 -8.5 -27t-20.5 -11zM0 -5v718h230v-718
h-230z" />
    <glyph glyph-name="seven.closecirc_medi" horiz-adv-x="230" 
d="M95 223l116 213v58h-192v-68h122l-118 -187zM0 -5v718h230v-718h-230z" />
    <glyph glyph-name="eight.closecirc_medi" horiz-adv-x="230" 
d="M114 227q51 0 79.5 21t28.5 58q0 43 -46 66q41 25 41 60q0 31 -28 49.5t-71 18.5t-72.5 -18t-29.5 -54q0 -37 35 -58q-43 -26 -43 -69q0 -74 106 -74zM116 278q-36 0 -36 29q0 26 18 38q50 -20 50 -37q0 -30 -32 -30zM123 395q-36 15 -36 30q0 23 29 23q26 0 26 -22
q0 -16 -19 -31zM0 -5v718h230v-718h-230z" />
    <glyph glyph-name="nine.closecirc_medi" horiz-adv-x="230" 
d="M93 226q57 0 93 40t36 114q0 67 -26.5 93.5t-82.5 26.5q-47 0 -76 -23t-29 -73q0 -74 89 -74q24 0 52 15q-5 -27 -21.5 -42.5t-37.5 -15.5q-30 0 -52 7l-18 -56q41 -12 73 -12zM113 374q-32 0 -32 33q0 18 8.5 28.5t21.5 10.5q21 0 28.5 -15t8.5 -50q-21 -7 -35 -7zM0 -5
v718h230v-718h-230z" />
    <glyph glyph-name="zero.opencirc_fina" horiz-adv-x="420" 
d="M0 -5v68q121 0 206 85t85 206t-85 206t-206 85v68q149 0 254.5 -105t105.5 -254t-105.5 -254t-254.5 -105zM132 227q-64 0 -87 36t-23 96q0 139 116 139q35 0 58.5 -12t33.5 -33.5t13.5 -40.5t3.5 -45q0 -140 -115 -140zM134 283q25 0 33.5 21t8.5 60q0 73 -41 73
q-26 0 -34 -20t-8 -57q0 -77 41 -77z" />
    <glyph glyph-name="one.opencirc_fina" horiz-adv-x="420" 
d="M0 -5v68q121 0 206 85t85 206t-85 206t-206 85v68q149 0 254.5 -105t105.5 -254t-105.5 -254t-254.5 -105zM101 229v204h-56v58l132 3v-265h-76z" />
    <glyph glyph-name="two.opencirc_fina" horiz-adv-x="420" 
d="M25 229v49q121 85 121 127q0 13 -10 21t-24 8q-30 0 -56 -19l-25 50q40 33 94 33q44 0 70.5 -24.5t26.5 -60.5q0 -65 -107 -123h110v-61h-200zM0 -5v68q121 0 206 85t85 206t-85 206t-206 85v68q149 0 254.5 -105t105.5 -254t-105.5 -254t-254.5 -105z" />
    <glyph glyph-name="three.opencirc_fina" horiz-adv-x="420" 
d="M108 225q-44 0 -84 12l12 55q32 -7 65 -7q42 0 42 31q0 19 -15 26t-49 8v34q31 3 42 11t11 25q0 8 -8 15t-21 7q-29 0 -54 -12l-17 50q34 18 79 18q95 0 95 -71q0 -40 -34 -54q47 -16 47 -64q0 -84 -111 -84zM0 -5v68q121 0 206 85t85 206t-85 206t-206 85v68
q149 0 254.5 -105t105.5 -254t-105.5 -254t-254.5 -105z" />
    <glyph glyph-name="four.opencirc_fina" horiz-adv-x="420" 
d="M0 -5v68q121 0 206 85t85 206t-85 206t-206 85v68q149 0 254.5 -105t105.5 -254t-105.5 -254t-254.5 -105zM129 229v59h-115v56l79 150h105v-152h39v-54h-39v-59h-69zM65 342h64v112z" />
    <glyph glyph-name="five.opencirc_fina" horiz-adv-x="420" 
d="M0 -5v68q121 0 206 85t85 206t-85 206t-206 85v68q149 0 254.5 -105t105.5 -254t-105.5 -254t-254.5 -105zM106 224q-32 0 -82 12l13 50q46 -11 67 -11q18 0 27.5 10.5t9.5 25.5q0 35 -43 35q-34 0 -62 -3v152h168v-59h-101v-37h12q102 0 102 -82q0 -43 -32 -68t-79 -25z
" />
    <glyph glyph-name="six.opencirc_fina" horiz-adv-x="420" 
d="M130 226q-57 0 -84.5 27t-27.5 94q0 73 36.5 113t95.5 40q34 0 73 -11l-18 -56q-24 6 -52 6q-22 0 -38 -15t-21 -42q27 15 52 15q91 0 91 -74q0 -50 -30 -73.5t-77 -23.5zM0 -5v68q121 0 206 85t85 206t-85 206t-206 85v68q149 0 254.5 -105t105.5 -254t-105.5 -254
t-254.5 -105zM132 281q12 0 20.5 11t8.5 27q0 34 -32 34q-5 0 -35 -7q0 -36 8 -50.5t30 -14.5z" />
    <glyph glyph-name="seven.opencirc_fina" horiz-adv-x="420" 
d="M0 -5v68q121 0 206 85t85 206t-85 206t-206 85v68q149 0 254.5 -105t105.5 -254t-105.5 -254t-254.5 -105zM102 223l-73 16l118 187h-121v68h192v-58z" />
    <glyph glyph-name="eight.opencirc_fina" horiz-adv-x="420" 
d="M127 227q-109 0 -109 74q0 42 47 69q-36 22 -36 58t29.5 54t72.5 18t71 -18.5t28 -49.5q0 -36 -41 -60q48 -24 48 -66q0 -37 -29.5 -58t-80.5 -21zM0 -5v68q121 0 206 85t85 206t-85 206t-206 85v68q149 0 254.5 -105t105.5 -254t-105.5 -254t-254.5 -105zM129 278
q32 0 32 30q0 16 -49 37q-19 -13 -19 -38q0 -29 36 -29zM137 395q18 15 18 31q0 22 -26 22q-29 0 -29 -23q0 -16 37 -30z" />
    <glyph glyph-name="nine.opencirc_fina" horiz-adv-x="420" 
d="M109 226q-31 0 -73 12l18 56q22 -7 52 -7q21 0 37.5 15.5t21.5 42.5q-27 -15 -52 -15q-91 0 -91 74q0 50 30 73t77 23q57 0 84.5 -27t27.5 -93q0 -73 -37 -113.5t-95 -40.5zM0 -5v68q121 0 206 85t85 206t-85 206t-206 85v68q149 0 254.5 -105t105.5 -254t-105.5 -254
t-254.5 -105zM130 374q12 0 35 7q-1 35 -9 50t-29 15q-29 0 -29 -39q0 -33 32 -33z" />
    <glyph glyph-name="zero.opencirc_init" horiz-adv-x="420" 
d="M420 -5q-149 0 -254.5 105t-105.5 254t105.5 254t254.5 105v-68q-121 0 -206 -85t-85 -206t85 -206t206 -85v-68zM287 227q-64 0 -87.5 36.5t-23.5 95.5q0 139 117 139q35 0 58.5 -12t33.5 -33.5t13.5 -40.5t3.5 -45q0 -140 -115 -140zM289 283q25 0 33.5 21t8.5 60
q0 74 -41 74q-26 0 -34 -20t-8 -57q0 -40 9 -59t32 -19z" />
    <glyph glyph-name="one.opencirc_init" horiz-adv-x="420" 
d="M420 -5q-149 0 -254.5 105t-105.5 254t105.5 254t254.5 105v-68q-121 0 -206 -85t-85 -206t85 -206t206 -85v-68zM283 229v204h-56v59l132 3v-266h-76z" />
    <glyph glyph-name="two.opencirc_init" horiz-adv-x="420" 
d="M203 229v49q121 85 121 127q0 13 -10 21t-24 8q-30 0 -56 -19l-25 50q40 33 94 33q44 0 70.5 -24.5t26.5 -60.5q0 -65 -107 -123h110v-61h-200zM420 -5q-149 0 -254.5 105t-105.5 254t105.5 254t254.5 105v-68q-121 0 -206 -85t-85 -206t85 -206t206 -85v-68z" />
    <glyph glyph-name="three.opencirc_init" horiz-adv-x="420" 
d="M286 225q-44 0 -84 12l12 55q32 -7 65 -7q43 0 43 31q0 19 -15 26t-50 8v34q31 3 42 11t11 25q0 8 -7.5 15t-20.5 7q-28 0 -55 -12l-16 50q33 18 78 18q95 0 95 -71q0 -40 -34 -54q47 -16 47 -64q0 -84 -111 -84zM420 -5q-149 0 -254.5 105t-105.5 254t105.5 254
t254.5 105v-68q-121 0 -206 -85t-85 -206t85 -206t206 -85v-68z" />
    <glyph glyph-name="four.opencirc_init" horiz-adv-x="420" 
d="M420 -5q-149 0 -254.5 105t-105.5 254t105.5 254t254.5 105v-68q-121 0 -206 -85t-85 -206t85 -206t206 -85v-68zM297 229v59h-115v56l79 150h105v-152h39v-54h-39v-59h-69zM233 342h64v112z" />
    <glyph glyph-name="five.opencirc_init" horiz-adv-x="420" 
d="M420 -5q-149 0 -254.5 105t-105.5 254t105.5 254t254.5 105v-68q-121 0 -206 -85t-85 -206t85 -206t206 -85v-68zM286 224q-24 0 -82 11l13 51q45 -12 67 -12q38 0 38 36q0 35 -43 35q-44 0 -63 -2v151h168v-58h-101v-37h12q102 0 102 -82q0 -43 -32 -68t-79 -25z" />
    <glyph glyph-name="six.opencirc_init" horiz-adv-x="420" 
d="M295 226q-57 0 -84.5 27t-27.5 94q0 73 37 113t95 40q36 0 73 -11l-18 -56q-24 6 -52 6q-22 0 -38 -15t-21 -42q27 15 52 15q92 0 92 -74q0 -50 -30.5 -73.5t-77.5 -23.5zM420 -5q-149 0 -254.5 105t-105.5 254t105.5 254t254.5 105v-68q-121 0 -206 -85t-85 -206
t85 -206t206 -85v-68zM297 281q13 0 21.5 11t8.5 27q0 34 -33 34q-5 0 -35 -7q1 -37 8.5 -51t29.5 -14z" />
    <glyph glyph-name="seven.opencirc_init" horiz-adv-x="420" 
d="M420 -5q-149 0 -254.5 105t-105.5 254t105.5 254t254.5 105v-68q-121 0 -206 -85t-85 -206t85 -206t206 -85v-68zM289 223l-73 16l118 187h-122v68h193v-58z" />
    <glyph glyph-name="eight.opencirc_init" horiz-adv-x="420" 
d="M293 227q-109 0 -109 74q0 41 46 69q-35 21 -35 58q0 36 29.5 54t72.5 18t71 -18.5t28 -49.5q0 -35 -41 -60q48 -24 48 -66q0 -37 -29.5 -58t-80.5 -21zM420 -5q-149 0 -254.5 105t-105.5 254t105.5 254t254.5 105v-68q-121 0 -206 -85t-85 -206t85 -206t206 -85v-68z
M295 278q32 0 32 30q0 17 -50 37q-18 -12 -18 -38q0 -29 36 -29zM302 395q19 15 19 31q0 22 -26 22q-29 0 -29 -23q0 -15 36 -30z" />
    <glyph glyph-name="nine.opencirc_init" horiz-adv-x="420" 
d="M270 226q-31 0 -73 12l18 56q22 -7 52 -7q22 0 38 15.5t21 42.5q-27 -15 -52 -15q-91 0 -91 74q0 50 30.5 73t77.5 23q56 0 83.5 -27t27.5 -93q0 -73 -37 -113.5t-95 -40.5zM420 -5q-149 0 -254.5 105t-105.5 254t105.5 254t254.5 105v-68q-121 0 -206 -85t-85 -206
t85 -206t206 -85v-68zM291 374q12 0 35 7q-1 35 -9 50t-28 15q-13 0 -21.5 -10.5t-8.5 -28.5q0 -33 32 -33z" />
    <glyph glyph-name="zero.opencirc_medi" horiz-adv-x="230" 
d="M114 227q-34 0 -57 11t-34.5 31t-15.5 41t-4 49q0 139 117 139q35 0 58.5 -12t33.5 -33.5t13 -40.5t3 -45q0 -140 -114 -140zM116 283q25 0 33.5 21t8.5 60q0 73 -41 73q-26 0 -34 -20t-8 -57q0 -40 9 -58.5t32 -18.5zM0 -5v68h230v-68h-230zM0 645v68h230v-68h-230z" />
    <glyph glyph-name="one.opencirc_medi" horiz-adv-x="230" 
d="M97 229v204h-56v59l132 3v-266h-76zM0 -5v68h230v-68h-230zM0 645v68h230v-68h-230z" />
    <glyph glyph-name="two.opencirc_medi" horiz-adv-x="230" 
d="M15 229v49q121 87 121 127q0 13 -10 21t-25 8q-29 0 -55 -19l-26 50q41 33 95 33q44 0 70.5 -24.5t26.5 -60.5q0 -65 -107 -123h109v-61h-199zM0 -5v68h230v-68h-230zM0 645v68h230v-68h-230z" />
    <glyph glyph-name="three.opencirc_medi" horiz-adv-x="230" 
d="M101 225q-45 0 -83 12l11 55q32 -7 65 -7q43 0 43 31q0 19 -15 26t-50 8v34q31 3 42 11t11 25q0 8 -7.5 15t-20.5 7q-29 0 -54 -12l-17 50q33 18 78 18q95 0 95 -71q0 -40 -33 -54q46 -16 46 -64q0 -84 -111 -84zM0 -5v68h230v-68h-230zM0 645v68h230v-68h-230z" />
    <glyph glyph-name="four.opencirc_medi" horiz-adv-x="230" 
d="M120 229v59h-115v56l79 150h105v-152h36v-54h-36v-59h-69zM0 -5v68h230v-68h-230zM0 645v68h230v-68h-230zM56 342h64v112z" />
    <glyph glyph-name="five.opencirc_medi" horiz-adv-x="230" 
d="M100 224q-32 0 -82 12l13 50q48 -11 67 -11q18 0 28 10.5t10 25.5q0 35 -43 35q-35 0 -63 -3v152h168v-59h-101v-37h12q102 0 102 -82q0 -43 -32 -68t-79 -25zM0 645v68h230v-68h-230zM0 -5v68h230v-68h-230z" />
    <glyph glyph-name="six.opencirc_medi" horiz-adv-x="230" 
d="M118 226q-57 0 -84.5 27t-27.5 94q0 73 36.5 113t94.5 40q35 0 74 -11l-18 -56q-25 6 -52 6q-48 0 -59 -57q27 15 51 15q92 0 92 -74q0 -50 -30.5 -73.5t-76.5 -23.5zM120 281q12 0 20.5 11t8.5 27q0 34 -32 34q-7 0 -35 -7q0 -36 8 -50.5t30 -14.5zM0 -5v68h230v-68
h-230zM0 645v68h230v-68h-230z" />
    <glyph glyph-name="seven.opencirc_medi" horiz-adv-x="230" 
d="M95 223l-72 16l118 187h-122v68h192v-58zM0 -5v68h230v-68h-230zM0 645v68h230v-68h-230z" />
    <glyph glyph-name="eight.opencirc_medi" horiz-adv-x="230" 
d="M114 227q-109 0 -109 74q0 41 46 69q-35 21 -35 58q0 36 29.5 54t72.5 18t71 -18.5t28 -49.5q0 -35 -41 -60q48 -24 48 -66q0 -37 -29.5 -58t-80.5 -21zM116 278q32 0 32 30q0 17 -50 37q-18 -12 -18 -38q0 -29 36 -29zM123 395q19 15 19 31q0 22 -26 22q-29 0 -29 -23
q0 -15 36 -30zM0 -5v68h230v-68h-230zM0 645v68h230v-68h-230z" />
    <glyph glyph-name="nine.opencirc_medi" horiz-adv-x="230" 
d="M93 226q-33 0 -73 12l18 56q22 -7 52 -7q21 0 37.5 15.5t21.5 42.5q-28 -15 -52 -15q-92 0 -92 74q0 50 30.5 73t77.5 23q57 0 84.5 -27t27.5 -93q0 -73 -37 -113.5t-95 -40.5zM113 374q14 0 35 7q-1 35 -8.5 50t-28.5 15q-13 0 -21.5 -10.5t-8.5 -28.5q0 -33 32 -33z
M0 -5v68h230v-68h-230zM0 645v68h230v-68h-230z" />
    <glyph glyph-name="zero.plnzero" horiz-adv-x="682" 
d="M335 -9q-275 0 -275 352q0 75 14 137t45.5 116.5t90.5 85.5t142 31q270 0 270 -350q0 -82 -15.5 -147.5t-48 -117t-89 -79.5t-134.5 -28zM340 102q40 0 68.5 16t43 38.5t23 60.5t10 67.5t1.5 73.5q0 126 -29 180l-197 -412q32 -24 80 -24zM218 188l190 400q-26 14 -62 14
q-41 0 -70 -17t-44 -40.5t-23.5 -61.5t-10.5 -67t-2 -70q0 -104 22 -158z" />
    <glyph glyph-name="zero.pln" horiz-adv-x="682" 
d="M622 363q0 -82 -15.5 -147.5t-48 -117t-89 -79.5t-134.5 -28q-275 0 -275 352q0 75 14 137t45.5 116.5t90.5 85.5t142 31q270 0 270 -350zM486 358q0 32 -1 54.5t-5 54t-13.5 53t-24.5 42t-39.5 30.5t-56.5 10q-41 0 -70.5 -17t-44.5 -40.5t-23.5 -61.5t-10 -66.5
t-1.5 -70.5q0 -51 5 -89t19 -76t44.5 -58.5t75.5 -20.5q40 0 68.5 16t43 38.5t23 60.5t10 67.5t1.5 73.5z" />
    <glyph glyph-name="one.pln" horiz-adv-x="384" 
d="M289 0h-134v596h-141v104l275 8v-708z" />
    <glyph glyph-name="two.pln" horiz-adv-x="552" 
d="M511 0h-480v95q2 2 29 27t44.5 42t50 49.5t55.5 57.5t50.5 59t44.5 61t29 55t12 49q0 59 -28 84t-81 25q-68 0 -142 -32l-43 93q27 16 47.5 25t60.5 17t90 8q230 0 230 -212q0 -43 -18 -88.5t-41 -81t-66.5 -81t-73 -72t-80.5 -71.5h310v-109z" />
    <glyph glyph-name="three.pln" horiz-adv-x="519" 
d="M470 198q0 -208 -258 -208q-55 0 -102 6t-66 12l-19 6l26 108q65 -18 151 -18q66 0 100 20.5t34 74.5q0 61 -42 87.5t-142 32.5v95q79 5 116 30.5t37 79.5q0 40 -25.5 60.5t-70.5 20.5q-29 0 -60.5 -5t-48.5 -10l-16 -5l-37 94q74 37 169 37t157 -45t62 -130
q0 -113 -106 -162q62 -22 101.5 -67t39.5 -114z" />
    <glyph glyph-name="four.pln" horiz-adv-x="602" 
d="M568 161h-105v-161h-133v161h-307v106l253 440h187v-438h105v-108zM330 269v324l-178 -324h178z" />
    <glyph glyph-name="five.pln" horiz-adv-x="546" 
d="M502 222q0 -109 -73 -170.5t-189 -61.5q-120 0 -192 24l32 109q72 -18 159 -18q60 0 95 29t35 77q0 116 -119 116q-7 0 -21 -0.5t-20 -0.5q-66 0 -136 -7v388h396v-108h-267v-167q23 1 63 1q110 0 173.5 -55.5t63.5 -155.5z" />
    <glyph glyph-name="six.pln" horiz-adv-x="610" 
d="M322 -12q-131 0 -197.5 75t-66.5 243q0 200 88 304t241 104q81 0 134 -20l-29 -104q-50 12 -106 12q-143 0 -182 -167q65 19 128 19q116 0 178 -55t62 -165q0 -115 -71 -180.5t-179 -65.5zM319 350q-72 0 -128 -19v-31q0 -111 30 -157t108 -46q50 0 79.5 35.5t29.5 91.5
q0 126 -119 126z" />
    <glyph glyph-name="seven.pln" horiz-adv-x="490" 
d="M480 614l-313 -625l-113 33l297 573h-329v112h458v-93z" />
    <glyph glyph-name="eight.pln" horiz-adv-x="607" 
d="M300 -12q-113 0 -182 47t-69 139q0 69 39.5 114t107.5 82q-57 37 -89 75t-32 91q0 88 65 135t170 47q101 0 163 -51t62 -122q0 -57 -36 -95.5t-102 -77.5q76 -41 118 -82t42 -104q0 -97 -70 -147.5t-187 -50.5zM306 89q54 0 85.5 25.5t31.5 75.5q0 62 -130 133
q-114 -64 -114 -137q0 -46 34.5 -71.5t92.5 -25.5zM300 415q102 52 102 115q0 40 -23.5 64t-69.5 24q-53 0 -78.5 -24.5t-25.5 -64.5q0 -61 95 -114z" />
    <glyph glyph-name="nine.pln" horiz-adv-x="611" 
d="M219 -9q-76 0 -131 20l29 105q54 -13 104 -13q153 0 187 170q-74 -18 -131 -18q-238 0 -238 221q0 114 71.5 177.5t179.5 63.5q126 0 194.5 -79t68.5 -239q0 -208 -86.5 -308t-247.5 -100zM292 358q50 0 126 19v13q2 117 -29 167t-106 50q-51 0 -80.5 -33t-29.5 -89
q0 -70 31 -98.5t88 -28.5z" />
    <glyph glyph-name="zero.tlnzero" 
d="M294 -9q-78 0 -130.5 27.5t-79.5 79t-37.5 109.5t-10.5 136q0 60 6.5 110t24.5 100t47.5 84t79.5 55t117 21q66 0 114.5 -21.5t75 -53.5t42.5 -81.5t20.5 -93.5t4.5 -100q0 -83 -13.5 -147.5t-43.5 -116.5t-85 -80t-132 -28zM299 102q33 0 57.5 13t38.5 34t22.5 55.5
t11.5 69.5t3 84q0 110 -23 164l-187 -391q29 -29 77 -29zM172 346q0 -87 17 -135l178 376q-26 15 -62 15q-41 0 -68 -19t-40.5 -55.5t-19 -79t-5.5 -102.5z" />
    <glyph glyph-name="zero.tln" 
d="M294 -9q-78 0 -130.5 27.5t-79.5 79t-37.5 109.5t-10.5 136q0 60 6.5 110t24.5 100t47.5 84t79.5 55t117 21q66 0 114.5 -21.5t75 -53.5t42.5 -81.5t20.5 -93.5t4.5 -100q0 -83 -13.5 -147.5t-43.5 -116.5t-85 -80t-132 -28zM299 102q75 0 103.5 62.5t29.5 193.5
q0 58 -4.5 97t-17 75t-38.5 54t-67 18t-68 -19t-40.5 -55.5t-19 -79t-5.5 -102.5q0 -123 29 -183.5t98 -60.5z" />
    <glyph glyph-name="one.tln" 
d="M67 0v109h168v487h-167v104l300 8v-599h168v-109h-469z" />
    <glyph glyph-name="two.tln" 
d="M60 0v95q5 5 43 39t68 62.5t73 73.5t72 81.5t50.5 76t21.5 67.5q0 109 -122 109q-15 0 -28.5 -1t-27 -4t-21.5 -5t-21 -7t-16.5 -6.5l-17.5 -7.5l-13 -6l-42 94q29 17 48.5 26t61 18.5t90.5 9.5q69 0 119 -19t75.5 -51.5t37 -67t11.5 -74.5q0 -50 -20 -98t-72.5 -106
t-77.5 -81.5t-101 -89.5q-14 -13 -21 -19h320v-109h-490z" />
    <glyph glyph-name="three.tln" 
d="M261 -10q-55 0 -104.5 7t-70.5 15l-22 7l26 108q83 -23 161 -23q157 0 157 95q0 63 -54 90.5t-160 29.5v95q183 9 183 110q0 39 -33.5 60t-85.5 21q-62 0 -139 -24l-37 94q82 41 183 41q100 0 171 -44.5t71 -130.5q0 -36 -11.5 -64t-32.5 -46.5t-40 -30t-45 -21.5
q70 -20 117 -65t47 -116q0 -48 -16.5 -85t-43 -60t-64.5 -37.5t-76 -20t-81 -5.5z" />
    <glyph glyph-name="four.tln" 
d="M335 0v161h-307v106l252 440h188v-438h104v-108h-104v-161h-133zM156 269h179v324z" />
    <glyph glyph-name="five.tln" 
d="M265 -11q-117 0 -192 25l32 109q76 -19 159 -19q63 0 106.5 30t43.5 77q0 59 -39.5 87.5t-99.5 28.5q-28 0 -43 -1q-64 0 -134 -7v388h416v-108h-288v-167q24 1 64 1q112 0 184.5 -56.5t72.5 -154.5q0 -108 -81 -170.5t-201 -62.5z" />
    <glyph glyph-name="six.tln" 
d="M307 -12q-131 0 -197.5 75t-66.5 243q0 200 88 304t241 104q81 0 134 -20l-29 -104q-50 12 -106 12q-143 0 -182 -167q65 19 128 19q116 0 178 -55t62 -165q0 -115 -71 -180.5t-179 -65.5zM304 350q-72 0 -128 -19v-31q0 -111 30 -157t108 -46q50 0 79.5 35.5t29.5 91.5
q0 126 -119 126z" />
    <glyph glyph-name="seven.tln" 
d="M225 -12l-112 35l302 572h-358v112h489v-93z" />
    <glyph glyph-name="eight.tln" 
d="M297 -12q-113 0 -182 47t-69 139q0 69 39.5 114t107.5 82q-57 37 -89 75t-32 91q0 88 65 135t170 47q101 0 163 -51t62 -122q0 -57 -36 -95.5t-102 -77.5q76 -41 118 -82t42 -104q0 -97 -70 -147.5t-187 -50.5zM303 89q54 0 85.5 25.5t31.5 75.5q0 62 -130 133
q-114 -64 -114 -137q0 -46 34.5 -71.5t92.5 -25.5zM297 415q102 52 102 115q0 40 -23.5 64t-69.5 24q-53 0 -78.5 -24.5t-25.5 -64.5q0 -61 95 -114z" />
    <glyph glyph-name="nine.tln" 
d="M221 -9q-76 0 -131 20l29 105q54 -13 104 -13q153 0 187 170q-74 -18 -131 -18q-238 0 -238 221q0 114 71.5 177.5t179.5 63.5q126 0 194.5 -79t68.5 -239q0 -208 -86.5 -308t-247.5 -100zM294 358q50 0 126 19v13q2 117 -29 167t-106 50q-51 0 -80.5 -33t-29.5 -89
q0 -70 31 -98.5t88 -28.5z" />
    <glyph glyph-name="zero.tonzero" 
d="M296 -12q-140 0 -207 69t-67 211q0 141 71 216.5t215 75.5q270 0 270 -278q0 -148 -72.5 -221t-209.5 -73zM299 99q70 0 107 45.5t37 134.5q0 51 -14 88l-222 -238q36 -30 92 -30zM158 270q0 -49 12 -82l221 235q-34 26 -87 26q-146 0 -146 -179z" />
    <glyph glyph-name="zero.ton" 
d="M296 -12q-140 0 -207 69t-67 211q0 141 71 216.5t215 75.5q270 0 270 -278q0 -148 -72.5 -221t-209.5 -73zM299 99q70 0 107 45.5t37 134.5q0 170 -139 170q-146 0 -146 -179q0 -86 37 -128.5t104 -42.5z" />
    <glyph glyph-name="one.ton" 
d="M67 0v109h168v338h-167v105l300 8v-451h168v-109h-469z" />
    <glyph glyph-name="two.ton" 
d="M71 0v110q18 12 69 44.5t85.5 56t75 55t62 59.5t21.5 52q0 73 -113 73q-74 0 -163 -40l-39 91q89 58 211 58q111 0 173 -47t62 -131q0 -143 -276 -273h303v-108h-471z" />
    <glyph glyph-name="three.ton" 
d="M261 -166q-55 0 -104.5 7.5t-70.5 14.5l-22 8l26 108q86 -24 161 -24q157 0 157 96q0 64 -53.5 91t-160.5 29v95q183 7 183 109q0 39 -33.5 60t-85.5 21q-65 0 -139 -23l-37 94q86 41 183 41q107 0 174.5 -44t67.5 -132q0 -109 -129 -161q164 -58 164 -180
q0 -48 -16.5 -85.5t-43 -60.5t-64.5 -38t-76 -20.5t-81 -5.5z" />
    <glyph glyph-name="four.ton" 
d="M338 -162v192h-314v92l244 424h203v-408h105v-108h-105v-192h-133zM149 138h189v335z" />
    <glyph glyph-name="five.ton" 
d="M261 -171q-113 0 -192 24l33 110q76 -19 158 -19q65 0 109 29t44 77q0 60 -40 88t-102 28h-39q-79 -2 -138 -8v388h420v-108h-291v-168q34 3 63 3q113 0 187 -57t74 -155q0 -108 -83.5 -170t-202.5 -62z" />
    <glyph glyph-name="six.ton" 
d="M306 -12q-131 0 -197.5 75t-66.5 243q0 200 88 304t241 104q81 0 134 -20l-29 -104q-50 12 -106 12q-143 0 -182 -167q65 19 128 19q116 0 178 -55t62 -165q0 -115 -71 -180.5t-179 -65.5zM303 350q-72 0 -128 -19v-31q0 -111 30 -157t108 -46q50 0 79.5 35.5t29.5 91.5
q0 126 -119 126z" />
    <glyph glyph-name="seven.ton" 
d="M230 -183l-117 40l298 570h-348v119h483v-93z" />
    <glyph glyph-name="eight.ton" 
d="M297 -12q-113 0 -182 47t-69 139q0 69 39.5 114t107.5 82q-57 37 -89 75t-32 91q0 88 65 135t170 47q101 0 163 -51t62 -122q0 -57 -36 -95.5t-102 -77.5q76 -41 118 -82t42 -104q0 -97 -70 -147.5t-187 -50.5zM303 89q54 0 85.5 25.5t31.5 75.5q0 62 -130 133
q-114 -64 -114 -137q0 -46 34.5 -71.5t92.5 -25.5zM297 415q102 52 102 115q0 40 -23.5 64t-69.5 24q-53 0 -78.5 -24.5t-25.5 -64.5q0 -61 95 -114z" />
    <glyph glyph-name="nine.ton" 
d="M224 -166q-76 0 -131 20l29 105q54 -13 104 -13q153 0 187 170q-74 -18 -131 -18q-238 0 -238 221q0 114 71.5 177.5t179.5 63.5q126 0 194.5 -79t68.5 -239q0 -208 -86.5 -308t-247.5 -100zM297 201q50 0 126 19v13q2 117 -29 167t-106 50q-51 0 -80.5 -33t-29.5 -89
q0 -70 31 -98.5t88 -28.5z" />
    <glyph glyph-name="registered.pln" horiz-adv-x="831" 
d="M593 264q-69 5 -118 60q-7 7 -18.5 22.5t-25 34t-17.5 23.5q-6 -1 -23 -1h-27v-134h-85v387h138q146 0 146 -122q0 -76 -67 -105q6 -7 19 -25t20 -26.5t19.5 -20.5t25.5 -20t29 -13zM408 94q-162 0 -254 99t-92 262q0 165 100 261t263 96q165 0 254.5 -99.5t89.5 -259.5
q0 -164 -97 -261.5t-264 -97.5zM411 158q136 0 208.5 82t72.5 214q0 130 -73.5 212t-201.5 82q-132 0 -205 -81t-73 -211q0 -128 71.5 -213t200.5 -85zM364 470h30q41 0 60.5 13.5t19.5 47.5q0 31 -16 44.5t-51 13.5h-43v-119z" />
    <glyph glyph-name="copyright.pln" horiz-adv-x="831" 
d="M435 147q-95 0 -149.5 56.5t-54.5 143.5q0 93 53.5 148.5t148.5 55.5q80 0 125 -28l-25 -68q-46 17 -99 17q-52 0 -84.5 -30t-32.5 -90t35.5 -91t91.5 -31q53 0 93 14l23 -73q-58 -24 -125 -24zM407 -12q-162 0 -253.5 98.5t-91.5 262.5q0 166 100 261t264 95
q165 0 254 -98.5t89 -259.5q0 -165 -97 -262t-265 -97zM411 52q136 0 208.5 82t72.5 214q0 130 -73.5 211.5t-201.5 81.5q-133 0 -205.5 -80.5t-72.5 -210.5q0 -128 71.5 -213t200.5 -85z" />
    <glyph glyph-name="uni2117.pln" horiz-adv-x="827" 
d="M581 420q0 -45 -19 -75.5t-50.5 -43t-55.5 -17t-50 -4.5h-27v-121h-86v392h140q67 0 107.5 -31.5t40.5 -99.5zM491 418q0 65 -69 65h-43v-135h30q82 0 82 70zM405 -12q-162 0 -253.5 98t-91.5 263q0 166 100 261t264 95q165 0 254 -98.5t89 -259.5q0 -165 -97 -262
t-265 -97zM408 52q137 0 209.5 82t72.5 214q0 130 -73.5 211.5t-201.5 81.5q-133 0 -206 -81t-73 -210q0 -128 71.5 -213t200.5 -85z" />
    <glyph glyph-name="uni267E.pln" horiz-adv-x="827" 
d="M405 -13q-162 0 -253.5 98.5t-91.5 262.5q0 166 100 261.5t264 95.5q165 0 254 -99t89 -260q0 -165 -97 -262t-265 -97zM409 51q136 0 208.5 82t72.5 214q0 130 -73.5 212t-201.5 82q-132 0 -205 -81t-73 -211q0 -128 71.5 -213t200.5 -85zM304 213q-46 0 -72.5 40.5
t-26.5 90.5q0 48 27.5 89.5t71.5 41.5q38 0 62.5 -23.5t50.5 -67.5q52 91 115 91q44 0 71 -41t27 -90q0 -50 -26 -90.5t-72 -40.5q-8 0 -16.5 1.5t-14.5 3.5t-13.5 7t-12 7.5t-11.5 10.5t-10 10.5t-10 12.5t-9 12.5t-9.5 13t-8.5 12.5q-56 -91 -113 -91zM523 271q21 0 34 20
t13 53q0 34 -13 54.5t-34 20.5q-5 0 -9.5 -1.5t-9.5 -4.5t-9 -6t-9.5 -9t-9 -9.5t-9 -11t-8 -11t-8 -12t-7.5 -10.5q2 -2 14 -18t16.5 -21.5t14 -15.5t18 -14t16.5 -4zM312 271q13 0 30 14t25.5 25.5t24.5 34.5q-3 4 -11.5 16t-12.5 17.5t-12.5 15t-14.5 14t-14 8t-15 3.5
q-44 0 -44 -75q0 -29 12 -51t32 -22z" />
    </font>
</defs>
</svg>
